<?xml version="1.0" encoding="utf-8" standalone="no"?>
<!DOCTYPE svg PUBLIC "-//W3C//DTD SVG 1.1//EN"
  "http://www.w3.org/Graphics/SVG/1.1/DTD/svg11.dtd">
<svg xmlns:xlink="http://www.w3.org/1999/xlink" width="1440pt" height="1080pt" viewBox="0 0 1440 1080" xmlns="http://www.w3.org/2000/svg" version="1.1">
 <metadata>
  <rdf:RDF xmlns:dc="http://purl.org/dc/elements/1.1/" xmlns:cc="http://creativecommons.org/ns#" xmlns:rdf="http://www.w3.org/1999/02/22-rdf-syntax-ns#">
   <cc:Work>
    <dc:type rdf:resource="http://purl.org/dc/dcmitype/StillImage"/>
    <dc:date>2023-09-01T11:00:50.081508</dc:date>
    <dc:format>image/svg+xml</dc:format>
    <dc:creator>
     <cc:Agent>
      <dc:title>Matplotlib v3.7.1, https://matplotlib.org/</dc:title>
     </cc:Agent>
    </dc:creator>
   </cc:Work>
  </rdf:RDF>
 </metadata>
 <defs>
  <style type="text/css">*{stroke-linejoin: round; stroke-linecap: butt}</style>
 </defs>
 <g id="figure_1">
  <g id="patch_1">
   <path d="M 0 1080 
L 1440 1080 
L 1440 0 
L 0 0 
z
" style="fill: #ffffff"/>
  </g>
  <g id="axes_1">
   <g id="patch_2">
    <path d="M 121.17 989.34 
L 1432.8 989.34 
L 1432.8 7.2 
L 121.17 7.2 
z
" style="fill: #ffffff"/>
   </g>
   <g id="matplotlib.axis_1">
    <g id="xtick_1">
     <g id="line2d_1">
      <path d="M 140.999381 989.34 
L 140.999381 7.2 
" clip-path="url(#pd8c34ffdcc)" style="fill: none; stroke: #cccccc; stroke-linecap: round"/>
     </g>
     <g id="text_1">
      <!-- 0 -->
      <g style="fill: #262626" transform="translate(130.501256 1026.914844) scale(0.33 -0.33)">
       <defs>
        <path id="DejaVuSans-30" d="M 2034 4250 
Q 1547 4250 1301 3770 
Q 1056 3291 1056 2328 
Q 1056 1369 1301 889 
Q 1547 409 2034 409 
Q 2525 409 2770 889 
Q 3016 1369 3016 2328 
Q 3016 3291 2770 3770 
Q 2525 4250 2034 4250 
z
M 2034 4750 
Q 2819 4750 3233 4129 
Q 3647 3509 3647 2328 
Q 3647 1150 3233 529 
Q 2819 -91 2034 -91 
Q 1250 -91 836 529 
Q 422 1150 422 2328 
Q 422 3509 836 4129 
Q 1250 4750 2034 4750 
z
" transform="scale(0.015625)"/>
       </defs>
       <use xlink:href="#DejaVuSans-30"/>
      </g>
     </g>
    </g>
    <g id="xtick_2">
     <g id="line2d_2">
      <path d="M 346.314986 989.34 
L 346.314986 7.2 
" clip-path="url(#pd8c34ffdcc)" style="fill: none; stroke: #cccccc; stroke-linecap: round"/>
     </g>
     <g id="text_2">
      <!-- 100 -->
      <g style="fill: #262626" transform="translate(314.820611 1026.914844) scale(0.33 -0.33)">
       <defs>
        <path id="DejaVuSans-31" d="M 794 531 
L 1825 531 
L 1825 4091 
L 703 3866 
L 703 4441 
L 1819 4666 
L 2450 4666 
L 2450 531 
L 3481 531 
L 3481 0 
L 794 0 
L 794 531 
z
" transform="scale(0.015625)"/>
       </defs>
       <use xlink:href="#DejaVuSans-31"/>
       <use xlink:href="#DejaVuSans-30" x="63.623047"/>
       <use xlink:href="#DejaVuSans-30" x="127.246094"/>
      </g>
     </g>
    </g>
    <g id="xtick_3">
     <g id="line2d_3">
      <path d="M 551.630592 989.34 
L 551.630592 7.2 
" clip-path="url(#pd8c34ffdcc)" style="fill: none; stroke: #cccccc; stroke-linecap: round"/>
     </g>
     <g id="text_3">
      <!-- 200 -->
      <g style="fill: #262626" transform="translate(520.136217 1026.914844) scale(0.33 -0.33)">
       <defs>
        <path id="DejaVuSans-32" d="M 1228 531 
L 3431 531 
L 3431 0 
L 469 0 
L 469 531 
Q 828 903 1448 1529 
Q 2069 2156 2228 2338 
Q 2531 2678 2651 2914 
Q 2772 3150 2772 3378 
Q 2772 3750 2511 3984 
Q 2250 4219 1831 4219 
Q 1534 4219 1204 4116 
Q 875 4013 500 3803 
L 500 4441 
Q 881 4594 1212 4672 
Q 1544 4750 1819 4750 
Q 2544 4750 2975 4387 
Q 3406 4025 3406 3419 
Q 3406 3131 3298 2873 
Q 3191 2616 2906 2266 
Q 2828 2175 2409 1742 
Q 1991 1309 1228 531 
z
" transform="scale(0.015625)"/>
       </defs>
       <use xlink:href="#DejaVuSans-32"/>
       <use xlink:href="#DejaVuSans-30" x="63.623047"/>
       <use xlink:href="#DejaVuSans-30" x="127.246094"/>
      </g>
     </g>
    </g>
    <g id="xtick_4">
     <g id="line2d_4">
      <path d="M 756.946197 989.34 
L 756.946197 7.2 
" clip-path="url(#pd8c34ffdcc)" style="fill: none; stroke: #cccccc; stroke-linecap: round"/>
     </g>
     <g id="text_4">
      <!-- 300 -->
      <g style="fill: #262626" transform="translate(725.451822 1026.914844) scale(0.33 -0.33)">
       <defs>
        <path id="DejaVuSans-33" d="M 2597 2516 
Q 3050 2419 3304 2112 
Q 3559 1806 3559 1356 
Q 3559 666 3084 287 
Q 2609 -91 1734 -91 
Q 1441 -91 1130 -33 
Q 819 25 488 141 
L 488 750 
Q 750 597 1062 519 
Q 1375 441 1716 441 
Q 2309 441 2620 675 
Q 2931 909 2931 1356 
Q 2931 1769 2642 2001 
Q 2353 2234 1838 2234 
L 1294 2234 
L 1294 2753 
L 1863 2753 
Q 2328 2753 2575 2939 
Q 2822 3125 2822 3475 
Q 2822 3834 2567 4026 
Q 2313 4219 1838 4219 
Q 1578 4219 1281 4162 
Q 984 4106 628 3988 
L 628 4550 
Q 988 4650 1302 4700 
Q 1616 4750 1894 4750 
Q 2613 4750 3031 4423 
Q 3450 4097 3450 3541 
Q 3450 3153 3228 2886 
Q 3006 2619 2597 2516 
z
" transform="scale(0.015625)"/>
       </defs>
       <use xlink:href="#DejaVuSans-33"/>
       <use xlink:href="#DejaVuSans-30" x="63.623047"/>
       <use xlink:href="#DejaVuSans-30" x="127.246094"/>
      </g>
     </g>
    </g>
    <g id="xtick_5">
     <g id="line2d_5">
      <path d="M 962.261802 989.34 
L 962.261802 7.2 
" clip-path="url(#pd8c34ffdcc)" style="fill: none; stroke: #cccccc; stroke-linecap: round"/>
     </g>
     <g id="text_5">
      <!-- 400 -->
      <g style="fill: #262626" transform="translate(930.767427 1026.914844) scale(0.33 -0.33)">
       <defs>
        <path id="DejaVuSans-34" d="M 2419 4116 
L 825 1625 
L 2419 1625 
L 2419 4116 
z
M 2253 4666 
L 3047 4666 
L 3047 1625 
L 3713 1625 
L 3713 1100 
L 3047 1100 
L 3047 0 
L 2419 0 
L 2419 1100 
L 313 1100 
L 313 1709 
L 2253 4666 
z
" transform="scale(0.015625)"/>
       </defs>
       <use xlink:href="#DejaVuSans-34"/>
       <use xlink:href="#DejaVuSans-30" x="63.623047"/>
       <use xlink:href="#DejaVuSans-30" x="127.246094"/>
      </g>
     </g>
    </g>
    <g id="xtick_6">
     <g id="line2d_6">
      <path d="M 1167.577407 989.34 
L 1167.577407 7.2 
" clip-path="url(#pd8c34ffdcc)" style="fill: none; stroke: #cccccc; stroke-linecap: round"/>
     </g>
     <g id="text_6">
      <!-- 500 -->
      <g style="fill: #262626" transform="translate(1136.083032 1026.914844) scale(0.33 -0.33)">
       <defs>
        <path id="DejaVuSans-35" d="M 691 4666 
L 3169 4666 
L 3169 4134 
L 1269 4134 
L 1269 2991 
Q 1406 3038 1543 3061 
Q 1681 3084 1819 3084 
Q 2600 3084 3056 2656 
Q 3513 2228 3513 1497 
Q 3513 744 3044 326 
Q 2575 -91 1722 -91 
Q 1428 -91 1123 -41 
Q 819 9 494 109 
L 494 744 
Q 775 591 1075 516 
Q 1375 441 1709 441 
Q 2250 441 2565 725 
Q 2881 1009 2881 1497 
Q 2881 1984 2565 2268 
Q 2250 2553 1709 2553 
Q 1456 2553 1204 2497 
Q 953 2441 691 2322 
L 691 4666 
z
" transform="scale(0.015625)"/>
       </defs>
       <use xlink:href="#DejaVuSans-35"/>
       <use xlink:href="#DejaVuSans-30" x="63.623047"/>
       <use xlink:href="#DejaVuSans-30" x="127.246094"/>
      </g>
     </g>
    </g>
    <g id="xtick_7">
     <g id="line2d_7">
      <path d="M 1372.893013 989.34 
L 1372.893013 7.2 
" clip-path="url(#pd8c34ffdcc)" style="fill: none; stroke: #cccccc; stroke-linecap: round"/>
     </g>
     <g id="text_7">
      <!-- 600 -->
      <g style="fill: #262626" transform="translate(1341.398638 1026.914844) scale(0.33 -0.33)">
       <defs>
        <path id="DejaVuSans-36" d="M 2113 2584 
Q 1688 2584 1439 2293 
Q 1191 2003 1191 1497 
Q 1191 994 1439 701 
Q 1688 409 2113 409 
Q 2538 409 2786 701 
Q 3034 994 3034 1497 
Q 3034 2003 2786 2293 
Q 2538 2584 2113 2584 
z
M 3366 4563 
L 3366 3988 
Q 3128 4100 2886 4159 
Q 2644 4219 2406 4219 
Q 1781 4219 1451 3797 
Q 1122 3375 1075 2522 
Q 1259 2794 1537 2939 
Q 1816 3084 2150 3084 
Q 2853 3084 3261 2657 
Q 3669 2231 3669 1497 
Q 3669 778 3244 343 
Q 2819 -91 2113 -91 
Q 1303 -91 875 529 
Q 447 1150 447 2328 
Q 447 3434 972 4092 
Q 1497 4750 2381 4750 
Q 2619 4750 2861 4703 
Q 3103 4656 3366 4563 
z
" transform="scale(0.015625)"/>
       </defs>
       <use xlink:href="#DejaVuSans-36"/>
       <use xlink:href="#DejaVuSans-30" x="63.623047"/>
       <use xlink:href="#DejaVuSans-30" x="127.246094"/>
      </g>
     </g>
    </g>
    <g id="xtick_8">
     <g id="line2d_8">
      <path d="M 182.062502 989.34 
L 182.062502 7.2 
" clip-path="url(#pd8c34ffdcc)" style="fill: none; stroke: #cccccc; stroke-width: 0.5; stroke-linecap: round"/>
     </g>
    </g>
    <g id="xtick_9">
     <g id="line2d_9">
      <path d="M 223.125623 989.34 
L 223.125623 7.2 
" clip-path="url(#pd8c34ffdcc)" style="fill: none; stroke: #cccccc; stroke-width: 0.5; stroke-linecap: round"/>
     </g>
    </g>
    <g id="xtick_10">
     <g id="line2d_10">
      <path d="M 264.188744 989.34 
L 264.188744 7.2 
" clip-path="url(#pd8c34ffdcc)" style="fill: none; stroke: #cccccc; stroke-width: 0.5; stroke-linecap: round"/>
     </g>
    </g>
    <g id="xtick_11">
     <g id="line2d_11">
      <path d="M 305.251865 989.34 
L 305.251865 7.2 
" clip-path="url(#pd8c34ffdcc)" style="fill: none; stroke: #cccccc; stroke-width: 0.5; stroke-linecap: round"/>
     </g>
    </g>
    <g id="xtick_12">
     <g id="line2d_12">
      <path d="M 387.378107 989.34 
L 387.378107 7.2 
" clip-path="url(#pd8c34ffdcc)" style="fill: none; stroke: #cccccc; stroke-width: 0.5; stroke-linecap: round"/>
     </g>
    </g>
    <g id="xtick_13">
     <g id="line2d_13">
      <path d="M 428.441229 989.34 
L 428.441229 7.2 
" clip-path="url(#pd8c34ffdcc)" style="fill: none; stroke: #cccccc; stroke-width: 0.5; stroke-linecap: round"/>
     </g>
    </g>
    <g id="xtick_14">
     <g id="line2d_14">
      <path d="M 469.50435 989.34 
L 469.50435 7.2 
" clip-path="url(#pd8c34ffdcc)" style="fill: none; stroke: #cccccc; stroke-width: 0.5; stroke-linecap: round"/>
     </g>
    </g>
    <g id="xtick_15">
     <g id="line2d_15">
      <path d="M 510.567471 989.34 
L 510.567471 7.2 
" clip-path="url(#pd8c34ffdcc)" style="fill: none; stroke: #cccccc; stroke-width: 0.5; stroke-linecap: round"/>
     </g>
    </g>
    <g id="xtick_16">
     <g id="line2d_16">
      <path d="M 592.693713 989.34 
L 592.693713 7.2 
" clip-path="url(#pd8c34ffdcc)" style="fill: none; stroke: #cccccc; stroke-width: 0.5; stroke-linecap: round"/>
     </g>
    </g>
    <g id="xtick_17">
     <g id="line2d_17">
      <path d="M 633.756834 989.34 
L 633.756834 7.2 
" clip-path="url(#pd8c34ffdcc)" style="fill: none; stroke: #cccccc; stroke-width: 0.5; stroke-linecap: round"/>
     </g>
    </g>
    <g id="xtick_18">
     <g id="line2d_18">
      <path d="M 674.819955 989.34 
L 674.819955 7.2 
" clip-path="url(#pd8c34ffdcc)" style="fill: none; stroke: #cccccc; stroke-width: 0.5; stroke-linecap: round"/>
     </g>
    </g>
    <g id="xtick_19">
     <g id="line2d_19">
      <path d="M 715.883076 989.34 
L 715.883076 7.2 
" clip-path="url(#pd8c34ffdcc)" style="fill: none; stroke: #cccccc; stroke-width: 0.5; stroke-linecap: round"/>
     </g>
    </g>
    <g id="xtick_20">
     <g id="line2d_20">
      <path d="M 798.009318 989.34 
L 798.009318 7.2 
" clip-path="url(#pd8c34ffdcc)" style="fill: none; stroke: #cccccc; stroke-width: 0.5; stroke-linecap: round"/>
     </g>
    </g>
    <g id="xtick_21">
     <g id="line2d_21">
      <path d="M 839.072439 989.34 
L 839.072439 7.2 
" clip-path="url(#pd8c34ffdcc)" style="fill: none; stroke: #cccccc; stroke-width: 0.5; stroke-linecap: round"/>
     </g>
    </g>
    <g id="xtick_22">
     <g id="line2d_22">
      <path d="M 880.13556 989.34 
L 880.13556 7.2 
" clip-path="url(#pd8c34ffdcc)" style="fill: none; stroke: #cccccc; stroke-width: 0.5; stroke-linecap: round"/>
     </g>
    </g>
    <g id="xtick_23">
     <g id="line2d_23">
      <path d="M 921.198681 989.34 
L 921.198681 7.2 
" clip-path="url(#pd8c34ffdcc)" style="fill: none; stroke: #cccccc; stroke-width: 0.5; stroke-linecap: round"/>
     </g>
    </g>
    <g id="xtick_24">
     <g id="line2d_24">
      <path d="M 1003.324923 989.34 
L 1003.324923 7.2 
" clip-path="url(#pd8c34ffdcc)" style="fill: none; stroke: #cccccc; stroke-width: 0.5; stroke-linecap: round"/>
     </g>
    </g>
    <g id="xtick_25">
     <g id="line2d_25">
      <path d="M 1044.388044 989.34 
L 1044.388044 7.2 
" clip-path="url(#pd8c34ffdcc)" style="fill: none; stroke: #cccccc; stroke-width: 0.5; stroke-linecap: round"/>
     </g>
    </g>
    <g id="xtick_26">
     <g id="line2d_26">
      <path d="M 1085.451165 989.34 
L 1085.451165 7.2 
" clip-path="url(#pd8c34ffdcc)" style="fill: none; stroke: #cccccc; stroke-width: 0.5; stroke-linecap: round"/>
     </g>
    </g>
    <g id="xtick_27">
     <g id="line2d_27">
      <path d="M 1126.514286 989.34 
L 1126.514286 7.2 
" clip-path="url(#pd8c34ffdcc)" style="fill: none; stroke: #cccccc; stroke-width: 0.5; stroke-linecap: round"/>
     </g>
    </g>
    <g id="xtick_28">
     <g id="line2d_28">
      <path d="M 1208.640528 989.34 
L 1208.640528 7.2 
" clip-path="url(#pd8c34ffdcc)" style="fill: none; stroke: #cccccc; stroke-width: 0.5; stroke-linecap: round"/>
     </g>
    </g>
    <g id="xtick_29">
     <g id="line2d_29">
      <path d="M 1249.70365 989.34 
L 1249.70365 7.2 
" clip-path="url(#pd8c34ffdcc)" style="fill: none; stroke: #cccccc; stroke-width: 0.5; stroke-linecap: round"/>
     </g>
    </g>
    <g id="xtick_30">
     <g id="line2d_30">
      <path d="M 1290.766771 989.34 
L 1290.766771 7.2 
" clip-path="url(#pd8c34ffdcc)" style="fill: none; stroke: #cccccc; stroke-width: 0.5; stroke-linecap: round"/>
     </g>
    </g>
    <g id="xtick_31">
     <g id="line2d_31">
      <path d="M 1331.829892 989.34 
L 1331.829892 7.2 
" clip-path="url(#pd8c34ffdcc)" style="fill: none; stroke: #cccccc; stroke-width: 0.5; stroke-linecap: round"/>
     </g>
    </g>
    <g id="xtick_32">
     <g id="line2d_32">
      <path d="M 1413.956134 989.34 
L 1413.956134 7.2 
" clip-path="url(#pd8c34ffdcc)" style="fill: none; stroke: #cccccc; stroke-width: 0.5; stroke-linecap: round"/>
     </g>
    </g>
    <g id="text_8">
     <!-- average absolute e2e testing time of retest-all [s] -->
     <g style="fill: #262626" transform="translate(328.253437 1065.132187) scale(0.36 -0.36)">
      <defs>
       <path id="DejaVuSans-61" d="M 2194 1759 
Q 1497 1759 1228 1600 
Q 959 1441 959 1056 
Q 959 750 1161 570 
Q 1363 391 1709 391 
Q 2188 391 2477 730 
Q 2766 1069 2766 1631 
L 2766 1759 
L 2194 1759 
z
M 3341 1997 
L 3341 0 
L 2766 0 
L 2766 531 
Q 2569 213 2275 61 
Q 1981 -91 1556 -91 
Q 1019 -91 701 211 
Q 384 513 384 1019 
Q 384 1609 779 1909 
Q 1175 2209 1959 2209 
L 2766 2209 
L 2766 2266 
Q 2766 2663 2505 2880 
Q 2244 3097 1772 3097 
Q 1472 3097 1187 3025 
Q 903 2953 641 2809 
L 641 3341 
Q 956 3463 1253 3523 
Q 1550 3584 1831 3584 
Q 2591 3584 2966 3190 
Q 3341 2797 3341 1997 
z
" transform="scale(0.015625)"/>
       <path id="DejaVuSans-76" d="M 191 3500 
L 800 3500 
L 1894 563 
L 2988 3500 
L 3597 3500 
L 2284 0 
L 1503 0 
L 191 3500 
z
" transform="scale(0.015625)"/>
       <path id="DejaVuSans-65" d="M 3597 1894 
L 3597 1613 
L 953 1613 
Q 991 1019 1311 708 
Q 1631 397 2203 397 
Q 2534 397 2845 478 
Q 3156 559 3463 722 
L 3463 178 
Q 3153 47 2828 -22 
Q 2503 -91 2169 -91 
Q 1331 -91 842 396 
Q 353 884 353 1716 
Q 353 2575 817 3079 
Q 1281 3584 2069 3584 
Q 2775 3584 3186 3129 
Q 3597 2675 3597 1894 
z
M 3022 2063 
Q 3016 2534 2758 2815 
Q 2500 3097 2075 3097 
Q 1594 3097 1305 2825 
Q 1016 2553 972 2059 
L 3022 2063 
z
" transform="scale(0.015625)"/>
       <path id="DejaVuSans-72" d="M 2631 2963 
Q 2534 3019 2420 3045 
Q 2306 3072 2169 3072 
Q 1681 3072 1420 2755 
Q 1159 2438 1159 1844 
L 1159 0 
L 581 0 
L 581 3500 
L 1159 3500 
L 1159 2956 
Q 1341 3275 1631 3429 
Q 1922 3584 2338 3584 
Q 2397 3584 2469 3576 
Q 2541 3569 2628 3553 
L 2631 2963 
z
" transform="scale(0.015625)"/>
       <path id="DejaVuSans-67" d="M 2906 1791 
Q 2906 2416 2648 2759 
Q 2391 3103 1925 3103 
Q 1463 3103 1205 2759 
Q 947 2416 947 1791 
Q 947 1169 1205 825 
Q 1463 481 1925 481 
Q 2391 481 2648 825 
Q 2906 1169 2906 1791 
z
M 3481 434 
Q 3481 -459 3084 -895 
Q 2688 -1331 1869 -1331 
Q 1566 -1331 1297 -1286 
Q 1028 -1241 775 -1147 
L 775 -588 
Q 1028 -725 1275 -790 
Q 1522 -856 1778 -856 
Q 2344 -856 2625 -561 
Q 2906 -266 2906 331 
L 2906 616 
Q 2728 306 2450 153 
Q 2172 0 1784 0 
Q 1141 0 747 490 
Q 353 981 353 1791 
Q 353 2603 747 3093 
Q 1141 3584 1784 3584 
Q 2172 3584 2450 3431 
Q 2728 3278 2906 2969 
L 2906 3500 
L 3481 3500 
L 3481 434 
z
" transform="scale(0.015625)"/>
       <path id="DejaVuSans-20" transform="scale(0.015625)"/>
       <path id="DejaVuSans-62" d="M 3116 1747 
Q 3116 2381 2855 2742 
Q 2594 3103 2138 3103 
Q 1681 3103 1420 2742 
Q 1159 2381 1159 1747 
Q 1159 1113 1420 752 
Q 1681 391 2138 391 
Q 2594 391 2855 752 
Q 3116 1113 3116 1747 
z
M 1159 2969 
Q 1341 3281 1617 3432 
Q 1894 3584 2278 3584 
Q 2916 3584 3314 3078 
Q 3713 2572 3713 1747 
Q 3713 922 3314 415 
Q 2916 -91 2278 -91 
Q 1894 -91 1617 61 
Q 1341 213 1159 525 
L 1159 0 
L 581 0 
L 581 4863 
L 1159 4863 
L 1159 2969 
z
" transform="scale(0.015625)"/>
       <path id="DejaVuSans-73" d="M 2834 3397 
L 2834 2853 
Q 2591 2978 2328 3040 
Q 2066 3103 1784 3103 
Q 1356 3103 1142 2972 
Q 928 2841 928 2578 
Q 928 2378 1081 2264 
Q 1234 2150 1697 2047 
L 1894 2003 
Q 2506 1872 2764 1633 
Q 3022 1394 3022 966 
Q 3022 478 2636 193 
Q 2250 -91 1575 -91 
Q 1294 -91 989 -36 
Q 684 19 347 128 
L 347 722 
Q 666 556 975 473 
Q 1284 391 1588 391 
Q 1994 391 2212 530 
Q 2431 669 2431 922 
Q 2431 1156 2273 1281 
Q 2116 1406 1581 1522 
L 1381 1569 
Q 847 1681 609 1914 
Q 372 2147 372 2553 
Q 372 3047 722 3315 
Q 1072 3584 1716 3584 
Q 2034 3584 2315 3537 
Q 2597 3491 2834 3397 
z
" transform="scale(0.015625)"/>
       <path id="DejaVuSans-6f" d="M 1959 3097 
Q 1497 3097 1228 2736 
Q 959 2375 959 1747 
Q 959 1119 1226 758 
Q 1494 397 1959 397 
Q 2419 397 2687 759 
Q 2956 1122 2956 1747 
Q 2956 2369 2687 2733 
Q 2419 3097 1959 3097 
z
M 1959 3584 
Q 2709 3584 3137 3096 
Q 3566 2609 3566 1747 
Q 3566 888 3137 398 
Q 2709 -91 1959 -91 
Q 1206 -91 779 398 
Q 353 888 353 1747 
Q 353 2609 779 3096 
Q 1206 3584 1959 3584 
z
" transform="scale(0.015625)"/>
       <path id="DejaVuSans-6c" d="M 603 4863 
L 1178 4863 
L 1178 0 
L 603 0 
L 603 4863 
z
" transform="scale(0.015625)"/>
       <path id="DejaVuSans-75" d="M 544 1381 
L 544 3500 
L 1119 3500 
L 1119 1403 
Q 1119 906 1312 657 
Q 1506 409 1894 409 
Q 2359 409 2629 706 
Q 2900 1003 2900 1516 
L 2900 3500 
L 3475 3500 
L 3475 0 
L 2900 0 
L 2900 538 
Q 2691 219 2414 64 
Q 2138 -91 1772 -91 
Q 1169 -91 856 284 
Q 544 659 544 1381 
z
M 1991 3584 
L 1991 3584 
z
" transform="scale(0.015625)"/>
       <path id="DejaVuSans-74" d="M 1172 4494 
L 1172 3500 
L 2356 3500 
L 2356 3053 
L 1172 3053 
L 1172 1153 
Q 1172 725 1289 603 
Q 1406 481 1766 481 
L 2356 481 
L 2356 0 
L 1766 0 
Q 1100 0 847 248 
Q 594 497 594 1153 
L 594 3053 
L 172 3053 
L 172 3500 
L 594 3500 
L 594 4494 
L 1172 4494 
z
" transform="scale(0.015625)"/>
       <path id="DejaVuSans-69" d="M 603 3500 
L 1178 3500 
L 1178 0 
L 603 0 
L 603 3500 
z
M 603 4863 
L 1178 4863 
L 1178 4134 
L 603 4134 
L 603 4863 
z
" transform="scale(0.015625)"/>
       <path id="DejaVuSans-6e" d="M 3513 2113 
L 3513 0 
L 2938 0 
L 2938 2094 
Q 2938 2591 2744 2837 
Q 2550 3084 2163 3084 
Q 1697 3084 1428 2787 
Q 1159 2491 1159 1978 
L 1159 0 
L 581 0 
L 581 3500 
L 1159 3500 
L 1159 2956 
Q 1366 3272 1645 3428 
Q 1925 3584 2291 3584 
Q 2894 3584 3203 3211 
Q 3513 2838 3513 2113 
z
" transform="scale(0.015625)"/>
       <path id="DejaVuSans-6d" d="M 3328 2828 
Q 3544 3216 3844 3400 
Q 4144 3584 4550 3584 
Q 5097 3584 5394 3201 
Q 5691 2819 5691 2113 
L 5691 0 
L 5113 0 
L 5113 2094 
Q 5113 2597 4934 2840 
Q 4756 3084 4391 3084 
Q 3944 3084 3684 2787 
Q 3425 2491 3425 1978 
L 3425 0 
L 2847 0 
L 2847 2094 
Q 2847 2600 2669 2842 
Q 2491 3084 2119 3084 
Q 1678 3084 1418 2786 
Q 1159 2488 1159 1978 
L 1159 0 
L 581 0 
L 581 3500 
L 1159 3500 
L 1159 2956 
Q 1356 3278 1631 3431 
Q 1906 3584 2284 3584 
Q 2666 3584 2933 3390 
Q 3200 3197 3328 2828 
z
" transform="scale(0.015625)"/>
       <path id="DejaVuSans-66" d="M 2375 4863 
L 2375 4384 
L 1825 4384 
Q 1516 4384 1395 4259 
Q 1275 4134 1275 3809 
L 1275 3500 
L 2222 3500 
L 2222 3053 
L 1275 3053 
L 1275 0 
L 697 0 
L 697 3053 
L 147 3053 
L 147 3500 
L 697 3500 
L 697 3744 
Q 697 4328 969 4595 
Q 1241 4863 1831 4863 
L 2375 4863 
z
" transform="scale(0.015625)"/>
       <path id="DejaVuSans-2d" d="M 313 2009 
L 1997 2009 
L 1997 1497 
L 313 1497 
L 313 2009 
z
" transform="scale(0.015625)"/>
       <path id="DejaVuSans-5b" d="M 550 4863 
L 1875 4863 
L 1875 4416 
L 1125 4416 
L 1125 -397 
L 1875 -397 
L 1875 -844 
L 550 -844 
L 550 4863 
z
" transform="scale(0.015625)"/>
       <path id="DejaVuSans-5d" d="M 1947 4863 
L 1947 -844 
L 622 -844 
L 622 -397 
L 1369 -397 
L 1369 4416 
L 622 4416 
L 622 4863 
L 1947 4863 
z
" transform="scale(0.015625)"/>
      </defs>
      <use xlink:href="#DejaVuSans-61"/>
      <use xlink:href="#DejaVuSans-76" x="61.279297"/>
      <use xlink:href="#DejaVuSans-65" x="120.458984"/>
      <use xlink:href="#DejaVuSans-72" x="181.982422"/>
      <use xlink:href="#DejaVuSans-61" x="223.095703"/>
      <use xlink:href="#DejaVuSans-67" x="284.375"/>
      <use xlink:href="#DejaVuSans-65" x="347.851562"/>
      <use xlink:href="#DejaVuSans-20" x="409.375"/>
      <use xlink:href="#DejaVuSans-61" x="441.162109"/>
      <use xlink:href="#DejaVuSans-62" x="502.441406"/>
      <use xlink:href="#DejaVuSans-73" x="565.917969"/>
      <use xlink:href="#DejaVuSans-6f" x="618.017578"/>
      <use xlink:href="#DejaVuSans-6c" x="679.199219"/>
      <use xlink:href="#DejaVuSans-75" x="706.982422"/>
      <use xlink:href="#DejaVuSans-74" x="770.361328"/>
      <use xlink:href="#DejaVuSans-65" x="809.570312"/>
      <use xlink:href="#DejaVuSans-20" x="871.09375"/>
      <use xlink:href="#DejaVuSans-65" x="902.880859"/>
      <use xlink:href="#DejaVuSans-32" x="964.404297"/>
      <use xlink:href="#DejaVuSans-65" x="1028.027344"/>
      <use xlink:href="#DejaVuSans-20" x="1089.550781"/>
      <use xlink:href="#DejaVuSans-74" x="1121.337891"/>
      <use xlink:href="#DejaVuSans-65" x="1160.546875"/>
      <use xlink:href="#DejaVuSans-73" x="1222.070312"/>
      <use xlink:href="#DejaVuSans-74" x="1274.169922"/>
      <use xlink:href="#DejaVuSans-69" x="1313.378906"/>
      <use xlink:href="#DejaVuSans-6e" x="1341.162109"/>
      <use xlink:href="#DejaVuSans-67" x="1404.541016"/>
      <use xlink:href="#DejaVuSans-20" x="1468.017578"/>
      <use xlink:href="#DejaVuSans-74" x="1499.804688"/>
      <use xlink:href="#DejaVuSans-69" x="1539.013672"/>
      <use xlink:href="#DejaVuSans-6d" x="1566.796875"/>
      <use xlink:href="#DejaVuSans-65" x="1664.208984"/>
      <use xlink:href="#DejaVuSans-20" x="1725.732422"/>
      <use xlink:href="#DejaVuSans-6f" x="1757.519531"/>
      <use xlink:href="#DejaVuSans-66" x="1818.701172"/>
      <use xlink:href="#DejaVuSans-20" x="1853.90625"/>
      <use xlink:href="#DejaVuSans-72" x="1885.693359"/>
      <use xlink:href="#DejaVuSans-65" x="1924.556641"/>
      <use xlink:href="#DejaVuSans-74" x="1986.080078"/>
      <use xlink:href="#DejaVuSans-65" x="2025.289062"/>
      <use xlink:href="#DejaVuSans-73" x="2086.8125"/>
      <use xlink:href="#DejaVuSans-74" x="2138.912109"/>
      <use xlink:href="#DejaVuSans-2d" x="2178.121094"/>
      <use xlink:href="#DejaVuSans-61" x="2214.205078"/>
      <use xlink:href="#DejaVuSans-6c" x="2275.484375"/>
      <use xlink:href="#DejaVuSans-6c" x="2303.267578"/>
      <use xlink:href="#DejaVuSans-20" x="2331.050781"/>
      <use xlink:href="#DejaVuSans-5b" x="2362.837891"/>
      <use xlink:href="#DejaVuSans-73" x="2401.851562"/>
      <use xlink:href="#DejaVuSans-5d" x="2453.951172"/>
     </g>
    </g>
   </g>
   <g id="matplotlib.axis_2">
    <g id="ytick_1">
     <g id="line2d_33">
      <path d="M 121.17 988.467063 
L 1432.8 988.467063 
" clip-path="url(#pd8c34ffdcc)" style="fill: none; stroke: #cccccc; stroke-linecap: round"/>
     </g>
     <g id="text_9">
      <!-- 0 -->
      <g style="fill: #262626" transform="translate(87.67375 1001.004485) scale(0.33 -0.33)">
       <use xlink:href="#DejaVuSans-30"/>
      </g>
     </g>
    </g>
    <g id="ytick_2">
     <g id="line2d_34">
      <path d="M 121.17 862.365508 
L 1432.8 862.365508 
" clip-path="url(#pd8c34ffdcc)" style="fill: none; stroke: #cccccc; stroke-linecap: round"/>
     </g>
     <g id="text_10">
      <!-- 20 -->
      <g style="fill: #262626" transform="translate(66.6775 874.90293) scale(0.33 -0.33)">
       <use xlink:href="#DejaVuSans-32"/>
       <use xlink:href="#DejaVuSans-30" x="63.623047"/>
      </g>
     </g>
    </g>
    <g id="ytick_3">
     <g id="line2d_35">
      <path d="M 121.17 736.263953 
L 1432.8 736.263953 
" clip-path="url(#pd8c34ffdcc)" style="fill: none; stroke: #cccccc; stroke-linecap: round"/>
     </g>
     <g id="text_11">
      <!-- 40 -->
      <g style="fill: #262626" transform="translate(66.6775 748.801375) scale(0.33 -0.33)">
       <use xlink:href="#DejaVuSans-34"/>
       <use xlink:href="#DejaVuSans-30" x="63.623047"/>
      </g>
     </g>
    </g>
    <g id="ytick_4">
     <g id="line2d_36">
      <path d="M 121.17 610.162398 
L 1432.8 610.162398 
" clip-path="url(#pd8c34ffdcc)" style="fill: none; stroke: #cccccc; stroke-linecap: round"/>
     </g>
     <g id="text_12">
      <!-- 60 -->
      <g style="fill: #262626" transform="translate(66.6775 622.69982) scale(0.33 -0.33)">
       <use xlink:href="#DejaVuSans-36"/>
       <use xlink:href="#DejaVuSans-30" x="63.623047"/>
      </g>
     </g>
    </g>
    <g id="ytick_5">
     <g id="line2d_37">
      <path d="M 121.17 484.060843 
L 1432.8 484.060843 
" clip-path="url(#pd8c34ffdcc)" style="fill: none; stroke: #cccccc; stroke-linecap: round"/>
     </g>
     <g id="text_13">
      <!-- 80 -->
      <g style="fill: #262626" transform="translate(66.6775 496.598265) scale(0.33 -0.33)">
       <defs>
        <path id="DejaVuSans-38" d="M 2034 2216 
Q 1584 2216 1326 1975 
Q 1069 1734 1069 1313 
Q 1069 891 1326 650 
Q 1584 409 2034 409 
Q 2484 409 2743 651 
Q 3003 894 3003 1313 
Q 3003 1734 2745 1975 
Q 2488 2216 2034 2216 
z
M 1403 2484 
Q 997 2584 770 2862 
Q 544 3141 544 3541 
Q 544 4100 942 4425 
Q 1341 4750 2034 4750 
Q 2731 4750 3128 4425 
Q 3525 4100 3525 3541 
Q 3525 3141 3298 2862 
Q 3072 2584 2669 2484 
Q 3125 2378 3379 2068 
Q 3634 1759 3634 1313 
Q 3634 634 3220 271 
Q 2806 -91 2034 -91 
Q 1263 -91 848 271 
Q 434 634 434 1313 
Q 434 1759 690 2068 
Q 947 2378 1403 2484 
z
M 1172 3481 
Q 1172 3119 1398 2916 
Q 1625 2713 2034 2713 
Q 2441 2713 2670 2916 
Q 2900 3119 2900 3481 
Q 2900 3844 2670 4047 
Q 2441 4250 2034 4250 
Q 1625 4250 1398 4047 
Q 1172 3844 1172 3481 
z
" transform="scale(0.015625)"/>
       </defs>
       <use xlink:href="#DejaVuSans-38"/>
       <use xlink:href="#DejaVuSans-30" x="63.623047"/>
      </g>
     </g>
    </g>
    <g id="ytick_6">
     <g id="line2d_38">
      <path d="M 121.17 357.959288 
L 1432.8 357.959288 
" clip-path="url(#pd8c34ffdcc)" style="fill: none; stroke: #cccccc; stroke-linecap: round"/>
     </g>
     <g id="text_14">
      <!-- 100 -->
      <g style="fill: #262626" transform="translate(45.68125 370.49671) scale(0.33 -0.33)">
       <use xlink:href="#DejaVuSans-31"/>
       <use xlink:href="#DejaVuSans-30" x="63.623047"/>
       <use xlink:href="#DejaVuSans-30" x="127.246094"/>
      </g>
     </g>
    </g>
    <g id="ytick_7">
     <g id="line2d_39">
      <path d="M 121.17 231.857733 
L 1432.8 231.857733 
" clip-path="url(#pd8c34ffdcc)" style="fill: none; stroke: #cccccc; stroke-linecap: round"/>
     </g>
     <g id="text_15">
      <!-- 120 -->
      <g style="fill: #262626" transform="translate(45.68125 244.395155) scale(0.33 -0.33)">
       <use xlink:href="#DejaVuSans-31"/>
       <use xlink:href="#DejaVuSans-32" x="63.623047"/>
       <use xlink:href="#DejaVuSans-30" x="127.246094"/>
      </g>
     </g>
    </g>
    <g id="ytick_8">
     <g id="line2d_40">
      <path d="M 121.17 105.756178 
L 1432.8 105.756178 
" clip-path="url(#pd8c34ffdcc)" style="fill: none; stroke: #cccccc; stroke-linecap: round"/>
     </g>
     <g id="text_16">
      <!-- 140 -->
      <g style="fill: #262626" transform="translate(45.68125 118.2936) scale(0.33 -0.33)">
       <use xlink:href="#DejaVuSans-31"/>
       <use xlink:href="#DejaVuSans-34" x="63.623047"/>
       <use xlink:href="#DejaVuSans-30" x="127.246094"/>
      </g>
     </g>
    </g>
    <g id="ytick_9">
     <g id="line2d_41">
      <path d="M 121.17 956.941674 
L 1432.8 956.941674 
" clip-path="url(#pd8c34ffdcc)" style="fill: none; stroke: #cccccc; stroke-width: 0.5; stroke-linecap: round"/>
     </g>
    </g>
    <g id="ytick_10">
     <g id="line2d_42">
      <path d="M 121.17 925.416285 
L 1432.8 925.416285 
" clip-path="url(#pd8c34ffdcc)" style="fill: none; stroke: #cccccc; stroke-width: 0.5; stroke-linecap: round"/>
     </g>
    </g>
    <g id="ytick_11">
     <g id="line2d_43">
      <path d="M 121.17 893.890897 
L 1432.8 893.890897 
" clip-path="url(#pd8c34ffdcc)" style="fill: none; stroke: #cccccc; stroke-width: 0.5; stroke-linecap: round"/>
     </g>
    </g>
    <g id="ytick_12">
     <g id="line2d_44">
      <path d="M 121.17 830.840119 
L 1432.8 830.840119 
" clip-path="url(#pd8c34ffdcc)" style="fill: none; stroke: #cccccc; stroke-width: 0.5; stroke-linecap: round"/>
     </g>
    </g>
    <g id="ytick_13">
     <g id="line2d_45">
      <path d="M 121.17 799.31473 
L 1432.8 799.31473 
" clip-path="url(#pd8c34ffdcc)" style="fill: none; stroke: #cccccc; stroke-width: 0.5; stroke-linecap: round"/>
     </g>
    </g>
    <g id="ytick_14">
     <g id="line2d_46">
      <path d="M 121.17 767.789342 
L 1432.8 767.789342 
" clip-path="url(#pd8c34ffdcc)" style="fill: none; stroke: #cccccc; stroke-width: 0.5; stroke-linecap: round"/>
     </g>
    </g>
    <g id="ytick_15">
     <g id="line2d_47">
      <path d="M 121.17 704.738564 
L 1432.8 704.738564 
" clip-path="url(#pd8c34ffdcc)" style="fill: none; stroke: #cccccc; stroke-width: 0.5; stroke-linecap: round"/>
     </g>
    </g>
    <g id="ytick_16">
     <g id="line2d_48">
      <path d="M 121.17 673.213176 
L 1432.8 673.213176 
" clip-path="url(#pd8c34ffdcc)" style="fill: none; stroke: #cccccc; stroke-width: 0.5; stroke-linecap: round"/>
     </g>
    </g>
    <g id="ytick_17">
     <g id="line2d_49">
      <path d="M 121.17 641.687787 
L 1432.8 641.687787 
" clip-path="url(#pd8c34ffdcc)" style="fill: none; stroke: #cccccc; stroke-width: 0.5; stroke-linecap: round"/>
     </g>
    </g>
    <g id="ytick_18">
     <g id="line2d_50">
      <path d="M 121.17 578.637009 
L 1432.8 578.637009 
" clip-path="url(#pd8c34ffdcc)" style="fill: none; stroke: #cccccc; stroke-width: 0.5; stroke-linecap: round"/>
     </g>
    </g>
    <g id="ytick_19">
     <g id="line2d_51">
      <path d="M 121.17 547.111621 
L 1432.8 547.111621 
" clip-path="url(#pd8c34ffdcc)" style="fill: none; stroke: #cccccc; stroke-width: 0.5; stroke-linecap: round"/>
     </g>
    </g>
    <g id="ytick_20">
     <g id="line2d_52">
      <path d="M 121.17 515.586232 
L 1432.8 515.586232 
" clip-path="url(#pd8c34ffdcc)" style="fill: none; stroke: #cccccc; stroke-width: 0.5; stroke-linecap: round"/>
     </g>
    </g>
    <g id="ytick_21">
     <g id="line2d_53">
      <path d="M 121.17 452.535454 
L 1432.8 452.535454 
" clip-path="url(#pd8c34ffdcc)" style="fill: none; stroke: #cccccc; stroke-width: 0.5; stroke-linecap: round"/>
     </g>
    </g>
    <g id="ytick_22">
     <g id="line2d_54">
      <path d="M 121.17 421.010066 
L 1432.8 421.010066 
" clip-path="url(#pd8c34ffdcc)" style="fill: none; stroke: #cccccc; stroke-width: 0.5; stroke-linecap: round"/>
     </g>
    </g>
    <g id="ytick_23">
     <g id="line2d_55">
      <path d="M 121.17 389.484677 
L 1432.8 389.484677 
" clip-path="url(#pd8c34ffdcc)" style="fill: none; stroke: #cccccc; stroke-width: 0.5; stroke-linecap: round"/>
     </g>
    </g>
    <g id="ytick_24">
     <g id="line2d_56">
      <path d="M 121.17 326.433899 
L 1432.8 326.433899 
" clip-path="url(#pd8c34ffdcc)" style="fill: none; stroke: #cccccc; stroke-width: 0.5; stroke-linecap: round"/>
     </g>
    </g>
    <g id="ytick_25">
     <g id="line2d_57">
      <path d="M 121.17 294.908511 
L 1432.8 294.908511 
" clip-path="url(#pd8c34ffdcc)" style="fill: none; stroke: #cccccc; stroke-width: 0.5; stroke-linecap: round"/>
     </g>
    </g>
    <g id="ytick_26">
     <g id="line2d_58">
      <path d="M 121.17 263.383122 
L 1432.8 263.383122 
" clip-path="url(#pd8c34ffdcc)" style="fill: none; stroke: #cccccc; stroke-width: 0.5; stroke-linecap: round"/>
     </g>
    </g>
    <g id="ytick_27">
     <g id="line2d_59">
      <path d="M 121.17 200.332345 
L 1432.8 200.332345 
" clip-path="url(#pd8c34ffdcc)" style="fill: none; stroke: #cccccc; stroke-width: 0.5; stroke-linecap: round"/>
     </g>
    </g>
    <g id="ytick_28">
     <g id="line2d_60">
      <path d="M 121.17 168.806956 
L 1432.8 168.806956 
" clip-path="url(#pd8c34ffdcc)" style="fill: none; stroke: #cccccc; stroke-width: 0.5; stroke-linecap: round"/>
     </g>
    </g>
    <g id="ytick_29">
     <g id="line2d_61">
      <path d="M 121.17 137.281567 
L 1432.8 137.281567 
" clip-path="url(#pd8c34ffdcc)" style="fill: none; stroke: #cccccc; stroke-width: 0.5; stroke-linecap: round"/>
     </g>
    </g>
    <g id="ytick_30">
     <g id="line2d_62">
      <path d="M 121.17 74.23079 
L 1432.8 74.23079 
" clip-path="url(#pd8c34ffdcc)" style="fill: none; stroke: #cccccc; stroke-width: 0.5; stroke-linecap: round"/>
     </g>
    </g>
    <g id="ytick_31">
     <g id="line2d_63">
      <path d="M 121.17 42.705401 
L 1432.8 42.705401 
" clip-path="url(#pd8c34ffdcc)" style="fill: none; stroke: #cccccc; stroke-width: 0.5; stroke-linecap: round"/>
     </g>
    </g>
    <g id="ytick_32">
     <g id="line2d_64">
      <path d="M 121.17 11.180012 
L 1432.8 11.180012 
" clip-path="url(#pd8c34ffdcc)" style="fill: none; stroke: #cccccc; stroke-width: 0.5; stroke-linecap: round"/>
     </g>
    </g>
    <g id="text_17">
     <!-- average relative e2e testing time [%] -->
     <g style="fill: #262626" transform="translate(34.194375 836.273438) rotate(-90) scale(0.36 -0.36)">
      <defs>
       <path id="DejaVuSans-25" d="M 4653 2053 
Q 4381 2053 4226 1822 
Q 4072 1591 4072 1178 
Q 4072 772 4226 539 
Q 4381 306 4653 306 
Q 4919 306 5073 539 
Q 5228 772 5228 1178 
Q 5228 1588 5073 1820 
Q 4919 2053 4653 2053 
z
M 4653 2450 
Q 5147 2450 5437 2106 
Q 5728 1763 5728 1178 
Q 5728 594 5436 251 
Q 5144 -91 4653 -91 
Q 4153 -91 3862 251 
Q 3572 594 3572 1178 
Q 3572 1766 3864 2108 
Q 4156 2450 4653 2450 
z
M 1428 4353 
Q 1159 4353 1004 4120 
Q 850 3888 850 3481 
Q 850 3069 1003 2837 
Q 1156 2606 1428 2606 
Q 1700 2606 1854 2837 
Q 2009 3069 2009 3481 
Q 2009 3884 1853 4118 
Q 1697 4353 1428 4353 
z
M 4250 4750 
L 4750 4750 
L 1831 -91 
L 1331 -91 
L 4250 4750 
z
M 1428 4750 
Q 1922 4750 2215 4408 
Q 2509 4066 2509 3481 
Q 2509 2891 2217 2550 
Q 1925 2209 1428 2209 
Q 931 2209 642 2551 
Q 353 2894 353 3481 
Q 353 4063 643 4406 
Q 934 4750 1428 4750 
z
" transform="scale(0.015625)"/>
      </defs>
      <use xlink:href="#DejaVuSans-61"/>
      <use xlink:href="#DejaVuSans-76" x="61.279297"/>
      <use xlink:href="#DejaVuSans-65" x="120.458984"/>
      <use xlink:href="#DejaVuSans-72" x="181.982422"/>
      <use xlink:href="#DejaVuSans-61" x="223.095703"/>
      <use xlink:href="#DejaVuSans-67" x="284.375"/>
      <use xlink:href="#DejaVuSans-65" x="347.851562"/>
      <use xlink:href="#DejaVuSans-20" x="409.375"/>
      <use xlink:href="#DejaVuSans-72" x="441.162109"/>
      <use xlink:href="#DejaVuSans-65" x="480.025391"/>
      <use xlink:href="#DejaVuSans-6c" x="541.548828"/>
      <use xlink:href="#DejaVuSans-61" x="569.332031"/>
      <use xlink:href="#DejaVuSans-74" x="630.611328"/>
      <use xlink:href="#DejaVuSans-69" x="669.820312"/>
      <use xlink:href="#DejaVuSans-76" x="697.603516"/>
      <use xlink:href="#DejaVuSans-65" x="756.783203"/>
      <use xlink:href="#DejaVuSans-20" x="818.306641"/>
      <use xlink:href="#DejaVuSans-65" x="850.09375"/>
      <use xlink:href="#DejaVuSans-32" x="911.617188"/>
      <use xlink:href="#DejaVuSans-65" x="975.240234"/>
      <use xlink:href="#DejaVuSans-20" x="1036.763672"/>
      <use xlink:href="#DejaVuSans-74" x="1068.550781"/>
      <use xlink:href="#DejaVuSans-65" x="1107.759766"/>
      <use xlink:href="#DejaVuSans-73" x="1169.283203"/>
      <use xlink:href="#DejaVuSans-74" x="1221.382812"/>
      <use xlink:href="#DejaVuSans-69" x="1260.591797"/>
      <use xlink:href="#DejaVuSans-6e" x="1288.375"/>
      <use xlink:href="#DejaVuSans-67" x="1351.753906"/>
      <use xlink:href="#DejaVuSans-20" x="1415.230469"/>
      <use xlink:href="#DejaVuSans-74" x="1447.017578"/>
      <use xlink:href="#DejaVuSans-69" x="1486.226562"/>
      <use xlink:href="#DejaVuSans-6d" x="1514.009766"/>
      <use xlink:href="#DejaVuSans-65" x="1611.421875"/>
      <use xlink:href="#DejaVuSans-20" x="1672.945312"/>
      <use xlink:href="#DejaVuSans-5b" x="1704.732422"/>
      <use xlink:href="#DejaVuSans-25" x="1743.746094"/>
      <use xlink:href="#DejaVuSans-5d" x="1838.765625"/>
     </g>
    </g>
   </g>
   <g id="PathCollection_1">
    <defs>
     <path id="C0_0_eaaeedc238" d="M 0 4.5 
C 1.193414 4.5 2.338109 4.025852 3.181981 3.181981 
C 4.025852 2.338109 4.5 1.193414 4.5 -0 
C 4.5 -1.193414 4.025852 -2.338109 3.181981 -3.181981 
C 2.338109 -4.025852 1.193414 -4.5 0 -4.5 
C -1.193414 -4.5 -2.338109 -4.025852 -3.181981 -3.181981 
C -4.025852 -2.338109 -4.5 -1.193414 -4.5 0 
C -4.5 1.193414 -4.025852 2.338109 -3.181981 3.181981 
C -2.338109 4.025852 -1.193414 4.5 0 4.5 
z
"/>
    </defs>
    <g clip-path="url(#pd8c34ffdcc)">
     <use xlink:href="#C0_0_eaaeedc238" x="465.336443" y="704.738564" style="fill: #e37222; stroke: #000000"/>
    </g>
    <g clip-path="url(#pd8c34ffdcc)">
     <use xlink:href="#C0_0_eaaeedc238" x="1373.180455" y="647.992865" style="fill: #e37222; stroke: #000000"/>
    </g>
    <g clip-path="url(#pd8c34ffdcc)">
     <use xlink:href="#C0_0_eaaeedc238" x="237.169211" y="622.772554" style="fill: #e37222; stroke: #000000"/>
    </g>
    <g clip-path="url(#pd8c34ffdcc)">
     <use xlink:href="#C0_0_eaaeedc238" x="186.456256" y="477.755765" style="fill: #e37222; stroke: #000000"/>
    </g>
    <g clip-path="url(#pd8c34ffdcc)">
     <use xlink:href="#C0_0_eaaeedc238" x="236.984427" y="540.806543" style="fill: #e37222; stroke: #000000"/>
    </g>
    <g clip-path="url(#pd8c34ffdcc)">
     <use xlink:href="#C0_0_eaaeedc238" x="213.660574" y="515.586232" style="fill: #e37222; stroke: #000000"/>
    </g>
    <g clip-path="url(#pd8c34ffdcc)">
     <use xlink:href="#C0_0_eaaeedc238" x="504.798102" y="572.331932" style="fill: #e37222; stroke: #000000"/>
    </g>
    <g clip-path="url(#pd8c34ffdcc)">
     <use xlink:href="#C0_0_eaaeedc238" x="205.796986" y="427.315143" style="fill: #e37222; stroke: #000000"/>
    </g>
    <g clip-path="url(#pd8c34ffdcc)">
     <use xlink:href="#C0_0_eaaeedc238" x="478.271326" y="654.297942" style="fill: #e37222; stroke: #000000"/>
    </g>
    <g clip-path="url(#pd8c34ffdcc)">
     <use xlink:href="#C0_0_eaaeedc238" x="229.716254" y="679.518253" style="fill: #e37222; stroke: #000000"/>
    </g>
    <g clip-path="url(#pd8c34ffdcc)">
     <use xlink:href="#C0_0_eaaeedc238" x="312.622696" y="446.230377" style="fill: #e37222; stroke: #000000"/>
    </g>
    <g clip-path="url(#pd8c34ffdcc)">
     <use xlink:href="#C0_0_eaaeedc238" x="180.789545" y="250.772966" style="fill: #e37222; stroke: #000000"/>
    </g>
    <g clip-path="url(#pd8c34ffdcc)">
     <use xlink:href="#C0_0_eaaeedc238" x="465.336443" y="427.315143" style="fill: #a2ad00; stroke: #000000"/>
    </g>
    <g clip-path="url(#pd8c34ffdcc)">
     <use xlink:href="#C0_0_eaaeedc238" x="1373.180455" y="616.467476" style="fill: #a2ad00; stroke: #000000"/>
    </g>
    <g clip-path="url(#pd8c34ffdcc)">
     <use xlink:href="#C0_0_eaaeedc238" x="237.169211" y="584.942087" style="fill: #a2ad00; stroke: #000000"/>
    </g>
    <g clip-path="url(#pd8c34ffdcc)">
     <use xlink:href="#C0_0_eaaeedc238" x="186.456256" y="452.535454" style="fill: #a2ad00; stroke: #000000"/>
    </g>
    <g clip-path="url(#pd8c34ffdcc)">
     <use xlink:href="#C0_0_eaaeedc238" x="236.984427" y="572.331932" style="fill: #a2ad00; stroke: #000000"/>
    </g>
    <g clip-path="url(#pd8c34ffdcc)">
     <use xlink:href="#C0_0_eaaeedc238" x="213.660574" y="351.65421" style="fill: #a2ad00; stroke: #000000"/>
    </g>
    <g clip-path="url(#pd8c34ffdcc)">
     <use xlink:href="#C0_0_eaaeedc238" x="504.798102" y="389.484677" style="fill: #a2ad00; stroke: #000000"/>
    </g>
    <g clip-path="url(#pd8c34ffdcc)">
     <use xlink:href="#C0_0_eaaeedc238" x="205.796986" y="383.179599" style="fill: #a2ad00; stroke: #000000"/>
    </g>
    <g clip-path="url(#pd8c34ffdcc)">
     <use xlink:href="#C0_0_eaaeedc238" x="478.271326" y="370.569444" style="fill: #a2ad00; stroke: #000000"/>
    </g>
    <g clip-path="url(#pd8c34ffdcc)">
     <use xlink:href="#C0_0_eaaeedc238" x="229.716254" y="610.162398" style="fill: #a2ad00; stroke: #000000"/>
    </g>
    <g clip-path="url(#pd8c34ffdcc)">
     <use xlink:href="#C0_0_eaaeedc238" x="312.622696" y="452.535454" style="fill: #a2ad00; stroke: #000000"/>
    </g>
    <g clip-path="url(#pd8c34ffdcc)">
     <use xlink:href="#C0_0_eaaeedc238" x="180.789545" y="118.366334" style="fill: #a2ad00; stroke: #000000"/>
    </g>
   </g>
   <g id="PathCollection_2"/>
   <g id="PathCollection_3"/>
   <g id="PolyCollection_1">
    <defs>
     <path id="m64b4058aee" d="M 147.667576 -1020.002528 
L 147.667576 -564.564176 
L 160.916364 -536.101276 
L 174.165152 -522.073985 
L 187.413939 -512.139616 
L 200.662727 -504.134456 
L 213.911515 -497.81517 
L 227.160303 -491.613207 
L 240.409091 -484.614857 
L 253.657879 -480.346093 
L 266.906667 -473.98303 
L 280.155455 -467.670791 
L 293.404242 -459.287863 
L 306.65303 -450.29816 
L 319.901818 -440.952854 
L 333.150606 -434.681403 
L 346.399394 -426.139832 
L 359.648182 -416.020357 
L 372.89697 -406.677976 
L 386.145758 -399.186085 
L 399.394545 -390.793663 
L 412.643333 -382.460971 
L 425.892121 -374.525165 
L 439.140909 -366.681052 
L 452.389697 -359.704544 
L 465.638485 -352.760884 
L 478.887273 -346.09501 
L 492.136061 -340.348809 
L 505.384848 -335.210735 
L 518.633636 -330.256267 
L 531.882424 -325.472657 
L 545.131212 -320.848513 
L 558.38 -316.373546 
L 571.628788 -312.03843 
L 584.877576 -307.834689 
L 598.126364 -303.400709 
L 611.375152 -298.091917 
L 624.623939 -292.930598 
L 637.872727 -287.908779 
L 651.121515 -283.019116 
L 664.370303 -278.254833 
L 677.619091 -273.611768 
L 690.867879 -269.090608 
L 704.116667 -264.677097 
L 717.365455 -260.97249 
L 730.614242 -257.677382 
L 743.86303 -254.465979 
L 757.111818 -251.333025 
L 770.360606 -248.267357 
L 783.609394 -245.265557 
L 796.858182 -242.328295 
L 810.10697 -239.453651 
L 823.355758 -236.635372 
L 836.604545 -233.871291 
L 849.853333 -231.159362 
L 863.102121 -228.497654 
L 876.350909 -225.88434 
L 889.599697 -223.317693 
L 902.848485 -220.796074 
L 916.097273 -218.317931 
L 929.346061 -215.88179 
L 942.594848 -213.486251 
L 955.843636 -211.129982 
L 969.092424 -208.811718 
L 982.341212 -206.530251 
L 995.59 -204.284432 
L 1008.838788 -202.073164 
L 1022.087576 -199.895399 
L 1035.336364 -197.750138 
L 1048.585152 -195.523244 
L 1061.833939 -193.534845 
L 1075.082727 -191.338255 
L 1088.331515 -188.886049 
L 1101.580303 -186.467901 
L 1114.829091 -184.082878 
L 1128.077879 -181.730085 
L 1141.326667 -179.408661 
L 1154.575455 -177.117783 
L 1167.824242 -174.856655 
L 1181.07303 -172.624516 
L 1194.321818 -170.420632 
L 1207.570606 -168.244295 
L 1220.819394 -166.094827 
L 1234.068182 -163.971571 
L 1247.31697 -161.873896 
L 1260.565758 -159.801193 
L 1273.814545 -157.752875 
L 1287.063333 -155.732478 
L 1300.312121 -153.945072 
L 1313.560909 -152.153074 
L 1326.809697 -150.197698 
L 1340.058485 -148.264047 
L 1353.307273 -146.351645 
L 1366.556061 -144.46003 
L 1379.804848 -142.589538 
L 1393.053636 -140.739019 
L 1406.302424 -138.90798 
L 1419.551212 -137.096014 
L 1432.8 -135.302727 
L 1432.8 -448.654619 
L 1432.8 -448.654619 
L 1419.551212 -449.054927 
L 1406.302424 -449.57269 
L 1393.053636 -450.095902 
L 1379.804848 -450.62468 
L 1366.556061 -451.159144 
L 1353.307273 -451.697581 
L 1340.058485 -452.085681 
L 1326.809697 -452.36603 
L 1313.560909 -452.646289 
L 1300.312121 -452.927417 
L 1287.063333 -453.211777 
L 1273.814545 -453.502085 
L 1260.565758 -454.053719 
L 1247.31697 -454.611921 
L 1234.068182 -455.176847 
L 1220.819394 -455.705739 
L 1207.570606 -456.082635 
L 1194.321818 -456.464242 
L 1181.07303 -457.094735 
L 1167.824242 -457.95567 
L 1154.575455 -458.748282 
L 1141.326667 -459.470306 
L 1128.077879 -460.006312 
L 1114.829091 -460.650448 
L 1101.580303 -461.303407 
L 1088.331515 -461.965435 
L 1075.082727 -462.636788 
L 1061.833939 -463.309198 
L 1048.585152 -463.989275 
L 1035.336364 -464.675892 
L 1022.087576 -465.308425 
L 1008.838788 -465.653516 
L 995.59 -466.000487 
L 982.341212 -466.34559 
L 969.092424 -466.696171 
L 955.843636 -467.052407 
L 942.594848 -467.414482 
L 929.346061 -467.782592 
L 916.097273 -468.156942 
L 902.848485 -468.537745 
L 889.599697 -469.192336 
L 876.350909 -469.662641 
L 863.102121 -470.317592 
L 849.853333 -471.69495 
L 836.604545 -473.098295 
L 823.355758 -474.284711 
L 810.10697 -475.04061 
L 796.858182 -475.729966 
L 783.609394 -476.433389 
L 770.360606 -477.135354 
L 757.111818 -478.24281 
L 743.86303 -478.879838 
L 730.614242 -480.597832 
L 717.365455 -482.855769 
L 704.116667 -484.400724 
L 690.867879 -486.094637 
L 677.619091 -487.55573 
L 664.370303 -489.197906 
L 651.121515 -490.60975 
L 637.872727 -491.725219 
L 624.623939 -493.208939 
L 611.375152 -494.740343 
L 598.126364 -496.305351 
L 584.877576 -497.820437 
L 571.628788 -499.589109 
L 558.38 -501.314624 
L 545.131212 -503.9534 
L 531.882424 -505.420461 
L 518.633636 -507.467557 
L 505.384848 -509.676422 
L 492.136061 -512.538539 
L 478.887273 -515.188654 
L 465.638485 -518.598341 
L 452.389697 -521.824553 
L 439.140909 -525.170926 
L 425.892121 -528.360878 
L 412.643333 -532.081746 
L 399.394545 -535.392355 
L 386.145758 -539.138448 
L 372.89697 -543.764207 
L 359.648182 -548.684593 
L 346.399394 -553.512298 
L 333.150606 -559.832462 
L 319.901818 -566.924572 
L 306.65303 -574.523978 
L 293.404242 -583.542824 
L 280.155455 -592.496795 
L 266.906667 -601.659302 
L 253.657879 -612.630644 
L 240.409091 -625.858424 
L 227.160303 -642.74163 
L 213.911515 -661.07628 
L 200.662727 -686.957551 
L 187.413939 -721.142436 
L 174.165152 -768.092428 
L 160.916364 -844.10645 
L 147.667576 -1020.002528 
z
" style="stroke: #ffffff; stroke-opacity: 0.15; stroke-width: 1.5"/>
    </defs>
    <g clip-path="url(#pd8c34ffdcc)">
     <use xlink:href="#m64b4058aee" x="0" y="1080" style="fill: #e37222; fill-opacity: 0.15; stroke: #ffffff; stroke-opacity: 0.15; stroke-width: 1.5"/>
    </g>
   </g>
   <g id="PolyCollection_2">
    <defs>
     <path id="m3266774d8d" d="M 147.667576 -1028.157273 
L 147.667576 -437.311508 
L 160.916364 -500.094798 
L 174.165152 -528.56098 
L 187.413939 -539.596313 
L 200.662727 -553.169414 
L 213.911515 -557.977885 
L 227.160303 -562.402615 
L 240.409091 -564.164791 
L 253.657879 -566.483018 
L 266.906667 -563.003011 
L 280.155455 -560.42401 
L 293.404242 -558.273763 
L 306.65303 -553.777811 
L 319.901818 -547.715581 
L 333.150606 -544.701425 
L 346.399394 -541.489951 
L 359.648182 -537.534131 
L 372.89697 -534.048681 
L 386.145758 -530.222648 
L 399.394545 -525.500967 
L 412.643333 -522.641751 
L 425.892121 -518.740625 
L 439.140909 -515.61182 
L 452.389697 -513.29186 
L 465.638485 -511.068581 
L 478.887273 -508.455957 
L 492.136061 -506.29581 
L 505.384848 -503.75632 
L 518.633636 -500.105778 
L 531.882424 -496.581128 
L 545.131212 -493.196559 
L 558.38 -489.933244 
L 571.628788 -486.780722 
L 584.877576 -483.723736 
L 598.126364 -480.756666 
L 611.375152 -477.874373 
L 624.623939 -475.913696 
L 637.872727 -473.707439 
L 651.121515 -470.310917 
L 664.370303 -467.000624 
L 677.619091 -463.716872 
L 690.867879 -461.316137 
L 704.116667 -459.537946 
L 717.365455 -457.178516 
L 730.614242 -454.872709 
L 743.86303 -452.46354 
L 757.111818 -449.770219 
L 770.360606 -447.134204 
L 783.609394 -444.553105 
L 796.858182 -442.024683 
L 810.10697 -439.563879 
L 823.355758 -437.55928 
L 836.604545 -435.821835 
L 849.853333 -434.256403 
L 863.102121 -432.730118 
L 876.350909 -431.231584 
L 889.599697 -429.667282 
L 902.848485 -427.788701 
L 916.097273 -426.020939 
L 929.346061 -424.478913 
L 942.594848 -422.962587 
L 955.843636 -421.471119 
L 969.092424 -419.645429 
L 982.341212 -417.82472 
L 995.59 -416.03246 
L 1008.838788 -414.267773 
L 1022.087576 -412.529823 
L 1035.336364 -410.817813 
L 1048.585152 -409.130978 
L 1061.833939 -407.468591 
L 1075.082727 -405.880971 
L 1088.331515 -404.364243 
L 1101.580303 -402.870117 
L 1114.829091 -401.464355 
L 1128.077879 -400.263939 
L 1141.326667 -399.079529 
L 1154.575455 -397.910703 
L 1167.824242 -396.757056 
L 1181.07303 -395.618199 
L 1194.321818 -394.493758 
L 1207.570606 -393.188295 
L 1220.819394 -391.862473 
L 1234.068182 -390.552819 
L 1247.31697 -389.258944 
L 1260.565758 -387.980473 
L 1273.814545 -386.717041 
L 1287.063333 -385.468301 
L 1300.312121 -384.233913 
L 1313.560909 -383.013553 
L 1326.809697 -381.806904 
L 1340.058485 -380.613662 
L 1353.307273 -379.433533 
L 1366.556061 -378.266231 
L 1379.804848 -377.113362 
L 1393.053636 -375.974826 
L 1406.302424 -374.848275 
L 1419.551212 -373.733458 
L 1432.8 -372.630134 
L 1432.8 -744.980911 
L 1432.8 -744.980911 
L 1419.551212 -744.468486 
L 1406.302424 -743.950724 
L 1393.053636 -743.296816 
L 1379.804848 -742.608165 
L 1366.556061 -741.91211 
L 1353.307273 -741.208489 
L 1340.058485 -740.497136 
L 1326.809697 -739.77788 
L 1313.560909 -739.050542 
L 1300.312121 -738.314939 
L 1287.063333 -737.57088 
L 1273.814545 -736.818171 
L 1260.565758 -736.055501 
L 1247.31697 -735.279977 
L 1234.068182 -734.495109 
L 1220.819394 -733.70067 
L 1207.570606 -732.896423 
L 1194.321818 -732.082124 
L 1181.07303 -731.257516 
L 1167.824242 -730.422338 
L 1154.575455 -729.576312 
L 1141.326667 -728.719155 
L 1128.077879 -727.85057 
L 1114.829091 -726.970247 
L 1101.580303 -726.077865 
L 1088.331515 -725.173089 
L 1075.082727 -724.25557 
L 1061.833939 -723.324943 
L 1048.585152 -722.380829 
L 1035.336364 -721.422832 
L 1022.087576 -720.450536 
L 1008.838788 -719.463509 
L 995.59 -718.461297 
L 982.341212 -717.443425 
L 969.092424 -716.409397 
L 955.843636 -715.358691 
L 942.594848 -714.290761 
L 929.346061 -713.205032 
L 916.097273 -712.100901 
L 902.848485 -710.977733 
L 889.599697 -709.834861 
L 876.350909 -708.67158 
L 863.102121 -707.625262 
L 849.853333 -706.880021 
L 836.604545 -706.120719 
L 823.355758 -705.315901 
L 810.10697 -704.039521 
L 796.858182 -702.737612 
L 783.609394 -701.409135 
L 770.360606 -700.271995 
L 757.111818 -699.470354 
L 743.86303 -698.651285 
L 730.614242 -697.814014 
L 717.365455 -696.957715 
L 704.116667 -696.081501 
L 690.867879 -695.210078 
L 677.619091 -694.347346 
L 664.370303 -693.463044 
L 651.121515 -692.323882 
L 637.872727 -690.640237 
L 624.623939 -688.861241 
L 611.375152 -687.223338 
L 598.126364 -686.251502 
L 584.877576 -684.398681 
L 571.628788 -682.399754 
L 558.38 -681.099513 
L 545.131212 -679.443647 
L 531.882424 -677.883226 
L 518.633636 -676.053193 
L 505.384848 -674.233003 
L 492.136061 -672.943519 
L 478.887273 -671.598788 
L 465.638485 -669.90321 
L 452.389697 -668.70375 
L 439.140909 -667.588303 
L 425.892121 -667.693974 
L 412.643333 -666.482799 
L 399.394545 -666.730114 
L 386.145758 -668.304295 
L 372.89697 -670.526245 
L 359.648182 -673.582514 
L 346.399394 -677.353005 
L 333.150606 -681.691646 
L 319.901818 -688.056998 
L 306.65303 -693.711609 
L 293.404242 -700.200185 
L 280.155455 -707.220657 
L 266.906667 -715.184159 
L 253.657879 -724.317773 
L 240.409091 -735.932534 
L 227.160303 -749.541648 
L 213.911515 -766.603821 
L 200.662727 -786.373459 
L 187.413939 -812.750576 
L 174.165152 -848.195698 
L 160.916364 -905.916794 
L 147.667576 -1028.157273 
z
" style="stroke: #ffffff; stroke-opacity: 0.15; stroke-width: 1.5"/>
    </defs>
    <g clip-path="url(#pd8c34ffdcc)">
     <use xlink:href="#m3266774d8d" x="0" y="1080" style="fill: #a2ad00; fill-opacity: 0.15; stroke: #ffffff; stroke-opacity: 0.15; stroke-width: 1.5"/>
    </g>
   </g>
   <g id="line2d_65">
    <path d="M 147.667576 299.91669 
L 160.916364 387.928202 
L 174.165152 428.944572 
L 187.413939 455.977633 
L 200.662727 476.174697 
L 213.911515 492.304474 
L 227.160303 505.733674 
L 240.409091 517.238229 
L 253.657879 527.301287 
L 266.906667 536.244189 
L 280.155455 544.29152 
L 293.404242 551.606437 
L 306.65303 558.311207 
L 319.901818 564.499827 
L 333.150606 570.246116 
L 346.399394 575.60911 
L 359.648182 580.63676 
L 372.89697 585.368548 
L 386.145758 589.837368 
L 399.394545 594.070916 
L 412.643333 598.092731 
L 425.892121 601.922987 
L 439.140909 605.579105 
L 452.389697 609.076233 
L 465.638485 612.427624 
L 478.887273 615.644941 
L 492.136061 618.7385 
L 505.384848 621.71747 
L 518.633636 624.590037 
L 531.882424 627.363542 
L 545.131212 630.04459 
L 558.38 632.639146 
L 571.628788 635.152617 
L 584.877576 637.589918 
L 598.126364 639.95553 
L 611.375152 642.25355 
L 624.623939 644.487734 
L 637.872727 646.661533 
L 651.121515 648.778125 
L 664.370303 650.840443 
L 677.619091 652.851203 
L 690.867879 654.812918 
L 704.116667 656.727926 
L 717.365455 658.598397 
L 730.614242 660.426358 
L 743.86303 662.213696 
L 757.111818 663.96218 
L 770.360606 665.673461 
L 783.609394 667.34909 
L 796.858182 668.990523 
L 810.10697 670.599127 
L 823.355758 672.17619 
L 836.604545 673.722924 
L 849.853333 675.240475 
L 863.102121 676.729924 
L 876.350909 678.192291 
L 889.599697 679.628546 
L 902.848485 681.039602 
L 916.097273 682.426331 
L 929.346061 683.789555 
L 942.594848 685.13006 
L 955.843636 686.448589 
L 969.092424 687.745852 
L 982.341212 689.022523 
L 995.59 690.279247 
L 1008.838788 691.516637 
L 1022.087576 692.735279 
L 1035.336364 693.935732 
L 1048.585152 695.118531 
L 1061.833939 696.284189 
L 1075.082727 697.433195 
L 1088.331515 698.566018 
L 1101.580303 699.683107 
L 1114.829091 700.784894 
L 1128.077879 701.871793 
L 1141.326667 702.944199 
L 1154.575455 704.002495 
L 1167.824242 705.047047 
L 1181.07303 706.078208 
L 1194.321818 707.096316 
L 1207.570606 708.101698 
L 1220.819394 709.094668 
L 1234.068182 710.075529 
L 1247.31697 711.044573 
L 1260.565758 712.00208 
L 1273.814545 712.948323 
L 1287.063333 713.883563 
L 1300.312121 714.808053 
L 1313.560909 715.722039 
L 1326.809697 716.625754 
L 1340.058485 717.519429 
L 1353.307273 718.403283 
L 1366.556061 719.27753 
L 1379.804848 720.142377 
L 1393.053636 720.998023 
L 1406.302424 721.844663 
L 1419.551212 722.682484 
L 1432.8 723.511668 
" clip-path="url(#pd8c34ffdcc)" style="fill: none; stroke: #e37222; stroke-width: 3.375; stroke-linecap: round"/>
   </g>
   <g id="line2d_66">
    <path d="M 147.667576 291.71277 
L 160.916364 346.44441 
L 174.165152 371.951224 
L 187.413939 388.76225 
L 200.662727 401.32218 
L 213.911515 411.35279 
L 227.160303 419.703995 
L 240.409091 426.858322 
L 253.657879 433.116227 
L 266.906667 438.677541 
L 280.155455 443.681929 
L 293.404242 448.230849 
L 306.65303 452.400339 
L 319.901818 456.24885 
L 333.150606 459.82229 
L 346.399394 463.15737 
L 359.648182 466.283911 
L 372.89697 469.226463 
L 386.145758 472.005484 
L 399.394545 474.638197 
L 412.643333 477.139239 
L 425.892121 479.521157 
L 439.140909 481.794784 
L 452.389697 483.96954 
L 465.638485 486.053667 
L 478.887273 488.054417 
L 492.136061 489.978206 
L 505.384848 491.830735 
L 518.633636 493.617096 
L 531.882424 495.341853 
L 545.131212 497.009114 
L 558.38 498.622588 
L 571.628788 500.185638 
L 584.877576 501.70132 
L 598.126364 503.172421 
L 611.375152 504.601489 
L 624.623939 505.990859 
L 637.872727 507.342678 
L 651.121515 508.658921 
L 664.370303 509.941413 
L 677.619091 511.191842 
L 690.867879 512.411772 
L 704.116667 513.602656 
L 717.365455 514.765845 
L 730.614242 515.902597 
L 743.86303 517.014088 
L 757.111818 518.101415 
L 770.360606 519.165608 
L 783.609394 520.20763 
L 796.858182 521.228387 
L 810.10697 522.228728 
L 823.355758 523.209454 
L 836.604545 524.171321 
L 849.853333 525.115039 
L 863.102121 526.041281 
L 876.350909 526.950682 
L 889.599697 527.843844 
L 902.848485 528.721337 
L 916.097273 529.583701 
L 929.346061 530.431448 
L 942.594848 531.265066 
L 955.843636 532.085019 
L 969.092424 532.891746 
L 982.341212 533.685669 
L 995.59 534.467187 
L 1008.838788 535.236681 
L 1022.087576 535.994517 
L 1035.336364 536.741042 
L 1048.585152 537.476588 
L 1061.833939 538.201475 
L 1075.082727 538.916006 
L 1088.331515 539.620474 
L 1101.580303 540.315157 
L 1114.829091 541.000324 
L 1128.077879 541.676233 
L 1141.326667 542.343129 
L 1154.575455 543.001251 
L 1167.824242 543.650826 
L 1181.07303 544.292073 
L 1194.321818 544.925203 
L 1207.570606 545.550419 
L 1220.819394 546.167916 
L 1234.068182 546.777883 
L 1247.31697 547.380501 
L 1260.565758 547.975946 
L 1273.814545 548.564385 
L 1287.063333 549.145982 
L 1300.312121 549.720894 
L 1313.560909 550.289273 
L 1326.809697 550.851266 
L 1340.058485 551.407014 
L 1353.307273 551.956656 
L 1366.556061 552.500323 
L 1379.804848 553.038145 
L 1393.053636 553.570245 
L 1406.302424 554.096744 
L 1419.551212 554.617759 
L 1432.8 555.133403 
" clip-path="url(#pd8c34ffdcc)" style="fill: none; stroke: #a2ad00; stroke-width: 3.375; stroke-linecap: round"/>
   </g>
   <g id="patch_3">
    <path d="M 121.17 989.34 
L 121.17 7.2 
" style="fill: none; stroke: #cccccc; stroke-width: 1.875; stroke-linejoin: miter; stroke-linecap: square"/>
   </g>
   <g id="patch_4">
    <path d="M 1432.8 989.34 
L 1432.8 7.2 
" style="fill: none; stroke: #cccccc; stroke-width: 1.875; stroke-linejoin: miter; stroke-linecap: square"/>
   </g>
   <g id="patch_5">
    <path d="M 121.17 989.34 
L 1432.8 989.34 
" style="fill: none; stroke: #cccccc; stroke-width: 1.875; stroke-linejoin: miter; stroke-linecap: square"/>
   </g>
   <g id="patch_6">
    <path d="M 121.17 7.2 
L 1432.8 7.2 
" style="fill: none; stroke: #cccccc; stroke-width: 1.875; stroke-linejoin: miter; stroke-linecap: square"/>
   </g>
   <g id="legend_1">
    <g id="patch_7">
     <path d="M 701.184844 227.35125 
L 1409.7 227.35125 
Q 1416.3 227.35125 1416.3 220.75125 
L 1416.3 30.3 
Q 1416.3 23.7 1409.7 23.7 
L 701.184844 23.7 
Q 694.584844 23.7 694.584844 30.3 
L 694.584844 220.75125 
Q 694.584844 227.35125 701.184844 227.35125 
z
" style="fill: #ffffff; opacity: 0.8; stroke: #cccccc; stroke-width: 1.5; stroke-linejoin: miter"/>
    </g>
    <g id="PathCollection_4">
     <defs>
      <path id="m97c1ef39e0" d="M 0 4.5 
C 1.193414 4.5 2.338109 4.025852 3.181981 3.181981 
C 4.025852 2.338109 4.5 1.193414 4.5 0 
C 4.5 -1.193414 4.025852 -2.338109 3.181981 -3.181981 
C 2.338109 -4.025852 1.193414 -4.5 0 -4.5 
C -1.193414 -4.5 -2.338109 -4.025852 -3.181981 -3.181981 
C -4.025852 -2.338109 -4.5 -1.193414 -4.5 0 
C -4.5 1.193414 -4.025852 2.338109 -3.181981 3.181981 
C -2.338109 4.025852 -1.193414 4.5 0 4.5 
z
" style="stroke: #e37222; stroke-width: 1.5"/>
     </defs>
     <g>
      <use xlink:href="#m97c1ef39e0" x="740.784844" y="53.312344" style="fill: #e37222; stroke: #e37222; stroke-width: 1.5"/>
     </g>
    </g>
    <g id="text_18">
     <!-- dynamic -->
     <g style="fill: #262626" transform="translate(800.184844 61.974844) scale(0.33 -0.33)">
      <defs>
       <path id="DejaVuSans-64" d="M 2906 2969 
L 2906 4863 
L 3481 4863 
L 3481 0 
L 2906 0 
L 2906 525 
Q 2725 213 2448 61 
Q 2172 -91 1784 -91 
Q 1150 -91 751 415 
Q 353 922 353 1747 
Q 353 2572 751 3078 
Q 1150 3584 1784 3584 
Q 2172 3584 2448 3432 
Q 2725 3281 2906 2969 
z
M 947 1747 
Q 947 1113 1208 752 
Q 1469 391 1925 391 
Q 2381 391 2643 752 
Q 2906 1113 2906 1747 
Q 2906 2381 2643 2742 
Q 2381 3103 1925 3103 
Q 1469 3103 1208 2742 
Q 947 2381 947 1747 
z
" transform="scale(0.015625)"/>
       <path id="DejaVuSans-79" d="M 2059 -325 
Q 1816 -950 1584 -1140 
Q 1353 -1331 966 -1331 
L 506 -1331 
L 506 -850 
L 844 -850 
Q 1081 -850 1212 -737 
Q 1344 -625 1503 -206 
L 1606 56 
L 191 3500 
L 800 3500 
L 1894 763 
L 2988 3500 
L 3597 3500 
L 2059 -325 
z
" transform="scale(0.015625)"/>
       <path id="DejaVuSans-63" d="M 3122 3366 
L 3122 2828 
Q 2878 2963 2633 3030 
Q 2388 3097 2138 3097 
Q 1578 3097 1268 2742 
Q 959 2388 959 1747 
Q 959 1106 1268 751 
Q 1578 397 2138 397 
Q 2388 397 2633 464 
Q 2878 531 3122 666 
L 3122 134 
Q 2881 22 2623 -34 
Q 2366 -91 2075 -91 
Q 1284 -91 818 406 
Q 353 903 353 1747 
Q 353 2603 823 3093 
Q 1294 3584 2113 3584 
Q 2378 3584 2631 3529 
Q 2884 3475 3122 3366 
z
" transform="scale(0.015625)"/>
      </defs>
      <use xlink:href="#DejaVuSans-64"/>
      <use xlink:href="#DejaVuSans-79" x="63.476562"/>
      <use xlink:href="#DejaVuSans-6e" x="122.65625"/>
      <use xlink:href="#DejaVuSans-61" x="186.035156"/>
      <use xlink:href="#DejaVuSans-6d" x="247.314453"/>
      <use xlink:href="#DejaVuSans-69" x="344.726562"/>
      <use xlink:href="#DejaVuSans-63" x="372.509766"/>
     </g>
    </g>
    <g id="PathCollection_5">
     <defs>
      <path id="m6deb443620" d="M 0 4.5 
C 1.193414 4.5 2.338109 4.025852 3.181981 3.181981 
C 4.025852 2.338109 4.5 1.193414 4.5 0 
C 4.5 -1.193414 4.025852 -2.338109 3.181981 -3.181981 
C 2.338109 -4.025852 1.193414 -4.5 0 -4.5 
C -1.193414 -4.5 -2.338109 -4.025852 -3.181981 -3.181981 
C -4.025852 -2.338109 -4.5 -1.193414 -4.5 0 
C -4.5 1.193414 -4.025852 2.338109 -3.181981 3.181981 
C -2.338109 4.025852 -1.193414 4.5 0 4.5 
z
" style="stroke: #a2ad00; stroke-width: 1.5"/>
     </defs>
     <g>
      <use xlink:href="#m6deb443620" x="740.784844" y="101.750156" style="fill: #a2ad00; stroke: #a2ad00; stroke-width: 1.5"/>
     </g>
    </g>
    <g id="text_19">
     <!-- static -->
     <g style="fill: #262626" transform="translate(800.184844 110.412656) scale(0.33 -0.33)">
      <use xlink:href="#DejaVuSans-73"/>
      <use xlink:href="#DejaVuSans-74" x="52.099609"/>
      <use xlink:href="#DejaVuSans-61" x="91.308594"/>
      <use xlink:href="#DejaVuSans-74" x="152.587891"/>
      <use xlink:href="#DejaVuSans-69" x="191.796875"/>
      <use xlink:href="#DejaVuSans-63" x="219.580078"/>
     </g>
    </g>
    <g id="line2d_67">
     <path d="M 707.784844 147.300469 
L 740.784844 147.300469 
L 773.784844 147.300469 
" style="fill: none; stroke: #e37222; stroke-width: 3.375; stroke-linecap: round"/>
    </g>
    <g id="text_20">
     <!-- dynamic - linear regression x~log(y) -->
     <g style="fill: #262626" transform="translate(800.184844 158.850469) scale(0.33 -0.33)">
      <defs>
       <path id="DejaVuSans-78" d="M 3513 3500 
L 2247 1797 
L 3578 0 
L 2900 0 
L 1881 1375 
L 863 0 
L 184 0 
L 1544 1831 
L 300 3500 
L 978 3500 
L 1906 2253 
L 2834 3500 
L 3513 3500 
z
" transform="scale(0.015625)"/>
       <path id="DejaVuSans-7e" d="M 4684 2553 
L 4684 1997 
Q 4356 1750 4076 1644 
Q 3797 1538 3494 1538 
Q 3150 1538 2694 1722 
Q 2659 1734 2644 1741 
Q 2622 1750 2575 1766 
Q 2091 1959 1797 1959 
Q 1522 1959 1253 1839 
Q 984 1719 678 1459 
L 678 2016 
Q 1006 2263 1286 2370 
Q 1566 2478 1869 2478 
Q 2213 2478 2672 2291 
Q 2703 2278 2719 2272 
Q 2744 2263 2788 2247 
Q 3272 2053 3566 2053 
Q 3834 2053 4098 2172 
Q 4363 2291 4684 2553 
z
" transform="scale(0.015625)"/>
       <path id="DejaVuSans-28" d="M 1984 4856 
Q 1566 4138 1362 3434 
Q 1159 2731 1159 2009 
Q 1159 1288 1364 580 
Q 1569 -128 1984 -844 
L 1484 -844 
Q 1016 -109 783 600 
Q 550 1309 550 2009 
Q 550 2706 781 3412 
Q 1013 4119 1484 4856 
L 1984 4856 
z
" transform="scale(0.015625)"/>
       <path id="DejaVuSans-29" d="M 513 4856 
L 1013 4856 
Q 1481 4119 1714 3412 
Q 1947 2706 1947 2009 
Q 1947 1309 1714 600 
Q 1481 -109 1013 -844 
L 513 -844 
Q 928 -128 1133 580 
Q 1338 1288 1338 2009 
Q 1338 2731 1133 3434 
Q 928 4138 513 4856 
z
" transform="scale(0.015625)"/>
      </defs>
      <use xlink:href="#DejaVuSans-64"/>
      <use xlink:href="#DejaVuSans-79" x="63.476562"/>
      <use xlink:href="#DejaVuSans-6e" x="122.65625"/>
      <use xlink:href="#DejaVuSans-61" x="186.035156"/>
      <use xlink:href="#DejaVuSans-6d" x="247.314453"/>
      <use xlink:href="#DejaVuSans-69" x="344.726562"/>
      <use xlink:href="#DejaVuSans-63" x="372.509766"/>
      <use xlink:href="#DejaVuSans-20" x="427.490234"/>
      <use xlink:href="#DejaVuSans-2d" x="459.277344"/>
      <use xlink:href="#DejaVuSans-20" x="495.361328"/>
      <use xlink:href="#DejaVuSans-6c" x="527.148438"/>
      <use xlink:href="#DejaVuSans-69" x="554.931641"/>
      <use xlink:href="#DejaVuSans-6e" x="582.714844"/>
      <use xlink:href="#DejaVuSans-65" x="646.09375"/>
      <use xlink:href="#DejaVuSans-61" x="707.617188"/>
      <use xlink:href="#DejaVuSans-72" x="768.896484"/>
      <use xlink:href="#DejaVuSans-20" x="810.009766"/>
      <use xlink:href="#DejaVuSans-72" x="841.796875"/>
      <use xlink:href="#DejaVuSans-65" x="880.660156"/>
      <use xlink:href="#DejaVuSans-67" x="942.183594"/>
      <use xlink:href="#DejaVuSans-72" x="1005.660156"/>
      <use xlink:href="#DejaVuSans-65" x="1044.523438"/>
      <use xlink:href="#DejaVuSans-73" x="1106.046875"/>
      <use xlink:href="#DejaVuSans-73" x="1158.146484"/>
      <use xlink:href="#DejaVuSans-69" x="1210.246094"/>
      <use xlink:href="#DejaVuSans-6f" x="1238.029297"/>
      <use xlink:href="#DejaVuSans-6e" x="1299.210938"/>
      <use xlink:href="#DejaVuSans-20" x="1362.589844"/>
      <use xlink:href="#DejaVuSans-78" x="1394.376953"/>
      <use xlink:href="#DejaVuSans-7e" x="1453.556641"/>
      <use xlink:href="#DejaVuSans-6c" x="1537.345703"/>
      <use xlink:href="#DejaVuSans-6f" x="1565.128906"/>
      <use xlink:href="#DejaVuSans-67" x="1626.310547"/>
      <use xlink:href="#DejaVuSans-28" x="1689.787109"/>
      <use xlink:href="#DejaVuSans-79" x="1728.800781"/>
      <use xlink:href="#DejaVuSans-29" x="1787.980469"/>
     </g>
    </g>
    <g id="line2d_68">
     <path d="M 707.784844 195.738281 
L 740.784844 195.738281 
L 773.784844 195.738281 
" style="fill: none; stroke: #a2ad00; stroke-width: 3.375; stroke-linecap: round"/>
    </g>
    <g id="text_21">
     <!-- static - linear regression x~log(y) -->
     <g style="fill: #262626" transform="translate(800.184844 207.288281) scale(0.33 -0.33)">
      <use xlink:href="#DejaVuSans-73"/>
      <use xlink:href="#DejaVuSans-74" x="52.099609"/>
      <use xlink:href="#DejaVuSans-61" x="91.308594"/>
      <use xlink:href="#DejaVuSans-74" x="152.587891"/>
      <use xlink:href="#DejaVuSans-69" x="191.796875"/>
      <use xlink:href="#DejaVuSans-63" x="219.580078"/>
      <use xlink:href="#DejaVuSans-20" x="274.560547"/>
      <use xlink:href="#DejaVuSans-2d" x="306.347656"/>
      <use xlink:href="#DejaVuSans-20" x="342.431641"/>
      <use xlink:href="#DejaVuSans-6c" x="374.21875"/>
      <use xlink:href="#DejaVuSans-69" x="402.001953"/>
      <use xlink:href="#DejaVuSans-6e" x="429.785156"/>
      <use xlink:href="#DejaVuSans-65" x="493.164062"/>
      <use xlink:href="#DejaVuSans-61" x="554.6875"/>
      <use xlink:href="#DejaVuSans-72" x="615.966797"/>
      <use xlink:href="#DejaVuSans-20" x="657.080078"/>
      <use xlink:href="#DejaVuSans-72" x="688.867188"/>
      <use xlink:href="#DejaVuSans-65" x="727.730469"/>
      <use xlink:href="#DejaVuSans-67" x="789.253906"/>
      <use xlink:href="#DejaVuSans-72" x="852.730469"/>
      <use xlink:href="#DejaVuSans-65" x="891.59375"/>
      <use xlink:href="#DejaVuSans-73" x="953.117188"/>
      <use xlink:href="#DejaVuSans-73" x="1005.216797"/>
      <use xlink:href="#DejaVuSans-69" x="1057.316406"/>
      <use xlink:href="#DejaVuSans-6f" x="1085.099609"/>
      <use xlink:href="#DejaVuSans-6e" x="1146.28125"/>
      <use xlink:href="#DejaVuSans-20" x="1209.660156"/>
      <use xlink:href="#DejaVuSans-78" x="1241.447266"/>
      <use xlink:href="#DejaVuSans-7e" x="1300.626953"/>
      <use xlink:href="#DejaVuSans-6c" x="1384.416016"/>
      <use xlink:href="#DejaVuSans-6f" x="1412.199219"/>
      <use xlink:href="#DejaVuSans-67" x="1473.380859"/>
      <use xlink:href="#DejaVuSans-28" x="1536.857422"/>
      <use xlink:href="#DejaVuSans-79" x="1575.871094"/>
      <use xlink:href="#DejaVuSans-29" x="1635.050781"/>
     </g>
    </g>
   </g>
  </g>
 </g>
 <defs>
  <clipPath id="pd8c34ffdcc">
   <rect x="121.17" y="7.2" width="1311.63" height="982.14"/>
  </clipPath>
 </defs>
</svg>
