<?xml version="1.0" encoding="utf-8" standalone="no"?>
<!DOCTYPE svg PUBLIC "-//W3C//DTD SVG 1.1//EN"
  "http://www.w3.org/Graphics/SVG/1.1/DTD/svg11.dtd">
<svg xmlns:xlink="http://www.w3.org/1999/xlink" width="1440pt" height="1080pt" viewBox="0 0 1440 1080" xmlns="http://www.w3.org/2000/svg" version="1.1">
 <metadata>
  <rdf:RDF xmlns:dc="http://purl.org/dc/elements/1.1/" xmlns:cc="http://creativecommons.org/ns#" xmlns:rdf="http://www.w3.org/1999/02/22-rdf-syntax-ns#">
   <cc:Work>
    <dc:type rdf:resource="http://purl.org/dc/dcmitype/StillImage"/>
    <dc:date>2023-08-28T18:15:40.223143</dc:date>
    <dc:format>image/svg+xml</dc:format>
    <dc:creator>
     <cc:Agent>
      <dc:title>Matplotlib v3.7.1, https://matplotlib.org/</dc:title>
     </cc:Agent>
    </dc:creator>
   </cc:Work>
  </rdf:RDF>
 </metadata>
 <defs>
  <style type="text/css">*{stroke-linejoin: round; stroke-linecap: butt}</style>
 </defs>
 <g id="figure_1">
  <g id="patch_1">
   <path d="M 0 1080 
L 1440 1080 
L 1440 0 
L 0 0 
z
" style="fill: #ffffff"/>
  </g>
  <g id="axes_1">
   <g id="patch_2">
    <path d="M 121.17 989.34 
L 1432.8 989.34 
L 1432.8 7.2 
L 121.17 7.2 
z
" style="fill: #ffffff"/>
   </g>
   <g id="matplotlib.axis_1">
    <g id="xtick_1">
     <g id="line2d_1">
      <path d="M 140.999381 989.34 
L 140.999381 7.2 
" clip-path="url(#pc990e66b5a)" style="fill: none; stroke: #cccccc; stroke-linecap: round"/>
     </g>
     <g id="text_1">
      <!-- 0 -->
      <g style="fill: #262626" transform="translate(130.501256 1026.914844) scale(0.33 -0.33)">
       <defs>
        <path id="DejaVuSans-30" d="M 2034 4250 
Q 1547 4250 1301 3770 
Q 1056 3291 1056 2328 
Q 1056 1369 1301 889 
Q 1547 409 2034 409 
Q 2525 409 2770 889 
Q 3016 1369 3016 2328 
Q 3016 3291 2770 3770 
Q 2525 4250 2034 4250 
z
M 2034 4750 
Q 2819 4750 3233 4129 
Q 3647 3509 3647 2328 
Q 3647 1150 3233 529 
Q 2819 -91 2034 -91 
Q 1250 -91 836 529 
Q 422 1150 422 2328 
Q 422 3509 836 4129 
Q 1250 4750 2034 4750 
z
" transform="scale(0.015625)"/>
       </defs>
       <use xlink:href="#DejaVuSans-30"/>
      </g>
     </g>
    </g>
    <g id="xtick_2">
     <g id="line2d_2">
      <path d="M 346.314986 989.34 
L 346.314986 7.2 
" clip-path="url(#pc990e66b5a)" style="fill: none; stroke: #cccccc; stroke-linecap: round"/>
     </g>
     <g id="text_2">
      <!-- 100 -->
      <g style="fill: #262626" transform="translate(314.820611 1026.914844) scale(0.33 -0.33)">
       <defs>
        <path id="DejaVuSans-31" d="M 794 531 
L 1825 531 
L 1825 4091 
L 703 3866 
L 703 4441 
L 1819 4666 
L 2450 4666 
L 2450 531 
L 3481 531 
L 3481 0 
L 794 0 
L 794 531 
z
" transform="scale(0.015625)"/>
       </defs>
       <use xlink:href="#DejaVuSans-31"/>
       <use xlink:href="#DejaVuSans-30" x="63.623047"/>
       <use xlink:href="#DejaVuSans-30" x="127.246094"/>
      </g>
     </g>
    </g>
    <g id="xtick_3">
     <g id="line2d_3">
      <path d="M 551.630592 989.34 
L 551.630592 7.2 
" clip-path="url(#pc990e66b5a)" style="fill: none; stroke: #cccccc; stroke-linecap: round"/>
     </g>
     <g id="text_3">
      <!-- 200 -->
      <g style="fill: #262626" transform="translate(520.136217 1026.914844) scale(0.33 -0.33)">
       <defs>
        <path id="DejaVuSans-32" d="M 1228 531 
L 3431 531 
L 3431 0 
L 469 0 
L 469 531 
Q 828 903 1448 1529 
Q 2069 2156 2228 2338 
Q 2531 2678 2651 2914 
Q 2772 3150 2772 3378 
Q 2772 3750 2511 3984 
Q 2250 4219 1831 4219 
Q 1534 4219 1204 4116 
Q 875 4013 500 3803 
L 500 4441 
Q 881 4594 1212 4672 
Q 1544 4750 1819 4750 
Q 2544 4750 2975 4387 
Q 3406 4025 3406 3419 
Q 3406 3131 3298 2873 
Q 3191 2616 2906 2266 
Q 2828 2175 2409 1742 
Q 1991 1309 1228 531 
z
" transform="scale(0.015625)"/>
       </defs>
       <use xlink:href="#DejaVuSans-32"/>
       <use xlink:href="#DejaVuSans-30" x="63.623047"/>
       <use xlink:href="#DejaVuSans-30" x="127.246094"/>
      </g>
     </g>
    </g>
    <g id="xtick_4">
     <g id="line2d_4">
      <path d="M 756.946197 989.34 
L 756.946197 7.2 
" clip-path="url(#pc990e66b5a)" style="fill: none; stroke: #cccccc; stroke-linecap: round"/>
     </g>
     <g id="text_4">
      <!-- 300 -->
      <g style="fill: #262626" transform="translate(725.451822 1026.914844) scale(0.33 -0.33)">
       <defs>
        <path id="DejaVuSans-33" d="M 2597 2516 
Q 3050 2419 3304 2112 
Q 3559 1806 3559 1356 
Q 3559 666 3084 287 
Q 2609 -91 1734 -91 
Q 1441 -91 1130 -33 
Q 819 25 488 141 
L 488 750 
Q 750 597 1062 519 
Q 1375 441 1716 441 
Q 2309 441 2620 675 
Q 2931 909 2931 1356 
Q 2931 1769 2642 2001 
Q 2353 2234 1838 2234 
L 1294 2234 
L 1294 2753 
L 1863 2753 
Q 2328 2753 2575 2939 
Q 2822 3125 2822 3475 
Q 2822 3834 2567 4026 
Q 2313 4219 1838 4219 
Q 1578 4219 1281 4162 
Q 984 4106 628 3988 
L 628 4550 
Q 988 4650 1302 4700 
Q 1616 4750 1894 4750 
Q 2613 4750 3031 4423 
Q 3450 4097 3450 3541 
Q 3450 3153 3228 2886 
Q 3006 2619 2597 2516 
z
" transform="scale(0.015625)"/>
       </defs>
       <use xlink:href="#DejaVuSans-33"/>
       <use xlink:href="#DejaVuSans-30" x="63.623047"/>
       <use xlink:href="#DejaVuSans-30" x="127.246094"/>
      </g>
     </g>
    </g>
    <g id="xtick_5">
     <g id="line2d_5">
      <path d="M 962.261802 989.34 
L 962.261802 7.2 
" clip-path="url(#pc990e66b5a)" style="fill: none; stroke: #cccccc; stroke-linecap: round"/>
     </g>
     <g id="text_5">
      <!-- 400 -->
      <g style="fill: #262626" transform="translate(930.767427 1026.914844) scale(0.33 -0.33)">
       <defs>
        <path id="DejaVuSans-34" d="M 2419 4116 
L 825 1625 
L 2419 1625 
L 2419 4116 
z
M 2253 4666 
L 3047 4666 
L 3047 1625 
L 3713 1625 
L 3713 1100 
L 3047 1100 
L 3047 0 
L 2419 0 
L 2419 1100 
L 313 1100 
L 313 1709 
L 2253 4666 
z
" transform="scale(0.015625)"/>
       </defs>
       <use xlink:href="#DejaVuSans-34"/>
       <use xlink:href="#DejaVuSans-30" x="63.623047"/>
       <use xlink:href="#DejaVuSans-30" x="127.246094"/>
      </g>
     </g>
    </g>
    <g id="xtick_6">
     <g id="line2d_6">
      <path d="M 1167.577407 989.34 
L 1167.577407 7.2 
" clip-path="url(#pc990e66b5a)" style="fill: none; stroke: #cccccc; stroke-linecap: round"/>
     </g>
     <g id="text_6">
      <!-- 500 -->
      <g style="fill: #262626" transform="translate(1136.083032 1026.914844) scale(0.33 -0.33)">
       <defs>
        <path id="DejaVuSans-35" d="M 691 4666 
L 3169 4666 
L 3169 4134 
L 1269 4134 
L 1269 2991 
Q 1406 3038 1543 3061 
Q 1681 3084 1819 3084 
Q 2600 3084 3056 2656 
Q 3513 2228 3513 1497 
Q 3513 744 3044 326 
Q 2575 -91 1722 -91 
Q 1428 -91 1123 -41 
Q 819 9 494 109 
L 494 744 
Q 775 591 1075 516 
Q 1375 441 1709 441 
Q 2250 441 2565 725 
Q 2881 1009 2881 1497 
Q 2881 1984 2565 2268 
Q 2250 2553 1709 2553 
Q 1456 2553 1204 2497 
Q 953 2441 691 2322 
L 691 4666 
z
" transform="scale(0.015625)"/>
       </defs>
       <use xlink:href="#DejaVuSans-35"/>
       <use xlink:href="#DejaVuSans-30" x="63.623047"/>
       <use xlink:href="#DejaVuSans-30" x="127.246094"/>
      </g>
     </g>
    </g>
    <g id="xtick_7">
     <g id="line2d_7">
      <path d="M 1372.893013 989.34 
L 1372.893013 7.2 
" clip-path="url(#pc990e66b5a)" style="fill: none; stroke: #cccccc; stroke-linecap: round"/>
     </g>
     <g id="text_7">
      <!-- 600 -->
      <g style="fill: #262626" transform="translate(1341.398638 1026.914844) scale(0.33 -0.33)">
       <defs>
        <path id="DejaVuSans-36" d="M 2113 2584 
Q 1688 2584 1439 2293 
Q 1191 2003 1191 1497 
Q 1191 994 1439 701 
Q 1688 409 2113 409 
Q 2538 409 2786 701 
Q 3034 994 3034 1497 
Q 3034 2003 2786 2293 
Q 2538 2584 2113 2584 
z
M 3366 4563 
L 3366 3988 
Q 3128 4100 2886 4159 
Q 2644 4219 2406 4219 
Q 1781 4219 1451 3797 
Q 1122 3375 1075 2522 
Q 1259 2794 1537 2939 
Q 1816 3084 2150 3084 
Q 2853 3084 3261 2657 
Q 3669 2231 3669 1497 
Q 3669 778 3244 343 
Q 2819 -91 2113 -91 
Q 1303 -91 875 529 
Q 447 1150 447 2328 
Q 447 3434 972 4092 
Q 1497 4750 2381 4750 
Q 2619 4750 2861 4703 
Q 3103 4656 3366 4563 
z
" transform="scale(0.015625)"/>
       </defs>
       <use xlink:href="#DejaVuSans-36"/>
       <use xlink:href="#DejaVuSans-30" x="63.623047"/>
       <use xlink:href="#DejaVuSans-30" x="127.246094"/>
      </g>
     </g>
    </g>
    <g id="xtick_8">
     <g id="line2d_8">
      <path d="M 182.062502 989.34 
L 182.062502 7.2 
" clip-path="url(#pc990e66b5a)" style="fill: none; stroke: #cccccc; stroke-width: 0.5; stroke-linecap: round"/>
     </g>
    </g>
    <g id="xtick_9">
     <g id="line2d_9">
      <path d="M 223.125623 989.34 
L 223.125623 7.2 
" clip-path="url(#pc990e66b5a)" style="fill: none; stroke: #cccccc; stroke-width: 0.5; stroke-linecap: round"/>
     </g>
    </g>
    <g id="xtick_10">
     <g id="line2d_10">
      <path d="M 264.188744 989.34 
L 264.188744 7.2 
" clip-path="url(#pc990e66b5a)" style="fill: none; stroke: #cccccc; stroke-width: 0.5; stroke-linecap: round"/>
     </g>
    </g>
    <g id="xtick_11">
     <g id="line2d_11">
      <path d="M 305.251865 989.34 
L 305.251865 7.2 
" clip-path="url(#pc990e66b5a)" style="fill: none; stroke: #cccccc; stroke-width: 0.5; stroke-linecap: round"/>
     </g>
    </g>
    <g id="xtick_12">
     <g id="line2d_12">
      <path d="M 387.378107 989.34 
L 387.378107 7.2 
" clip-path="url(#pc990e66b5a)" style="fill: none; stroke: #cccccc; stroke-width: 0.5; stroke-linecap: round"/>
     </g>
    </g>
    <g id="xtick_13">
     <g id="line2d_13">
      <path d="M 428.441229 989.34 
L 428.441229 7.2 
" clip-path="url(#pc990e66b5a)" style="fill: none; stroke: #cccccc; stroke-width: 0.5; stroke-linecap: round"/>
     </g>
    </g>
    <g id="xtick_14">
     <g id="line2d_14">
      <path d="M 469.50435 989.34 
L 469.50435 7.2 
" clip-path="url(#pc990e66b5a)" style="fill: none; stroke: #cccccc; stroke-width: 0.5; stroke-linecap: round"/>
     </g>
    </g>
    <g id="xtick_15">
     <g id="line2d_15">
      <path d="M 510.567471 989.34 
L 510.567471 7.2 
" clip-path="url(#pc990e66b5a)" style="fill: none; stroke: #cccccc; stroke-width: 0.5; stroke-linecap: round"/>
     </g>
    </g>
    <g id="xtick_16">
     <g id="line2d_16">
      <path d="M 592.693713 989.34 
L 592.693713 7.2 
" clip-path="url(#pc990e66b5a)" style="fill: none; stroke: #cccccc; stroke-width: 0.5; stroke-linecap: round"/>
     </g>
    </g>
    <g id="xtick_17">
     <g id="line2d_17">
      <path d="M 633.756834 989.34 
L 633.756834 7.2 
" clip-path="url(#pc990e66b5a)" style="fill: none; stroke: #cccccc; stroke-width: 0.5; stroke-linecap: round"/>
     </g>
    </g>
    <g id="xtick_18">
     <g id="line2d_18">
      <path d="M 674.819955 989.34 
L 674.819955 7.2 
" clip-path="url(#pc990e66b5a)" style="fill: none; stroke: #cccccc; stroke-width: 0.5; stroke-linecap: round"/>
     </g>
    </g>
    <g id="xtick_19">
     <g id="line2d_19">
      <path d="M 715.883076 989.34 
L 715.883076 7.2 
" clip-path="url(#pc990e66b5a)" style="fill: none; stroke: #cccccc; stroke-width: 0.5; stroke-linecap: round"/>
     </g>
    </g>
    <g id="xtick_20">
     <g id="line2d_20">
      <path d="M 798.009318 989.34 
L 798.009318 7.2 
" clip-path="url(#pc990e66b5a)" style="fill: none; stroke: #cccccc; stroke-width: 0.5; stroke-linecap: round"/>
     </g>
    </g>
    <g id="xtick_21">
     <g id="line2d_21">
      <path d="M 839.072439 989.34 
L 839.072439 7.2 
" clip-path="url(#pc990e66b5a)" style="fill: none; stroke: #cccccc; stroke-width: 0.5; stroke-linecap: round"/>
     </g>
    </g>
    <g id="xtick_22">
     <g id="line2d_22">
      <path d="M 880.13556 989.34 
L 880.13556 7.2 
" clip-path="url(#pc990e66b5a)" style="fill: none; stroke: #cccccc; stroke-width: 0.5; stroke-linecap: round"/>
     </g>
    </g>
    <g id="xtick_23">
     <g id="line2d_23">
      <path d="M 921.198681 989.34 
L 921.198681 7.2 
" clip-path="url(#pc990e66b5a)" style="fill: none; stroke: #cccccc; stroke-width: 0.5; stroke-linecap: round"/>
     </g>
    </g>
    <g id="xtick_24">
     <g id="line2d_24">
      <path d="M 1003.324923 989.34 
L 1003.324923 7.2 
" clip-path="url(#pc990e66b5a)" style="fill: none; stroke: #cccccc; stroke-width: 0.5; stroke-linecap: round"/>
     </g>
    </g>
    <g id="xtick_25">
     <g id="line2d_25">
      <path d="M 1044.388044 989.34 
L 1044.388044 7.2 
" clip-path="url(#pc990e66b5a)" style="fill: none; stroke: #cccccc; stroke-width: 0.5; stroke-linecap: round"/>
     </g>
    </g>
    <g id="xtick_26">
     <g id="line2d_26">
      <path d="M 1085.451165 989.34 
L 1085.451165 7.2 
" clip-path="url(#pc990e66b5a)" style="fill: none; stroke: #cccccc; stroke-width: 0.5; stroke-linecap: round"/>
     </g>
    </g>
    <g id="xtick_27">
     <g id="line2d_27">
      <path d="M 1126.514286 989.34 
L 1126.514286 7.2 
" clip-path="url(#pc990e66b5a)" style="fill: none; stroke: #cccccc; stroke-width: 0.5; stroke-linecap: round"/>
     </g>
    </g>
    <g id="xtick_28">
     <g id="line2d_28">
      <path d="M 1208.640528 989.34 
L 1208.640528 7.2 
" clip-path="url(#pc990e66b5a)" style="fill: none; stroke: #cccccc; stroke-width: 0.5; stroke-linecap: round"/>
     </g>
    </g>
    <g id="xtick_29">
     <g id="line2d_29">
      <path d="M 1249.70365 989.34 
L 1249.70365 7.2 
" clip-path="url(#pc990e66b5a)" style="fill: none; stroke: #cccccc; stroke-width: 0.5; stroke-linecap: round"/>
     </g>
    </g>
    <g id="xtick_30">
     <g id="line2d_30">
      <path d="M 1290.766771 989.34 
L 1290.766771 7.2 
" clip-path="url(#pc990e66b5a)" style="fill: none; stroke: #cccccc; stroke-width: 0.5; stroke-linecap: round"/>
     </g>
    </g>
    <g id="xtick_31">
     <g id="line2d_31">
      <path d="M 1331.829892 989.34 
L 1331.829892 7.2 
" clip-path="url(#pc990e66b5a)" style="fill: none; stroke: #cccccc; stroke-width: 0.5; stroke-linecap: round"/>
     </g>
    </g>
    <g id="xtick_32">
     <g id="line2d_32">
      <path d="M 1413.956134 989.34 
L 1413.956134 7.2 
" clip-path="url(#pc990e66b5a)" style="fill: none; stroke: #cccccc; stroke-width: 0.5; stroke-linecap: round"/>
     </g>
    </g>
    <g id="text_8">
     <!-- average absolute e2e testing time of retest-all [s] -->
     <g style="fill: #262626" transform="translate(328.253437 1065.132187) scale(0.36 -0.36)">
      <defs>
       <path id="DejaVuSans-61" d="M 2194 1759 
Q 1497 1759 1228 1600 
Q 959 1441 959 1056 
Q 959 750 1161 570 
Q 1363 391 1709 391 
Q 2188 391 2477 730 
Q 2766 1069 2766 1631 
L 2766 1759 
L 2194 1759 
z
M 3341 1997 
L 3341 0 
L 2766 0 
L 2766 531 
Q 2569 213 2275 61 
Q 1981 -91 1556 -91 
Q 1019 -91 701 211 
Q 384 513 384 1019 
Q 384 1609 779 1909 
Q 1175 2209 1959 2209 
L 2766 2209 
L 2766 2266 
Q 2766 2663 2505 2880 
Q 2244 3097 1772 3097 
Q 1472 3097 1187 3025 
Q 903 2953 641 2809 
L 641 3341 
Q 956 3463 1253 3523 
Q 1550 3584 1831 3584 
Q 2591 3584 2966 3190 
Q 3341 2797 3341 1997 
z
" transform="scale(0.015625)"/>
       <path id="DejaVuSans-76" d="M 191 3500 
L 800 3500 
L 1894 563 
L 2988 3500 
L 3597 3500 
L 2284 0 
L 1503 0 
L 191 3500 
z
" transform="scale(0.015625)"/>
       <path id="DejaVuSans-65" d="M 3597 1894 
L 3597 1613 
L 953 1613 
Q 991 1019 1311 708 
Q 1631 397 2203 397 
Q 2534 397 2845 478 
Q 3156 559 3463 722 
L 3463 178 
Q 3153 47 2828 -22 
Q 2503 -91 2169 -91 
Q 1331 -91 842 396 
Q 353 884 353 1716 
Q 353 2575 817 3079 
Q 1281 3584 2069 3584 
Q 2775 3584 3186 3129 
Q 3597 2675 3597 1894 
z
M 3022 2063 
Q 3016 2534 2758 2815 
Q 2500 3097 2075 3097 
Q 1594 3097 1305 2825 
Q 1016 2553 972 2059 
L 3022 2063 
z
" transform="scale(0.015625)"/>
       <path id="DejaVuSans-72" d="M 2631 2963 
Q 2534 3019 2420 3045 
Q 2306 3072 2169 3072 
Q 1681 3072 1420 2755 
Q 1159 2438 1159 1844 
L 1159 0 
L 581 0 
L 581 3500 
L 1159 3500 
L 1159 2956 
Q 1341 3275 1631 3429 
Q 1922 3584 2338 3584 
Q 2397 3584 2469 3576 
Q 2541 3569 2628 3553 
L 2631 2963 
z
" transform="scale(0.015625)"/>
       <path id="DejaVuSans-67" d="M 2906 1791 
Q 2906 2416 2648 2759 
Q 2391 3103 1925 3103 
Q 1463 3103 1205 2759 
Q 947 2416 947 1791 
Q 947 1169 1205 825 
Q 1463 481 1925 481 
Q 2391 481 2648 825 
Q 2906 1169 2906 1791 
z
M 3481 434 
Q 3481 -459 3084 -895 
Q 2688 -1331 1869 -1331 
Q 1566 -1331 1297 -1286 
Q 1028 -1241 775 -1147 
L 775 -588 
Q 1028 -725 1275 -790 
Q 1522 -856 1778 -856 
Q 2344 -856 2625 -561 
Q 2906 -266 2906 331 
L 2906 616 
Q 2728 306 2450 153 
Q 2172 0 1784 0 
Q 1141 0 747 490 
Q 353 981 353 1791 
Q 353 2603 747 3093 
Q 1141 3584 1784 3584 
Q 2172 3584 2450 3431 
Q 2728 3278 2906 2969 
L 2906 3500 
L 3481 3500 
L 3481 434 
z
" transform="scale(0.015625)"/>
       <path id="DejaVuSans-20" transform="scale(0.015625)"/>
       <path id="DejaVuSans-62" d="M 3116 1747 
Q 3116 2381 2855 2742 
Q 2594 3103 2138 3103 
Q 1681 3103 1420 2742 
Q 1159 2381 1159 1747 
Q 1159 1113 1420 752 
Q 1681 391 2138 391 
Q 2594 391 2855 752 
Q 3116 1113 3116 1747 
z
M 1159 2969 
Q 1341 3281 1617 3432 
Q 1894 3584 2278 3584 
Q 2916 3584 3314 3078 
Q 3713 2572 3713 1747 
Q 3713 922 3314 415 
Q 2916 -91 2278 -91 
Q 1894 -91 1617 61 
Q 1341 213 1159 525 
L 1159 0 
L 581 0 
L 581 4863 
L 1159 4863 
L 1159 2969 
z
" transform="scale(0.015625)"/>
       <path id="DejaVuSans-73" d="M 2834 3397 
L 2834 2853 
Q 2591 2978 2328 3040 
Q 2066 3103 1784 3103 
Q 1356 3103 1142 2972 
Q 928 2841 928 2578 
Q 928 2378 1081 2264 
Q 1234 2150 1697 2047 
L 1894 2003 
Q 2506 1872 2764 1633 
Q 3022 1394 3022 966 
Q 3022 478 2636 193 
Q 2250 -91 1575 -91 
Q 1294 -91 989 -36 
Q 684 19 347 128 
L 347 722 
Q 666 556 975 473 
Q 1284 391 1588 391 
Q 1994 391 2212 530 
Q 2431 669 2431 922 
Q 2431 1156 2273 1281 
Q 2116 1406 1581 1522 
L 1381 1569 
Q 847 1681 609 1914 
Q 372 2147 372 2553 
Q 372 3047 722 3315 
Q 1072 3584 1716 3584 
Q 2034 3584 2315 3537 
Q 2597 3491 2834 3397 
z
" transform="scale(0.015625)"/>
       <path id="DejaVuSans-6f" d="M 1959 3097 
Q 1497 3097 1228 2736 
Q 959 2375 959 1747 
Q 959 1119 1226 758 
Q 1494 397 1959 397 
Q 2419 397 2687 759 
Q 2956 1122 2956 1747 
Q 2956 2369 2687 2733 
Q 2419 3097 1959 3097 
z
M 1959 3584 
Q 2709 3584 3137 3096 
Q 3566 2609 3566 1747 
Q 3566 888 3137 398 
Q 2709 -91 1959 -91 
Q 1206 -91 779 398 
Q 353 888 353 1747 
Q 353 2609 779 3096 
Q 1206 3584 1959 3584 
z
" transform="scale(0.015625)"/>
       <path id="DejaVuSans-6c" d="M 603 4863 
L 1178 4863 
L 1178 0 
L 603 0 
L 603 4863 
z
" transform="scale(0.015625)"/>
       <path id="DejaVuSans-75" d="M 544 1381 
L 544 3500 
L 1119 3500 
L 1119 1403 
Q 1119 906 1312 657 
Q 1506 409 1894 409 
Q 2359 409 2629 706 
Q 2900 1003 2900 1516 
L 2900 3500 
L 3475 3500 
L 3475 0 
L 2900 0 
L 2900 538 
Q 2691 219 2414 64 
Q 2138 -91 1772 -91 
Q 1169 -91 856 284 
Q 544 659 544 1381 
z
M 1991 3584 
L 1991 3584 
z
" transform="scale(0.015625)"/>
       <path id="DejaVuSans-74" d="M 1172 4494 
L 1172 3500 
L 2356 3500 
L 2356 3053 
L 1172 3053 
L 1172 1153 
Q 1172 725 1289 603 
Q 1406 481 1766 481 
L 2356 481 
L 2356 0 
L 1766 0 
Q 1100 0 847 248 
Q 594 497 594 1153 
L 594 3053 
L 172 3053 
L 172 3500 
L 594 3500 
L 594 4494 
L 1172 4494 
z
" transform="scale(0.015625)"/>
       <path id="DejaVuSans-69" d="M 603 3500 
L 1178 3500 
L 1178 0 
L 603 0 
L 603 3500 
z
M 603 4863 
L 1178 4863 
L 1178 4134 
L 603 4134 
L 603 4863 
z
" transform="scale(0.015625)"/>
       <path id="DejaVuSans-6e" d="M 3513 2113 
L 3513 0 
L 2938 0 
L 2938 2094 
Q 2938 2591 2744 2837 
Q 2550 3084 2163 3084 
Q 1697 3084 1428 2787 
Q 1159 2491 1159 1978 
L 1159 0 
L 581 0 
L 581 3500 
L 1159 3500 
L 1159 2956 
Q 1366 3272 1645 3428 
Q 1925 3584 2291 3584 
Q 2894 3584 3203 3211 
Q 3513 2838 3513 2113 
z
" transform="scale(0.015625)"/>
       <path id="DejaVuSans-6d" d="M 3328 2828 
Q 3544 3216 3844 3400 
Q 4144 3584 4550 3584 
Q 5097 3584 5394 3201 
Q 5691 2819 5691 2113 
L 5691 0 
L 5113 0 
L 5113 2094 
Q 5113 2597 4934 2840 
Q 4756 3084 4391 3084 
Q 3944 3084 3684 2787 
Q 3425 2491 3425 1978 
L 3425 0 
L 2847 0 
L 2847 2094 
Q 2847 2600 2669 2842 
Q 2491 3084 2119 3084 
Q 1678 3084 1418 2786 
Q 1159 2488 1159 1978 
L 1159 0 
L 581 0 
L 581 3500 
L 1159 3500 
L 1159 2956 
Q 1356 3278 1631 3431 
Q 1906 3584 2284 3584 
Q 2666 3584 2933 3390 
Q 3200 3197 3328 2828 
z
" transform="scale(0.015625)"/>
       <path id="DejaVuSans-66" d="M 2375 4863 
L 2375 4384 
L 1825 4384 
Q 1516 4384 1395 4259 
Q 1275 4134 1275 3809 
L 1275 3500 
L 2222 3500 
L 2222 3053 
L 1275 3053 
L 1275 0 
L 697 0 
L 697 3053 
L 147 3053 
L 147 3500 
L 697 3500 
L 697 3744 
Q 697 4328 969 4595 
Q 1241 4863 1831 4863 
L 2375 4863 
z
" transform="scale(0.015625)"/>
       <path id="DejaVuSans-2d" d="M 313 2009 
L 1997 2009 
L 1997 1497 
L 313 1497 
L 313 2009 
z
" transform="scale(0.015625)"/>
       <path id="DejaVuSans-5b" d="M 550 4863 
L 1875 4863 
L 1875 4416 
L 1125 4416 
L 1125 -397 
L 1875 -397 
L 1875 -844 
L 550 -844 
L 550 4863 
z
" transform="scale(0.015625)"/>
       <path id="DejaVuSans-5d" d="M 1947 4863 
L 1947 -844 
L 622 -844 
L 622 -397 
L 1369 -397 
L 1369 4416 
L 622 4416 
L 622 4863 
L 1947 4863 
z
" transform="scale(0.015625)"/>
      </defs>
      <use xlink:href="#DejaVuSans-61"/>
      <use xlink:href="#DejaVuSans-76" x="61.279297"/>
      <use xlink:href="#DejaVuSans-65" x="120.458984"/>
      <use xlink:href="#DejaVuSans-72" x="181.982422"/>
      <use xlink:href="#DejaVuSans-61" x="223.095703"/>
      <use xlink:href="#DejaVuSans-67" x="284.375"/>
      <use xlink:href="#DejaVuSans-65" x="347.851562"/>
      <use xlink:href="#DejaVuSans-20" x="409.375"/>
      <use xlink:href="#DejaVuSans-61" x="441.162109"/>
      <use xlink:href="#DejaVuSans-62" x="502.441406"/>
      <use xlink:href="#DejaVuSans-73" x="565.917969"/>
      <use xlink:href="#DejaVuSans-6f" x="618.017578"/>
      <use xlink:href="#DejaVuSans-6c" x="679.199219"/>
      <use xlink:href="#DejaVuSans-75" x="706.982422"/>
      <use xlink:href="#DejaVuSans-74" x="770.361328"/>
      <use xlink:href="#DejaVuSans-65" x="809.570312"/>
      <use xlink:href="#DejaVuSans-20" x="871.09375"/>
      <use xlink:href="#DejaVuSans-65" x="902.880859"/>
      <use xlink:href="#DejaVuSans-32" x="964.404297"/>
      <use xlink:href="#DejaVuSans-65" x="1028.027344"/>
      <use xlink:href="#DejaVuSans-20" x="1089.550781"/>
      <use xlink:href="#DejaVuSans-74" x="1121.337891"/>
      <use xlink:href="#DejaVuSans-65" x="1160.546875"/>
      <use xlink:href="#DejaVuSans-73" x="1222.070312"/>
      <use xlink:href="#DejaVuSans-74" x="1274.169922"/>
      <use xlink:href="#DejaVuSans-69" x="1313.378906"/>
      <use xlink:href="#DejaVuSans-6e" x="1341.162109"/>
      <use xlink:href="#DejaVuSans-67" x="1404.541016"/>
      <use xlink:href="#DejaVuSans-20" x="1468.017578"/>
      <use xlink:href="#DejaVuSans-74" x="1499.804688"/>
      <use xlink:href="#DejaVuSans-69" x="1539.013672"/>
      <use xlink:href="#DejaVuSans-6d" x="1566.796875"/>
      <use xlink:href="#DejaVuSans-65" x="1664.208984"/>
      <use xlink:href="#DejaVuSans-20" x="1725.732422"/>
      <use xlink:href="#DejaVuSans-6f" x="1757.519531"/>
      <use xlink:href="#DejaVuSans-66" x="1818.701172"/>
      <use xlink:href="#DejaVuSans-20" x="1853.90625"/>
      <use xlink:href="#DejaVuSans-72" x="1885.693359"/>
      <use xlink:href="#DejaVuSans-65" x="1924.556641"/>
      <use xlink:href="#DejaVuSans-74" x="1986.080078"/>
      <use xlink:href="#DejaVuSans-65" x="2025.289062"/>
      <use xlink:href="#DejaVuSans-73" x="2086.8125"/>
      <use xlink:href="#DejaVuSans-74" x="2138.912109"/>
      <use xlink:href="#DejaVuSans-2d" x="2178.121094"/>
      <use xlink:href="#DejaVuSans-61" x="2214.205078"/>
      <use xlink:href="#DejaVuSans-6c" x="2275.484375"/>
      <use xlink:href="#DejaVuSans-6c" x="2303.267578"/>
      <use xlink:href="#DejaVuSans-20" x="2331.050781"/>
      <use xlink:href="#DejaVuSans-5b" x="2362.837891"/>
      <use xlink:href="#DejaVuSans-73" x="2401.851562"/>
      <use xlink:href="#DejaVuSans-5d" x="2453.951172"/>
     </g>
    </g>
   </g>
   <g id="matplotlib.axis_2">
    <g id="ytick_1">
     <g id="line2d_33">
      <path d="M 121.17 873.424507 
L 1432.8 873.424507 
" clip-path="url(#pc990e66b5a)" style="fill: none; stroke: #cccccc; stroke-linecap: round"/>
     </g>
     <g id="text_9">
      <!-- 20 -->
      <g style="fill: #262626" transform="translate(66.6775 885.961929) scale(0.33 -0.33)">
       <use xlink:href="#DejaVuSans-32"/>
       <use xlink:href="#DejaVuSans-30" x="63.623047"/>
      </g>
     </g>
    </g>
    <g id="ytick_2">
     <g id="line2d_34">
      <path d="M 121.17 744.994381 
L 1432.8 744.994381 
" clip-path="url(#pc990e66b5a)" style="fill: none; stroke: #cccccc; stroke-linecap: round"/>
     </g>
     <g id="text_10">
      <!-- 40 -->
      <g style="fill: #262626" transform="translate(66.6775 757.531803) scale(0.33 -0.33)">
       <use xlink:href="#DejaVuSans-34"/>
       <use xlink:href="#DejaVuSans-30" x="63.623047"/>
      </g>
     </g>
    </g>
    <g id="ytick_3">
     <g id="line2d_35">
      <path d="M 121.17 616.564255 
L 1432.8 616.564255 
" clip-path="url(#pc990e66b5a)" style="fill: none; stroke: #cccccc; stroke-linecap: round"/>
     </g>
     <g id="text_11">
      <!-- 60 -->
      <g style="fill: #262626" transform="translate(66.6775 629.101676) scale(0.33 -0.33)">
       <use xlink:href="#DejaVuSans-36"/>
       <use xlink:href="#DejaVuSans-30" x="63.623047"/>
      </g>
     </g>
    </g>
    <g id="ytick_4">
     <g id="line2d_36">
      <path d="M 121.17 488.134128 
L 1432.8 488.134128 
" clip-path="url(#pc990e66b5a)" style="fill: none; stroke: #cccccc; stroke-linecap: round"/>
     </g>
     <g id="text_12">
      <!-- 80 -->
      <g style="fill: #262626" transform="translate(66.6775 500.67155) scale(0.33 -0.33)">
       <defs>
        <path id="DejaVuSans-38" d="M 2034 2216 
Q 1584 2216 1326 1975 
Q 1069 1734 1069 1313 
Q 1069 891 1326 650 
Q 1584 409 2034 409 
Q 2484 409 2743 651 
Q 3003 894 3003 1313 
Q 3003 1734 2745 1975 
Q 2488 2216 2034 2216 
z
M 1403 2484 
Q 997 2584 770 2862 
Q 544 3141 544 3541 
Q 544 4100 942 4425 
Q 1341 4750 2034 4750 
Q 2731 4750 3128 4425 
Q 3525 4100 3525 3541 
Q 3525 3141 3298 2862 
Q 3072 2584 2669 2484 
Q 3125 2378 3379 2068 
Q 3634 1759 3634 1313 
Q 3634 634 3220 271 
Q 2806 -91 2034 -91 
Q 1263 -91 848 271 
Q 434 634 434 1313 
Q 434 1759 690 2068 
Q 947 2378 1403 2484 
z
M 1172 3481 
Q 1172 3119 1398 2916 
Q 1625 2713 2034 2713 
Q 2441 2713 2670 2916 
Q 2900 3119 2900 3481 
Q 2900 3844 2670 4047 
Q 2441 4250 2034 4250 
Q 1625 4250 1398 4047 
Q 1172 3844 1172 3481 
z
" transform="scale(0.015625)"/>
       </defs>
       <use xlink:href="#DejaVuSans-38"/>
       <use xlink:href="#DejaVuSans-30" x="63.623047"/>
      </g>
     </g>
    </g>
    <g id="ytick_5">
     <g id="line2d_37">
      <path d="M 121.17 359.704002 
L 1432.8 359.704002 
" clip-path="url(#pc990e66b5a)" style="fill: none; stroke: #cccccc; stroke-linecap: round"/>
     </g>
     <g id="text_13">
      <!-- 100 -->
      <g style="fill: #262626" transform="translate(45.68125 372.241424) scale(0.33 -0.33)">
       <use xlink:href="#DejaVuSans-31"/>
       <use xlink:href="#DejaVuSans-30" x="63.623047"/>
       <use xlink:href="#DejaVuSans-30" x="127.246094"/>
      </g>
     </g>
    </g>
    <g id="ytick_6">
     <g id="line2d_38">
      <path d="M 121.17 231.273875 
L 1432.8 231.273875 
" clip-path="url(#pc990e66b5a)" style="fill: none; stroke: #cccccc; stroke-linecap: round"/>
     </g>
     <g id="text_14">
      <!-- 120 -->
      <g style="fill: #262626" transform="translate(45.68125 243.811297) scale(0.33 -0.33)">
       <use xlink:href="#DejaVuSans-31"/>
       <use xlink:href="#DejaVuSans-32" x="63.623047"/>
       <use xlink:href="#DejaVuSans-30" x="127.246094"/>
      </g>
     </g>
    </g>
    <g id="ytick_7">
     <g id="line2d_39">
      <path d="M 121.17 102.843749 
L 1432.8 102.843749 
" clip-path="url(#pc990e66b5a)" style="fill: none; stroke: #cccccc; stroke-linecap: round"/>
     </g>
     <g id="text_15">
      <!-- 140 -->
      <g style="fill: #262626" transform="translate(45.68125 115.381171) scale(0.33 -0.33)">
       <use xlink:href="#DejaVuSans-31"/>
       <use xlink:href="#DejaVuSans-34" x="63.623047"/>
       <use xlink:href="#DejaVuSans-30" x="127.246094"/>
      </g>
     </g>
    </g>
    <g id="ytick_8">
     <g id="line2d_40">
      <path d="M 121.17 969.747102 
L 1432.8 969.747102 
" clip-path="url(#pc990e66b5a)" style="fill: none; stroke: #cccccc; stroke-width: 0.5; stroke-linecap: round"/>
     </g>
    </g>
    <g id="ytick_9">
     <g id="line2d_41">
      <path d="M 121.17 937.639571 
L 1432.8 937.639571 
" clip-path="url(#pc990e66b5a)" style="fill: none; stroke: #cccccc; stroke-width: 0.5; stroke-linecap: round"/>
     </g>
    </g>
    <g id="ytick_10">
     <g id="line2d_42">
      <path d="M 121.17 905.532039 
L 1432.8 905.532039 
" clip-path="url(#pc990e66b5a)" style="fill: none; stroke: #cccccc; stroke-width: 0.5; stroke-linecap: round"/>
     </g>
    </g>
    <g id="ytick_11">
     <g id="line2d_43">
      <path d="M 121.17 841.316976 
L 1432.8 841.316976 
" clip-path="url(#pc990e66b5a)" style="fill: none; stroke: #cccccc; stroke-width: 0.5; stroke-linecap: round"/>
     </g>
    </g>
    <g id="ytick_12">
     <g id="line2d_44">
      <path d="M 121.17 809.209444 
L 1432.8 809.209444 
" clip-path="url(#pc990e66b5a)" style="fill: none; stroke: #cccccc; stroke-width: 0.5; stroke-linecap: round"/>
     </g>
    </g>
    <g id="ytick_13">
     <g id="line2d_45">
      <path d="M 121.17 777.101913 
L 1432.8 777.101913 
" clip-path="url(#pc990e66b5a)" style="fill: none; stroke: #cccccc; stroke-width: 0.5; stroke-linecap: round"/>
     </g>
    </g>
    <g id="ytick_14">
     <g id="line2d_46">
      <path d="M 121.17 712.886849 
L 1432.8 712.886849 
" clip-path="url(#pc990e66b5a)" style="fill: none; stroke: #cccccc; stroke-width: 0.5; stroke-linecap: round"/>
     </g>
    </g>
    <g id="ytick_15">
     <g id="line2d_47">
      <path d="M 121.17 680.779318 
L 1432.8 680.779318 
" clip-path="url(#pc990e66b5a)" style="fill: none; stroke: #cccccc; stroke-width: 0.5; stroke-linecap: round"/>
     </g>
    </g>
    <g id="ytick_16">
     <g id="line2d_48">
      <path d="M 121.17 648.671786 
L 1432.8 648.671786 
" clip-path="url(#pc990e66b5a)" style="fill: none; stroke: #cccccc; stroke-width: 0.5; stroke-linecap: round"/>
     </g>
    </g>
    <g id="ytick_17">
     <g id="line2d_49">
      <path d="M 121.17 584.456723 
L 1432.8 584.456723 
" clip-path="url(#pc990e66b5a)" style="fill: none; stroke: #cccccc; stroke-width: 0.5; stroke-linecap: round"/>
     </g>
    </g>
    <g id="ytick_18">
     <g id="line2d_50">
      <path d="M 121.17 552.349191 
L 1432.8 552.349191 
" clip-path="url(#pc990e66b5a)" style="fill: none; stroke: #cccccc; stroke-width: 0.5; stroke-linecap: round"/>
     </g>
    </g>
    <g id="ytick_19">
     <g id="line2d_51">
      <path d="M 121.17 520.24166 
L 1432.8 520.24166 
" clip-path="url(#pc990e66b5a)" style="fill: none; stroke: #cccccc; stroke-width: 0.5; stroke-linecap: round"/>
     </g>
    </g>
    <g id="ytick_20">
     <g id="line2d_52">
      <path d="M 121.17 456.026597 
L 1432.8 456.026597 
" clip-path="url(#pc990e66b5a)" style="fill: none; stroke: #cccccc; stroke-width: 0.5; stroke-linecap: round"/>
     </g>
    </g>
    <g id="ytick_21">
     <g id="line2d_53">
      <path d="M 121.17 423.919065 
L 1432.8 423.919065 
" clip-path="url(#pc990e66b5a)" style="fill: none; stroke: #cccccc; stroke-width: 0.5; stroke-linecap: round"/>
     </g>
    </g>
    <g id="ytick_22">
     <g id="line2d_54">
      <path d="M 121.17 391.811533 
L 1432.8 391.811533 
" clip-path="url(#pc990e66b5a)" style="fill: none; stroke: #cccccc; stroke-width: 0.5; stroke-linecap: round"/>
     </g>
    </g>
    <g id="ytick_23">
     <g id="line2d_55">
      <path d="M 121.17 327.59647 
L 1432.8 327.59647 
" clip-path="url(#pc990e66b5a)" style="fill: none; stroke: #cccccc; stroke-width: 0.5; stroke-linecap: round"/>
     </g>
    </g>
    <g id="ytick_24">
     <g id="line2d_56">
      <path d="M 121.17 295.488938 
L 1432.8 295.488938 
" clip-path="url(#pc990e66b5a)" style="fill: none; stroke: #cccccc; stroke-width: 0.5; stroke-linecap: round"/>
     </g>
    </g>
    <g id="ytick_25">
     <g id="line2d_57">
      <path d="M 121.17 263.381407 
L 1432.8 263.381407 
" clip-path="url(#pc990e66b5a)" style="fill: none; stroke: #cccccc; stroke-width: 0.5; stroke-linecap: round"/>
     </g>
    </g>
    <g id="ytick_26">
     <g id="line2d_58">
      <path d="M 121.17 199.166344 
L 1432.8 199.166344 
" clip-path="url(#pc990e66b5a)" style="fill: none; stroke: #cccccc; stroke-width: 0.5; stroke-linecap: round"/>
     </g>
    </g>
    <g id="ytick_27">
     <g id="line2d_59">
      <path d="M 121.17 167.058812 
L 1432.8 167.058812 
" clip-path="url(#pc990e66b5a)" style="fill: none; stroke: #cccccc; stroke-width: 0.5; stroke-linecap: round"/>
     </g>
    </g>
    <g id="ytick_28">
     <g id="line2d_60">
      <path d="M 121.17 134.95128 
L 1432.8 134.95128 
" clip-path="url(#pc990e66b5a)" style="fill: none; stroke: #cccccc; stroke-width: 0.5; stroke-linecap: round"/>
     </g>
    </g>
    <g id="ytick_29">
     <g id="line2d_61">
      <path d="M 121.17 70.736217 
L 1432.8 70.736217 
" clip-path="url(#pc990e66b5a)" style="fill: none; stroke: #cccccc; stroke-width: 0.5; stroke-linecap: round"/>
     </g>
    </g>
    <g id="ytick_30">
     <g id="line2d_62">
      <path d="M 121.17 38.628686 
L 1432.8 38.628686 
" clip-path="url(#pc990e66b5a)" style="fill: none; stroke: #cccccc; stroke-width: 0.5; stroke-linecap: round"/>
     </g>
    </g>
    <g id="text_16">
     <!-- average relative e2e testing time [%] -->
     <g style="fill: #262626" transform="translate(34.194375 836.273438) rotate(-90) scale(0.36 -0.36)">
      <defs>
       <path id="DejaVuSans-25" d="M 4653 2053 
Q 4381 2053 4226 1822 
Q 4072 1591 4072 1178 
Q 4072 772 4226 539 
Q 4381 306 4653 306 
Q 4919 306 5073 539 
Q 5228 772 5228 1178 
Q 5228 1588 5073 1820 
Q 4919 2053 4653 2053 
z
M 4653 2450 
Q 5147 2450 5437 2106 
Q 5728 1763 5728 1178 
Q 5728 594 5436 251 
Q 5144 -91 4653 -91 
Q 4153 -91 3862 251 
Q 3572 594 3572 1178 
Q 3572 1766 3864 2108 
Q 4156 2450 4653 2450 
z
M 1428 4353 
Q 1159 4353 1004 4120 
Q 850 3888 850 3481 
Q 850 3069 1003 2837 
Q 1156 2606 1428 2606 
Q 1700 2606 1854 2837 
Q 2009 3069 2009 3481 
Q 2009 3884 1853 4118 
Q 1697 4353 1428 4353 
z
M 4250 4750 
L 4750 4750 
L 1831 -91 
L 1331 -91 
L 4250 4750 
z
M 1428 4750 
Q 1922 4750 2215 4408 
Q 2509 4066 2509 3481 
Q 2509 2891 2217 2550 
Q 1925 2209 1428 2209 
Q 931 2209 642 2551 
Q 353 2894 353 3481 
Q 353 4063 643 4406 
Q 934 4750 1428 4750 
z
" transform="scale(0.015625)"/>
      </defs>
      <use xlink:href="#DejaVuSans-61"/>
      <use xlink:href="#DejaVuSans-76" x="61.279297"/>
      <use xlink:href="#DejaVuSans-65" x="120.458984"/>
      <use xlink:href="#DejaVuSans-72" x="181.982422"/>
      <use xlink:href="#DejaVuSans-61" x="223.095703"/>
      <use xlink:href="#DejaVuSans-67" x="284.375"/>
      <use xlink:href="#DejaVuSans-65" x="347.851562"/>
      <use xlink:href="#DejaVuSans-20" x="409.375"/>
      <use xlink:href="#DejaVuSans-72" x="441.162109"/>
      <use xlink:href="#DejaVuSans-65" x="480.025391"/>
      <use xlink:href="#DejaVuSans-6c" x="541.548828"/>
      <use xlink:href="#DejaVuSans-61" x="569.332031"/>
      <use xlink:href="#DejaVuSans-74" x="630.611328"/>
      <use xlink:href="#DejaVuSans-69" x="669.820312"/>
      <use xlink:href="#DejaVuSans-76" x="697.603516"/>
      <use xlink:href="#DejaVuSans-65" x="756.783203"/>
      <use xlink:href="#DejaVuSans-20" x="818.306641"/>
      <use xlink:href="#DejaVuSans-65" x="850.09375"/>
      <use xlink:href="#DejaVuSans-32" x="911.617188"/>
      <use xlink:href="#DejaVuSans-65" x="975.240234"/>
      <use xlink:href="#DejaVuSans-20" x="1036.763672"/>
      <use xlink:href="#DejaVuSans-74" x="1068.550781"/>
      <use xlink:href="#DejaVuSans-65" x="1107.759766"/>
      <use xlink:href="#DejaVuSans-73" x="1169.283203"/>
      <use xlink:href="#DejaVuSans-74" x="1221.382812"/>
      <use xlink:href="#DejaVuSans-69" x="1260.591797"/>
      <use xlink:href="#DejaVuSans-6e" x="1288.375"/>
      <use xlink:href="#DejaVuSans-67" x="1351.753906"/>
      <use xlink:href="#DejaVuSans-20" x="1415.230469"/>
      <use xlink:href="#DejaVuSans-74" x="1447.017578"/>
      <use xlink:href="#DejaVuSans-69" x="1486.226562"/>
      <use xlink:href="#DejaVuSans-6d" x="1514.009766"/>
      <use xlink:href="#DejaVuSans-65" x="1611.421875"/>
      <use xlink:href="#DejaVuSans-20" x="1672.945312"/>
      <use xlink:href="#DejaVuSans-5b" x="1704.732422"/>
      <use xlink:href="#DejaVuSans-25" x="1743.746094"/>
      <use xlink:href="#DejaVuSans-5d" x="1838.765625"/>
     </g>
    </g>
   </g>
   <g id="PathCollection_1">
    <defs>
     <path id="C0_0_17d30fffbd" d="M 0 4.5 
C 1.193414 4.5 2.338109 4.025852 3.181981 3.181981 
C 4.025852 2.338109 4.5 1.193414 4.5 -0 
C 4.5 -1.193414 4.025852 -2.338109 3.181981 -3.181981 
C 2.338109 -4.025852 1.193414 -4.5 0 -4.5 
C -1.193414 -4.5 -2.338109 -4.025852 -3.181981 -3.181981 
C -4.025852 -2.338109 -4.5 -1.193414 -4.5 0 
C -4.5 1.193414 -4.025852 2.338109 -3.181981 3.181981 
C -2.338109 4.025852 -1.193414 4.5 0 4.5 
z
"/>
    </defs>
    <g clip-path="url(#pc990e66b5a)">
     <use xlink:href="#C0_0_17d30fffbd" x="465.336443" y="712.886849" style="fill: #e37222; stroke: #ffffff; stroke-width: 0.72"/>
    </g>
    <g clip-path="url(#pc990e66b5a)">
     <use xlink:href="#C0_0_17d30fffbd" x="1373.180455" y="655.093292" style="fill: #e37222; stroke: #ffffff; stroke-width: 0.72"/>
    </g>
    <g clip-path="url(#pc990e66b5a)">
     <use xlink:href="#C0_0_17d30fffbd" x="237.169211" y="629.407267" style="fill: #e37222; stroke: #ffffff; stroke-width: 0.72"/>
    </g>
    <g clip-path="url(#pc990e66b5a)">
     <use xlink:href="#C0_0_17d30fffbd" x="186.456256" y="481.712622" style="fill: #e37222; stroke: #ffffff; stroke-width: 0.72"/>
    </g>
    <g clip-path="url(#pc990e66b5a)">
     <use xlink:href="#C0_0_17d30fffbd" x="236.984427" y="545.927685" style="fill: #e37222; stroke: #ffffff; stroke-width: 0.72"/>
    </g>
    <g clip-path="url(#pc990e66b5a)">
     <use xlink:href="#C0_0_17d30fffbd" x="213.660574" y="520.24166" style="fill: #e37222; stroke: #ffffff; stroke-width: 0.72"/>
    </g>
    <g clip-path="url(#pc990e66b5a)">
     <use xlink:href="#C0_0_17d30fffbd" x="504.798102" y="578.035217" style="fill: #e37222; stroke: #ffffff; stroke-width: 0.72"/>
    </g>
    <g clip-path="url(#pc990e66b5a)">
     <use xlink:href="#C0_0_17d30fffbd" x="205.796986" y="430.340571" style="fill: #e37222; stroke: #ffffff; stroke-width: 0.72"/>
    </g>
    <g clip-path="url(#pc990e66b5a)">
     <use xlink:href="#C0_0_17d30fffbd" x="478.271326" y="661.514799" style="fill: #e37222; stroke: #ffffff; stroke-width: 0.72"/>
    </g>
    <g clip-path="url(#pc990e66b5a)">
     <use xlink:href="#C0_0_17d30fffbd" x="229.716254" y="687.200824" style="fill: #e37222; stroke: #ffffff; stroke-width: 0.72"/>
    </g>
    <g clip-path="url(#pc990e66b5a)">
     <use xlink:href="#C0_0_17d30fffbd" x="312.622696" y="449.60509" style="fill: #e37222; stroke: #ffffff; stroke-width: 0.72"/>
    </g>
    <g clip-path="url(#pc990e66b5a)">
     <use xlink:href="#C0_0_17d30fffbd" x="180.789545" y="250.538394" style="fill: #e37222; stroke: #ffffff; stroke-width: 0.72"/>
    </g>
    <g clip-path="url(#pc990e66b5a)">
     <use xlink:href="#C0_0_17d30fffbd" x="465.336443" y="430.340571" style="fill: #a2ad00; stroke: #ffffff; stroke-width: 0.72"/>
    </g>
    <g clip-path="url(#pc990e66b5a)">
     <use xlink:href="#C0_0_17d30fffbd" x="1373.180455" y="622.985761" style="fill: #a2ad00; stroke: #ffffff; stroke-width: 0.72"/>
    </g>
    <g clip-path="url(#pc990e66b5a)">
     <use xlink:href="#C0_0_17d30fffbd" x="237.169211" y="590.878229" style="fill: #a2ad00; stroke: #ffffff; stroke-width: 0.72"/>
    </g>
    <g clip-path="url(#pc990e66b5a)">
     <use xlink:href="#C0_0_17d30fffbd" x="186.456256" y="456.026597" style="fill: #a2ad00; stroke: #ffffff; stroke-width: 0.72"/>
    </g>
    <g clip-path="url(#pc990e66b5a)">
     <use xlink:href="#C0_0_17d30fffbd" x="236.984427" y="578.035217" style="fill: #a2ad00; stroke: #ffffff; stroke-width: 0.72"/>
    </g>
    <g clip-path="url(#pc990e66b5a)">
     <use xlink:href="#C0_0_17d30fffbd" x="213.660574" y="353.282495" style="fill: #a2ad00; stroke: #ffffff; stroke-width: 0.72"/>
    </g>
    <g clip-path="url(#pc990e66b5a)">
     <use xlink:href="#C0_0_17d30fffbd" x="504.798102" y="391.811533" style="fill: #a2ad00; stroke: #ffffff; stroke-width: 0.72"/>
    </g>
    <g clip-path="url(#pc990e66b5a)">
     <use xlink:href="#C0_0_17d30fffbd" x="205.796986" y="385.390027" style="fill: #a2ad00; stroke: #ffffff; stroke-width: 0.72"/>
    </g>
    <g clip-path="url(#pc990e66b5a)">
     <use xlink:href="#C0_0_17d30fffbd" x="478.271326" y="372.547014" style="fill: #a2ad00; stroke: #ffffff; stroke-width: 0.72"/>
    </g>
    <g clip-path="url(#pc990e66b5a)">
     <use xlink:href="#C0_0_17d30fffbd" x="229.716254" y="616.564255" style="fill: #a2ad00; stroke: #ffffff; stroke-width: 0.72"/>
    </g>
    <g clip-path="url(#pc990e66b5a)">
     <use xlink:href="#C0_0_17d30fffbd" x="312.622696" y="456.026597" style="fill: #a2ad00; stroke: #ffffff; stroke-width: 0.72"/>
    </g>
    <g clip-path="url(#pc990e66b5a)">
     <use xlink:href="#C0_0_17d30fffbd" x="180.789545" y="115.686761" style="fill: #a2ad00; stroke: #ffffff; stroke-width: 0.72"/>
    </g>
   </g>
   <g id="PathCollection_2"/>
   <g id="PathCollection_3"/>
   <g id="PolyCollection_1">
    <defs>
     <path id="m7661d6b979" d="M 147.667576 -1011.479363 
L 147.667576 -570.111458 
L 160.916364 -534.586034 
L 174.165152 -520.918688 
L 187.413939 -510.124439 
L 200.662727 -503.39496 
L 213.911515 -498.068959 
L 227.160303 -490.19204 
L 240.409091 -483.006881 
L 253.657879 -477.541105 
L 266.906667 -471.565609 
L 280.155455 -462.728708 
L 293.404242 -457.497907 
L 306.65303 -448.64322 
L 319.901818 -442.399144 
L 333.150606 -434.453431 
L 346.399394 -423.869037 
L 359.648182 -413.787492 
L 372.89697 -406.820524 
L 386.145758 -398.983203 
L 399.394545 -390.925231 
L 412.643333 -383.052471 
L 425.892121 -376.789049 
L 439.140909 -369.676231 
L 452.389697 -363.058055 
L 465.638485 -357.213747 
L 478.887273 -350.685631 
L 492.136061 -345.357393 
L 505.384848 -340.244369 
L 518.633636 -334.834242 
L 531.882424 -328.818184 
L 545.131212 -323.002677 
L 558.38 -317.37478 
L 571.628788 -311.922826 
L 584.877576 -306.644993 
L 598.126364 -301.974276 
L 611.375152 -297.734703 
L 624.623939 -293.615611 
L 637.872727 -289.607849 
L 651.121515 -285.705558 
L 664.370303 -281.903328 
L 677.619091 -278.206727 
L 690.867879 -274.604776 
L 704.116667 -271.088586 
L 717.365455 -267.65417 
L 730.614242 -264.29781 
L 743.86303 -260.691003 
L 757.111818 -257.462307 
L 770.360606 -254.55945 
L 783.609394 -251.477773 
L 796.858182 -247.827901 
L 810.10697 -244.251026 
L 823.355758 -240.744287 
L 836.604545 -237.304984 
L 849.853333 -233.930574 
L 863.102121 -230.618652 
L 876.350909 -227.366947 
L 889.599697 -224.173308 
L 902.848485 -221.035697 
L 916.097273 -217.952183 
L 929.346061 -214.920931 
L 942.594848 -211.996483 
L 955.843636 -209.191447 
L 969.092424 -206.439088 
L 982.341212 -203.899297 
L 995.59 -201.402566 
L 1008.838788 -198.972192 
L 1022.087576 -196.705338 
L 1035.336364 -194.472318 
L 1048.585152 -192.272135 
L 1061.833939 -190.10419 
L 1075.082727 -187.967314 
L 1088.331515 -185.860533 
L 1101.580303 -183.783013 
L 1114.829091 -181.733952 
L 1128.077879 -179.712581 
L 1141.326667 -177.71816 
L 1154.575455 -175.749982 
L 1167.824242 -173.654608 
L 1181.07303 -171.373054 
L 1194.321818 -169.12038 
L 1207.570606 -166.895864 
L 1220.819394 -164.698811 
L 1234.068182 -162.52855 
L 1247.31697 -160.384437 
L 1260.565758 -158.31461 
L 1273.814545 -156.354911 
L 1287.063333 -154.490427 
L 1300.312121 -152.647966 
L 1313.560909 -150.826506 
L 1326.809697 -149.025511 
L 1340.058485 -147.244527 
L 1353.307273 -145.483113 
L 1366.556061 -143.740846 
L 1379.804848 -142.017312 
L 1393.053636 -140.312113 
L 1406.302424 -138.624863 
L 1419.551212 -136.955189 
L 1432.8 -135.302727 
L 1432.8 -442.264371 
L 1432.8 -442.264371 
L 1419.551212 -442.762854 
L 1406.302424 -443.258195 
L 1393.053636 -443.665151 
L 1379.804848 -444.076435 
L 1366.556061 -444.492142 
L 1353.307273 -444.912367 
L 1340.058485 -445.33721 
L 1326.809697 -445.766774 
L 1313.560909 -446.201163 
L 1300.312121 -446.640489 
L 1287.063333 -447.084865 
L 1273.814545 -447.534408 
L 1260.565758 -447.989239 
L 1247.31697 -448.643139 
L 1234.068182 -449.390151 
L 1220.819394 -450.145757 
L 1207.570606 -450.910692 
L 1194.321818 -451.545946 
L 1181.07303 -451.998931 
L 1167.824242 -452.451969 
L 1154.575455 -452.906137 
L 1141.326667 -453.365334 
L 1128.077879 -453.830654 
L 1114.829091 -454.20294 
L 1101.580303 -454.521454 
L 1088.331515 -454.844391 
L 1075.082727 -455.171877 
L 1061.833939 -455.504041 
L 1048.585152 -456.038836 
L 1035.336364 -456.602446 
L 1022.087576 -457.174468 
L 1008.838788 -457.755157 
L 995.59 -458.415879 
L 982.341212 -459.105484 
L 969.092424 -459.806036 
L 955.843636 -460.517886 
L 942.594848 -461.159367 
L 929.346061 -461.74994 
L 916.097273 -462.350523 
L 902.848485 -462.96146 
L 889.599697 -463.879304 
L 876.350909 -464.969286 
L 863.102121 -465.882092 
L 849.853333 -466.709784 
L 836.604545 -467.53751 
L 823.355758 -468.178728 
L 810.10697 -469.26705 
L 796.858182 -470.181603 
L 783.609394 -471.254069 
L 770.360606 -472.001275 
L 757.111818 -473.569073 
L 743.86303 -474.514105 
L 730.614242 -475.435222 
L 717.365455 -476.340075 
L 704.116667 -477.301604 
L 690.867879 -478.777391 
L 677.619091 -480.442294 
L 664.370303 -481.164387 
L 651.121515 -483.287295 
L 637.872727 -484.723892 
L 624.623939 -487.412958 
L 611.375152 -490.176723 
L 598.126364 -492.756186 
L 584.877576 -494.000848 
L 571.628788 -495.225182 
L 558.38 -497.079706 
L 545.131212 -499.251219 
L 531.882424 -500.686253 
L 518.633636 -501.650782 
L 505.384848 -503.782096 
L 492.136061 -505.587161 
L 478.887273 -508.043965 
L 465.638485 -511.174236 
L 452.389697 -513.845024 
L 439.140909 -517.005846 
L 425.892121 -520.904504 
L 412.643333 -525.051615 
L 399.394545 -528.811865 
L 386.145758 -532.706649 
L 372.89697 -537.470295 
L 359.648182 -542.329685 
L 346.399394 -547.954066 
L 333.150606 -552.954688 
L 319.901818 -559.771965 
L 306.65303 -565.713349 
L 293.404242 -573.642268 
L 280.155455 -583.259069 
L 266.906667 -593.295935 
L 253.657879 -603.907169 
L 240.409091 -617.376607 
L 227.160303 -633.799173 
L 213.911515 -653.24325 
L 200.662727 -678.923235 
L 187.413939 -712.591386 
L 174.165152 -759.934795 
L 160.916364 -835.227098 
L 147.667576 -1011.479363 
z
" style="stroke: #ffffff; stroke-opacity: 0.15; stroke-width: 1.5"/>
    </defs>
    <g clip-path="url(#pc990e66b5a)">
     <use xlink:href="#m7661d6b979" x="0" y="1080" style="fill: #e37222; fill-opacity: 0.15; stroke: #ffffff; stroke-opacity: 0.15; stroke-width: 1.5"/>
    </g>
   </g>
   <g id="PolyCollection_2">
    <defs>
     <path id="m514504800e" d="M 147.667576 -1028.157273 
L 147.667576 -444.055232 
L 160.916364 -497.689301 
L 174.165152 -523.641524 
L 187.413939 -539.669892 
L 200.662727 -549.871829 
L 213.911515 -557.189857 
L 227.160303 -562.664407 
L 240.409091 -561.745498 
L 253.657879 -561.317398 
L 266.906667 -559.771922 
L 280.155455 -556.388259 
L 293.404242 -554.923494 
L 306.65303 -551.837354 
L 319.901818 -548.132065 
L 333.150606 -545.298436 
L 346.399394 -541.21064 
L 359.648182 -537.677064 
L 372.89697 -531.501541 
L 386.145758 -525.723188 
L 399.394545 -522.631859 
L 412.643333 -518.420016 
L 425.892121 -513.228732 
L 439.140909 -509.067111 
L 452.389697 -504.375658 
L 465.638485 -499.454578 
L 478.887273 -496.445837 
L 492.136061 -492.701165 
L 505.384848 -488.807936 
L 518.633636 -485.184421 
L 531.882424 -481.68815 
L 545.131212 -478.339461 
L 558.38 -475.098802 
L 571.628788 -471.699122 
L 584.877576 -468.8914 
L 598.126364 -465.907418 
L 611.375152 -463.018482 
L 624.623939 -460.235196 
L 637.872727 -457.610441 
L 651.121515 -455.697778 
L 664.370303 -453.834159 
L 677.619091 -452.017132 
L 690.867879 -450.244423 
L 704.116667 -448.37942 
L 717.365455 -445.886312 
L 730.614242 -443.449867 
L 743.86303 -441.067564 
L 757.111818 -438.737052 
L 770.360606 -436.414582 
L 783.609394 -433.647515 
L 796.858182 -430.936919 
L 810.10697 -428.280535 
L 823.355758 -425.676236 
L 836.604545 -423.557493 
L 849.853333 -421.637874 
L 863.102121 -419.753803 
L 876.350909 -417.903989 
L 889.599697 -416.087206 
L 902.848485 -414.083979 
L 916.097273 -411.840139 
L 929.346061 -409.63433 
L 942.594848 -407.465284 
L 955.843636 -405.331795 
L 969.092424 -403.232718 
L 982.341212 -401.166959 
L 995.59 -399.133477 
L 1008.838788 -397.131279 
L 1022.087576 -395.159417 
L 1035.336364 -393.216985 
L 1048.585152 -391.303118 
L 1061.833939 -389.416988 
L 1075.082727 -387.557803 
L 1088.331515 -385.724802 
L 1101.580303 -383.91726 
L 1114.829091 -382.134478 
L 1128.077879 -380.375788 
L 1141.326667 -378.640546 
L 1154.575455 -376.928137 
L 1167.824242 -375.237966 
L 1181.07303 -373.569463 
L 1194.321818 -371.922081 
L 1207.570606 -370.29529 
L 1220.819394 -368.688583 
L 1234.068182 -367.10147 
L 1247.31697 -365.536228 
L 1260.565758 -363.991842 
L 1273.814545 -362.465625 
L 1287.063333 -360.957154 
L 1300.312121 -359.466022 
L 1313.560909 -357.991834 
L 1326.809697 -356.53421 
L 1340.058485 -355.092782 
L 1353.307273 -353.667193 
L 1366.556061 -352.257099 
L 1379.804848 -350.862168 
L 1393.053636 -349.482075 
L 1406.302424 -348.11651 
L 1419.551212 -346.76517 
L 1432.8 -345.42776 
L 1432.8 -736.200935 
L 1432.8 -736.200935 
L 1419.551212 -735.637875 
L 1406.302424 -735.068951 
L 1393.053636 -734.494038 
L 1379.804848 -733.913009 
L 1366.556061 -733.325732 
L 1353.307273 -732.732072 
L 1340.058485 -732.131888 
L 1326.809697 -731.525036 
L 1313.560909 -730.911366 
L 1300.312121 -730.290721 
L 1287.063333 -729.662944 
L 1273.814545 -729.027866 
L 1260.565758 -728.385317 
L 1247.31697 -727.735119 
L 1234.068182 -727.075067 
L 1220.819394 -726.405696 
L 1207.570606 -725.728061 
L 1194.321818 -725.041956 
L 1181.07303 -724.347166 
L 1167.824242 -723.643468 
L 1154.575455 -722.930632 
L 1141.326667 -722.208417 
L 1128.077879 -721.476572 
L 1114.829091 -720.734838 
L 1101.580303 -719.982943 
L 1088.331515 -719.220605 
L 1075.082727 -718.44753 
L 1061.833939 -717.663411 
L 1048.585152 -716.867929 
L 1035.336364 -716.060748 
L 1022.087576 -715.24152 
L 1008.838788 -714.40988 
L 995.59 -713.565445 
L 982.341212 -712.707816 
L 969.092424 -711.836574 
L 955.843636 -710.95128 
L 942.594848 -710.02437 
L 929.346061 -708.965691 
L 916.097273 -707.889069 
L 902.848485 -706.793884 
L 889.599697 -705.679486 
L 876.350909 -704.867005 
L 863.102121 -704.070768 
L 849.853333 -703.259785 
L 836.604545 -702.303237 
L 823.355758 -701.257422 
L 810.10697 -700.191102 
L 796.858182 -699.099192 
L 783.609394 -697.978069 
L 770.360606 -696.833589 
L 757.111818 -695.669308 
L 743.86303 -694.485906 
L 730.614242 -693.615139 
L 717.365455 -692.793298 
L 704.116667 -691.68611 
L 690.867879 -690.605477 
L 677.619091 -689.498488 
L 664.370303 -688.67777 
L 651.121515 -688.128589 
L 637.872727 -687.582701 
L 624.623939 -686.58042 
L 611.375152 -685.292381 
L 598.126364 -683.785514 
L 584.877576 -681.714162 
L 571.628788 -680.184325 
L 558.38 -678.989678 
L 545.131212 -678.048092 
L 531.882424 -677.241571 
L 518.633636 -675.930936 
L 505.384848 -674.415118 
L 492.136061 -673.872528 
L 478.887273 -671.15979 
L 465.638485 -670.332797 
L 452.389697 -670.261139 
L 439.140909 -669.970145 
L 425.892121 -668.984631 
L 412.643333 -668.36735 
L 399.394545 -668.636732 
L 386.145758 -669.448906 
L 372.89697 -671.646686 
L 359.648182 -673.783076 
L 346.399394 -678.576432 
L 333.150606 -682.712121 
L 319.901818 -687.406819 
L 306.65303 -693.801822 
L 293.404242 -700.241053 
L 280.155455 -706.80116 
L 266.906667 -715.13855 
L 253.657879 -725.759702 
L 240.409091 -736.495768 
L 227.160303 -749.762297 
L 213.911515 -767.836299 
L 200.662727 -787.387672 
L 187.413939 -811.279101 
L 174.165152 -845.881346 
L 160.916364 -900.861132 
L 147.667576 -1028.157273 
z
" style="stroke: #ffffff; stroke-opacity: 0.15; stroke-width: 1.5"/>
    </defs>
    <g clip-path="url(#pc990e66b5a)">
     <use xlink:href="#m514504800e" x="0" y="1080" style="fill: #a2ad00; fill-opacity: 0.15; stroke: #ffffff; stroke-opacity: 0.15; stroke-width: 1.5"/>
    </g>
   </g>
   <g id="line2d_63">
    <path d="M 147.667576 300.589598 
L 160.916364 390.226316 
L 174.165152 432.000088 
L 187.413939 459.532338 
L 200.662727 480.102358 
L 213.911515 496.529985 
L 227.160303 510.207166 
L 240.409091 521.924163 
L 253.657879 532.173043 
L 266.906667 541.281083 
L 280.155455 549.477016 
L 293.404242 556.927008 
L 306.65303 563.755588 
L 319.901818 570.058486 
L 333.150606 575.910885 
L 346.399394 581.372911 
L 359.648182 586.493401 
L 372.89697 591.312565 
L 386.145758 595.863905 
L 399.394545 600.175629 
L 412.643333 604.27171 
L 425.892121 608.172695 
L 439.140909 611.896327 
L 452.389697 615.458032 
L 465.638485 618.87131 
L 478.887273 622.148038 
L 492.136061 625.298722 
L 505.384848 628.332701 
L 518.633636 631.258312 
L 531.882424 634.083032 
L 545.131212 636.813588 
L 558.38 639.456054 
L 571.628788 642.015939 
L 584.877576 644.498247 
L 598.126364 646.907542 
L 611.375152 649.247997 
L 624.623939 651.523437 
L 637.872727 653.737377 
L 651.121515 655.893053 
L 664.370303 657.993454 
L 677.619091 660.041344 
L 690.867879 662.039284 
L 704.116667 663.989654 
L 717.365455 665.894665 
L 730.614242 667.756381 
L 743.86303 669.576724 
L 757.111818 671.357494 
L 770.360606 673.100376 
L 783.609394 674.806947 
L 796.858182 676.47869 
L 810.10697 678.116998 
L 823.355758 679.723183 
L 836.604545 681.298479 
L 849.853333 682.844053 
L 863.102121 684.361006 
L 876.350909 685.850377 
L 889.599697 687.313153 
L 902.848485 688.750266 
L 916.097273 690.162602 
L 929.346061 691.550999 
L 942.594848 692.916257 
L 955.843636 694.259134 
L 969.092424 695.580352 
L 982.341212 696.880599 
L 995.59 698.160529 
L 1008.838788 699.420768 
L 1022.087576 700.661913 
L 1035.336364 701.884533 
L 1048.585152 703.089174 
L 1061.833939 704.276357 
L 1075.082727 705.44658 
L 1088.331515 706.600322 
L 1101.580303 707.738039 
L 1114.829091 708.860172 
L 1128.077879 709.96714 
L 1141.326667 711.05935 
L 1154.575455 712.137188 
L 1167.824242 713.201029 
L 1181.07303 714.251231 
L 1194.321818 715.288139 
L 1207.570606 716.312086 
L 1220.819394 717.323393 
L 1234.068182 718.322366 
L 1247.31697 719.309304 
L 1260.565758 720.284492 
L 1273.814545 721.248208 
L 1287.063333 722.200718 
L 1300.312121 723.14228 
L 1313.560909 724.073143 
L 1326.809697 724.993546 
L 1340.058485 725.903723 
L 1353.307273 726.803899 
L 1366.556061 727.694289 
L 1379.804848 728.575106 
L 1393.053636 729.446553 
L 1406.302424 730.308827 
L 1419.551212 731.162119 
L 1432.8 732.006614 
" clip-path="url(#pc990e66b5a)" style="fill: none; stroke: #e37222; stroke-width: 3.375; stroke-linecap: round"/>
   </g>
   <g id="line2d_64">
    <path d="M 147.667576 292.234185 
L 160.916364 347.976492 
L 174.165152 373.95431 
L 187.413939 391.075766 
L 200.662727 403.867626 
L 213.911515 414.08346 
L 227.160303 422.588876 
L 240.409091 429.875315 
L 253.657879 436.248777 
L 266.906667 441.912785 
L 280.155455 447.009583 
L 293.404242 451.642503 
L 306.65303 455.888986 
L 319.901818 459.808563 
L 333.150606 463.44799 
L 346.399394 466.844655 
L 359.648182 470.02893 
L 372.89697 473.025819 
L 386.145758 475.856157 
L 399.394545 478.537485 
L 412.643333 481.084711 
L 425.892121 483.510613 
L 439.140909 485.826225 
L 452.389697 488.041139 
L 465.638485 490.163751 
L 478.887273 492.201447 
L 492.136061 494.16076 
L 505.384848 496.047498 
L 518.633636 497.866845 
L 531.882424 499.623451 
L 545.131212 501.321499 
L 558.38 502.964768 
L 571.628788 504.556681 
L 584.877576 506.100352 
L 598.126364 507.598618 
L 611.375152 509.054075 
L 624.623939 510.469101 
L 637.872727 511.845881 
L 651.121515 513.18643 
L 664.370303 514.492604 
L 677.619091 515.766124 
L 690.867879 517.008581 
L 704.116667 518.221456 
L 717.365455 519.406124 
L 730.614242 520.563867 
L 743.86303 521.695882 
L 757.111818 522.803288 
L 770.360606 523.887132 
L 783.609394 524.948396 
L 796.858182 525.988002 
L 810.10697 527.006815 
L 823.355758 528.005652 
L 836.604545 528.98528 
L 849.853333 529.946424 
L 863.102121 530.88977 
L 876.350909 531.815964 
L 889.599697 532.725619 
L 902.848485 533.619316 
L 916.097273 534.497603 
L 929.346061 535.361005 
L 942.594848 536.210017 
L 955.843636 537.045111 
L 969.092424 537.866735 
L 982.341212 538.675318 
L 995.59 539.471267 
L 1008.838788 540.254971 
L 1022.087576 541.026801 
L 1035.336364 541.787111 
L 1048.585152 542.53624 
L 1061.833939 543.274512 
L 1075.082727 544.002238 
L 1088.331515 544.719714 
L 1101.580303 545.427225 
L 1114.829091 546.125045 
L 1128.077879 546.813434 
L 1141.326667 547.492646 
L 1154.575455 548.16292 
L 1167.824242 548.82449 
L 1181.07303 549.477578 
L 1194.321818 550.122399 
L 1207.570606 550.75916 
L 1220.819394 551.38806 
L 1234.068182 552.009291 
L 1247.31697 552.623037 
L 1260.565758 553.229477 
L 1273.814545 553.828782 
L 1287.063333 554.421119 
L 1300.312121 555.006647 
L 1313.560909 555.585522 
L 1326.809697 556.157892 
L 1340.058485 556.723903 
L 1353.307273 557.283694 
L 1366.556061 557.837401 
L 1379.804848 558.385154 
L 1393.053636 558.92708 
L 1406.302424 559.463301 
L 1419.551212 559.993937 
L 1432.8 560.519102 
" clip-path="url(#pc990e66b5a)" style="fill: none; stroke: #a2ad00; stroke-width: 3.375; stroke-linecap: round"/>
   </g>
   <g id="patch_3">
    <path d="M 121.17 989.34 
L 121.17 7.2 
" style="fill: none; stroke: #cccccc; stroke-width: 1.875; stroke-linejoin: miter; stroke-linecap: square"/>
   </g>
   <g id="patch_4">
    <path d="M 1432.8 989.34 
L 1432.8 7.2 
" style="fill: none; stroke: #cccccc; stroke-width: 1.875; stroke-linejoin: miter; stroke-linecap: square"/>
   </g>
   <g id="patch_5">
    <path d="M 121.17 989.34 
L 1432.8 989.34 
" style="fill: none; stroke: #cccccc; stroke-width: 1.875; stroke-linejoin: miter; stroke-linecap: square"/>
   </g>
   <g id="patch_6">
    <path d="M 121.17 7.2 
L 1432.8 7.2 
" style="fill: none; stroke: #cccccc; stroke-width: 1.875; stroke-linejoin: miter; stroke-linecap: square"/>
   </g>
   <g id="legend_1">
    <g id="patch_7">
     <path d="M 701.184844 227.35125 
L 1409.7 227.35125 
Q 1416.3 227.35125 1416.3 220.75125 
L 1416.3 30.3 
Q 1416.3 23.7 1409.7 23.7 
L 701.184844 23.7 
Q 694.584844 23.7 694.584844 30.3 
L 694.584844 220.75125 
Q 694.584844 227.35125 701.184844 227.35125 
z
" style="fill: #ffffff; opacity: 0.8; stroke: #cccccc; stroke-width: 1.5; stroke-linejoin: miter"/>
    </g>
    <g id="PathCollection_4">
     <defs>
      <path id="mfbc1350d8a" d="M 0 4.5 
C 1.193414 4.5 2.338109 4.025852 3.181981 3.181981 
C 4.025852 2.338109 4.5 1.193414 4.5 0 
C 4.5 -1.193414 4.025852 -2.338109 3.181981 -3.181981 
C 2.338109 -4.025852 1.193414 -4.5 0 -4.5 
C -1.193414 -4.5 -2.338109 -4.025852 -3.181981 -3.181981 
C -4.025852 -2.338109 -4.5 -1.193414 -4.5 0 
C -4.5 1.193414 -4.025852 2.338109 -3.181981 3.181981 
C -2.338109 4.025852 -1.193414 4.5 0 4.5 
z
" style="stroke: #e37222; stroke-width: 1.5"/>
     </defs>
     <g>
      <use xlink:href="#mfbc1350d8a" x="740.784844" y="53.312344" style="fill: #e37222; stroke: #e37222; stroke-width: 1.5"/>
     </g>
    </g>
    <g id="text_17">
     <!-- dynamic -->
     <g style="fill: #262626" transform="translate(800.184844 61.974844) scale(0.33 -0.33)">
      <defs>
       <path id="DejaVuSans-64" d="M 2906 2969 
L 2906 4863 
L 3481 4863 
L 3481 0 
L 2906 0 
L 2906 525 
Q 2725 213 2448 61 
Q 2172 -91 1784 -91 
Q 1150 -91 751 415 
Q 353 922 353 1747 
Q 353 2572 751 3078 
Q 1150 3584 1784 3584 
Q 2172 3584 2448 3432 
Q 2725 3281 2906 2969 
z
M 947 1747 
Q 947 1113 1208 752 
Q 1469 391 1925 391 
Q 2381 391 2643 752 
Q 2906 1113 2906 1747 
Q 2906 2381 2643 2742 
Q 2381 3103 1925 3103 
Q 1469 3103 1208 2742 
Q 947 2381 947 1747 
z
" transform="scale(0.015625)"/>
       <path id="DejaVuSans-79" d="M 2059 -325 
Q 1816 -950 1584 -1140 
Q 1353 -1331 966 -1331 
L 506 -1331 
L 506 -850 
L 844 -850 
Q 1081 -850 1212 -737 
Q 1344 -625 1503 -206 
L 1606 56 
L 191 3500 
L 800 3500 
L 1894 763 
L 2988 3500 
L 3597 3500 
L 2059 -325 
z
" transform="scale(0.015625)"/>
       <path id="DejaVuSans-63" d="M 3122 3366 
L 3122 2828 
Q 2878 2963 2633 3030 
Q 2388 3097 2138 3097 
Q 1578 3097 1268 2742 
Q 959 2388 959 1747 
Q 959 1106 1268 751 
Q 1578 397 2138 397 
Q 2388 397 2633 464 
Q 2878 531 3122 666 
L 3122 134 
Q 2881 22 2623 -34 
Q 2366 -91 2075 -91 
Q 1284 -91 818 406 
Q 353 903 353 1747 
Q 353 2603 823 3093 
Q 1294 3584 2113 3584 
Q 2378 3584 2631 3529 
Q 2884 3475 3122 3366 
z
" transform="scale(0.015625)"/>
      </defs>
      <use xlink:href="#DejaVuSans-64"/>
      <use xlink:href="#DejaVuSans-79" x="63.476562"/>
      <use xlink:href="#DejaVuSans-6e" x="122.65625"/>
      <use xlink:href="#DejaVuSans-61" x="186.035156"/>
      <use xlink:href="#DejaVuSans-6d" x="247.314453"/>
      <use xlink:href="#DejaVuSans-69" x="344.726562"/>
      <use xlink:href="#DejaVuSans-63" x="372.509766"/>
     </g>
    </g>
    <g id="PathCollection_5">
     <defs>
      <path id="mfd4f94833c" d="M 0 4.5 
C 1.193414 4.5 2.338109 4.025852 3.181981 3.181981 
C 4.025852 2.338109 4.5 1.193414 4.5 0 
C 4.5 -1.193414 4.025852 -2.338109 3.181981 -3.181981 
C 2.338109 -4.025852 1.193414 -4.5 0 -4.5 
C -1.193414 -4.5 -2.338109 -4.025852 -3.181981 -3.181981 
C -4.025852 -2.338109 -4.5 -1.193414 -4.5 0 
C -4.5 1.193414 -4.025852 2.338109 -3.181981 3.181981 
C -2.338109 4.025852 -1.193414 4.5 0 4.5 
z
" style="stroke: #a2ad00; stroke-width: 1.5"/>
     </defs>
     <g>
      <use xlink:href="#mfd4f94833c" x="740.784844" y="101.750156" style="fill: #a2ad00; stroke: #a2ad00; stroke-width: 1.5"/>
     </g>
    </g>
    <g id="text_18">
     <!-- static -->
     <g style="fill: #262626" transform="translate(800.184844 110.412656) scale(0.33 -0.33)">
      <use xlink:href="#DejaVuSans-73"/>
      <use xlink:href="#DejaVuSans-74" x="52.099609"/>
      <use xlink:href="#DejaVuSans-61" x="91.308594"/>
      <use xlink:href="#DejaVuSans-74" x="152.587891"/>
      <use xlink:href="#DejaVuSans-69" x="191.796875"/>
      <use xlink:href="#DejaVuSans-63" x="219.580078"/>
     </g>
    </g>
    <g id="line2d_65">
     <path d="M 707.784844 147.300469 
L 740.784844 147.300469 
L 773.784844 147.300469 
" style="fill: none; stroke: #e37222; stroke-width: 3.375; stroke-linecap: round"/>
    </g>
    <g id="text_19">
     <!-- dynamic - linear regression x~log(y) -->
     <g style="fill: #262626" transform="translate(800.184844 158.850469) scale(0.33 -0.33)">
      <defs>
       <path id="DejaVuSans-78" d="M 3513 3500 
L 2247 1797 
L 3578 0 
L 2900 0 
L 1881 1375 
L 863 0 
L 184 0 
L 1544 1831 
L 300 3500 
L 978 3500 
L 1906 2253 
L 2834 3500 
L 3513 3500 
z
" transform="scale(0.015625)"/>
       <path id="DejaVuSans-7e" d="M 4684 2553 
L 4684 1997 
Q 4356 1750 4076 1644 
Q 3797 1538 3494 1538 
Q 3150 1538 2694 1722 
Q 2659 1734 2644 1741 
Q 2622 1750 2575 1766 
Q 2091 1959 1797 1959 
Q 1522 1959 1253 1839 
Q 984 1719 678 1459 
L 678 2016 
Q 1006 2263 1286 2370 
Q 1566 2478 1869 2478 
Q 2213 2478 2672 2291 
Q 2703 2278 2719 2272 
Q 2744 2263 2788 2247 
Q 3272 2053 3566 2053 
Q 3834 2053 4098 2172 
Q 4363 2291 4684 2553 
z
" transform="scale(0.015625)"/>
       <path id="DejaVuSans-28" d="M 1984 4856 
Q 1566 4138 1362 3434 
Q 1159 2731 1159 2009 
Q 1159 1288 1364 580 
Q 1569 -128 1984 -844 
L 1484 -844 
Q 1016 -109 783 600 
Q 550 1309 550 2009 
Q 550 2706 781 3412 
Q 1013 4119 1484 4856 
L 1984 4856 
z
" transform="scale(0.015625)"/>
       <path id="DejaVuSans-29" d="M 513 4856 
L 1013 4856 
Q 1481 4119 1714 3412 
Q 1947 2706 1947 2009 
Q 1947 1309 1714 600 
Q 1481 -109 1013 -844 
L 513 -844 
Q 928 -128 1133 580 
Q 1338 1288 1338 2009 
Q 1338 2731 1133 3434 
Q 928 4138 513 4856 
z
" transform="scale(0.015625)"/>
      </defs>
      <use xlink:href="#DejaVuSans-64"/>
      <use xlink:href="#DejaVuSans-79" x="63.476562"/>
      <use xlink:href="#DejaVuSans-6e" x="122.65625"/>
      <use xlink:href="#DejaVuSans-61" x="186.035156"/>
      <use xlink:href="#DejaVuSans-6d" x="247.314453"/>
      <use xlink:href="#DejaVuSans-69" x="344.726562"/>
      <use xlink:href="#DejaVuSans-63" x="372.509766"/>
      <use xlink:href="#DejaVuSans-20" x="427.490234"/>
      <use xlink:href="#DejaVuSans-2d" x="459.277344"/>
      <use xlink:href="#DejaVuSans-20" x="495.361328"/>
      <use xlink:href="#DejaVuSans-6c" x="527.148438"/>
      <use xlink:href="#DejaVuSans-69" x="554.931641"/>
      <use xlink:href="#DejaVuSans-6e" x="582.714844"/>
      <use xlink:href="#DejaVuSans-65" x="646.09375"/>
      <use xlink:href="#DejaVuSans-61" x="707.617188"/>
      <use xlink:href="#DejaVuSans-72" x="768.896484"/>
      <use xlink:href="#DejaVuSans-20" x="810.009766"/>
      <use xlink:href="#DejaVuSans-72" x="841.796875"/>
      <use xlink:href="#DejaVuSans-65" x="880.660156"/>
      <use xlink:href="#DejaVuSans-67" x="942.183594"/>
      <use xlink:href="#DejaVuSans-72" x="1005.660156"/>
      <use xlink:href="#DejaVuSans-65" x="1044.523438"/>
      <use xlink:href="#DejaVuSans-73" x="1106.046875"/>
      <use xlink:href="#DejaVuSans-73" x="1158.146484"/>
      <use xlink:href="#DejaVuSans-69" x="1210.246094"/>
      <use xlink:href="#DejaVuSans-6f" x="1238.029297"/>
      <use xlink:href="#DejaVuSans-6e" x="1299.210938"/>
      <use xlink:href="#DejaVuSans-20" x="1362.589844"/>
      <use xlink:href="#DejaVuSans-78" x="1394.376953"/>
      <use xlink:href="#DejaVuSans-7e" x="1453.556641"/>
      <use xlink:href="#DejaVuSans-6c" x="1537.345703"/>
      <use xlink:href="#DejaVuSans-6f" x="1565.128906"/>
      <use xlink:href="#DejaVuSans-67" x="1626.310547"/>
      <use xlink:href="#DejaVuSans-28" x="1689.787109"/>
      <use xlink:href="#DejaVuSans-79" x="1728.800781"/>
      <use xlink:href="#DejaVuSans-29" x="1787.980469"/>
     </g>
    </g>
    <g id="line2d_66">
     <path d="M 707.784844 195.738281 
L 740.784844 195.738281 
L 773.784844 195.738281 
" style="fill: none; stroke: #a2ad00; stroke-width: 3.375; stroke-linecap: round"/>
    </g>
    <g id="text_20">
     <!-- static - linear regression x~log(y) -->
     <g style="fill: #262626" transform="translate(800.184844 207.288281) scale(0.33 -0.33)">
      <use xlink:href="#DejaVuSans-73"/>
      <use xlink:href="#DejaVuSans-74" x="52.099609"/>
      <use xlink:href="#DejaVuSans-61" x="91.308594"/>
      <use xlink:href="#DejaVuSans-74" x="152.587891"/>
      <use xlink:href="#DejaVuSans-69" x="191.796875"/>
      <use xlink:href="#DejaVuSans-63" x="219.580078"/>
      <use xlink:href="#DejaVuSans-20" x="274.560547"/>
      <use xlink:href="#DejaVuSans-2d" x="306.347656"/>
      <use xlink:href="#DejaVuSans-20" x="342.431641"/>
      <use xlink:href="#DejaVuSans-6c" x="374.21875"/>
      <use xlink:href="#DejaVuSans-69" x="402.001953"/>
      <use xlink:href="#DejaVuSans-6e" x="429.785156"/>
      <use xlink:href="#DejaVuSans-65" x="493.164062"/>
      <use xlink:href="#DejaVuSans-61" x="554.6875"/>
      <use xlink:href="#DejaVuSans-72" x="615.966797"/>
      <use xlink:href="#DejaVuSans-20" x="657.080078"/>
      <use xlink:href="#DejaVuSans-72" x="688.867188"/>
      <use xlink:href="#DejaVuSans-65" x="727.730469"/>
      <use xlink:href="#DejaVuSans-67" x="789.253906"/>
      <use xlink:href="#DejaVuSans-72" x="852.730469"/>
      <use xlink:href="#DejaVuSans-65" x="891.59375"/>
      <use xlink:href="#DejaVuSans-73" x="953.117188"/>
      <use xlink:href="#DejaVuSans-73" x="1005.216797"/>
      <use xlink:href="#DejaVuSans-69" x="1057.316406"/>
      <use xlink:href="#DejaVuSans-6f" x="1085.099609"/>
      <use xlink:href="#DejaVuSans-6e" x="1146.28125"/>
      <use xlink:href="#DejaVuSans-20" x="1209.660156"/>
      <use xlink:href="#DejaVuSans-78" x="1241.447266"/>
      <use xlink:href="#DejaVuSans-7e" x="1300.626953"/>
      <use xlink:href="#DejaVuSans-6c" x="1384.416016"/>
      <use xlink:href="#DejaVuSans-6f" x="1412.199219"/>
      <use xlink:href="#DejaVuSans-67" x="1473.380859"/>
      <use xlink:href="#DejaVuSans-28" x="1536.857422"/>
      <use xlink:href="#DejaVuSans-79" x="1575.871094"/>
      <use xlink:href="#DejaVuSans-29" x="1635.050781"/>
     </g>
    </g>
   </g>
  </g>
 </g>
 <defs>
  <clipPath id="pc990e66b5a">
   <rect x="121.17" y="7.2" width="1311.63" height="982.14"/>
  </clipPath>
 </defs>
</svg>
