<?xml version="1.0" encoding="utf-8" standalone="no"?>
<!DOCTYPE svg PUBLIC "-//W3C//DTD SVG 1.1//EN"
  "http://www.w3.org/Graphics/SVG/1.1/DTD/svg11.dtd">
<svg xmlns:xlink="http://www.w3.org/1999/xlink" width="1440pt" height="1080pt" viewBox="0 0 1440 1080" xmlns="http://www.w3.org/2000/svg" version="1.1">
 <metadata>
  <rdf:RDF xmlns:dc="http://purl.org/dc/elements/1.1/" xmlns:cc="http://creativecommons.org/ns#" xmlns:rdf="http://www.w3.org/1999/02/22-rdf-syntax-ns#">
   <cc:Work>
    <dc:type rdf:resource="http://purl.org/dc/dcmitype/StillImage"/>
    <dc:date>2023-09-01T11:00:04.423703</dc:date>
    <dc:format>image/svg+xml</dc:format>
    <dc:creator>
     <cc:Agent>
      <dc:title>Matplotlib v3.7.1, https://matplotlib.org/</dc:title>
     </cc:Agent>
    </dc:creator>
   </cc:Work>
  </rdf:RDF>
 </metadata>
 <defs>
  <style type="text/css">*{stroke-linejoin: round; stroke-linecap: butt}</style>
 </defs>
 <g id="figure_1">
  <g id="patch_1">
   <path d="M 0 1080 
L 1440 1080 
L 1440 0 
L 0 0 
z
" style="fill: #ffffff"/>
  </g>
  <g id="axes_1">
   <g id="patch_2">
    <path d="M 121.17 989.34 
L 1432.8 989.34 
L 1432.8 7.2 
L 121.17 7.2 
z
" style="fill: #ffffff"/>
   </g>
   <g id="matplotlib.axis_1">
    <g id="xtick_1">
     <g id="line2d_1">
      <path d="M 350.443611 989.34 
L 350.443611 7.2 
" clip-path="url(#p99a2884600)" style="fill: none; stroke: #cccccc; stroke-linecap: round"/>
     </g>
     <g id="text_1">
      <!-- 200 -->
      <g style="fill: #262626" transform="translate(318.949236 1026.914844) scale(0.33 -0.33)">
       <defs>
        <path id="DejaVuSans-32" d="M 1228 531 
L 3431 531 
L 3431 0 
L 469 0 
L 469 531 
Q 828 903 1448 1529 
Q 2069 2156 2228 2338 
Q 2531 2678 2651 2914 
Q 2772 3150 2772 3378 
Q 2772 3750 2511 3984 
Q 2250 4219 1831 4219 
Q 1534 4219 1204 4116 
Q 875 4013 500 3803 
L 500 4441 
Q 881 4594 1212 4672 
Q 1544 4750 1819 4750 
Q 2544 4750 2975 4387 
Q 3406 4025 3406 3419 
Q 3406 3131 3298 2873 
Q 3191 2616 2906 2266 
Q 2828 2175 2409 1742 
Q 1991 1309 1228 531 
z
" transform="scale(0.015625)"/>
        <path id="DejaVuSans-30" d="M 2034 4250 
Q 1547 4250 1301 3770 
Q 1056 3291 1056 2328 
Q 1056 1369 1301 889 
Q 1547 409 2034 409 
Q 2525 409 2770 889 
Q 3016 1369 3016 2328 
Q 3016 3291 2770 3770 
Q 2525 4250 2034 4250 
z
M 2034 4750 
Q 2819 4750 3233 4129 
Q 3647 3509 3647 2328 
Q 3647 1150 3233 529 
Q 2819 -91 2034 -91 
Q 1250 -91 836 529 
Q 422 1150 422 2328 
Q 422 3509 836 4129 
Q 1250 4750 2034 4750 
z
" transform="scale(0.015625)"/>
       </defs>
       <use xlink:href="#DejaVuSans-32"/>
       <use xlink:href="#DejaVuSans-30" x="63.623047"/>
       <use xlink:href="#DejaVuSans-30" x="127.246094"/>
      </g>
     </g>
    </g>
    <g id="xtick_2">
     <g id="line2d_2">
      <path d="M 594.111928 989.34 
L 594.111928 7.2 
" clip-path="url(#p99a2884600)" style="fill: none; stroke: #cccccc; stroke-linecap: round"/>
     </g>
     <g id="text_2">
      <!-- 400 -->
      <g style="fill: #262626" transform="translate(562.617553 1026.914844) scale(0.33 -0.33)">
       <defs>
        <path id="DejaVuSans-34" d="M 2419 4116 
L 825 1625 
L 2419 1625 
L 2419 4116 
z
M 2253 4666 
L 3047 4666 
L 3047 1625 
L 3713 1625 
L 3713 1100 
L 3047 1100 
L 3047 0 
L 2419 0 
L 2419 1100 
L 313 1100 
L 313 1709 
L 2253 4666 
z
" transform="scale(0.015625)"/>
       </defs>
       <use xlink:href="#DejaVuSans-34"/>
       <use xlink:href="#DejaVuSans-30" x="63.623047"/>
       <use xlink:href="#DejaVuSans-30" x="127.246094"/>
      </g>
     </g>
    </g>
    <g id="xtick_3">
     <g id="line2d_3">
      <path d="M 837.780245 989.34 
L 837.780245 7.2 
" clip-path="url(#p99a2884600)" style="fill: none; stroke: #cccccc; stroke-linecap: round"/>
     </g>
     <g id="text_3">
      <!-- 600 -->
      <g style="fill: #262626" transform="translate(806.28587 1026.914844) scale(0.33 -0.33)">
       <defs>
        <path id="DejaVuSans-36" d="M 2113 2584 
Q 1688 2584 1439 2293 
Q 1191 2003 1191 1497 
Q 1191 994 1439 701 
Q 1688 409 2113 409 
Q 2538 409 2786 701 
Q 3034 994 3034 1497 
Q 3034 2003 2786 2293 
Q 2538 2584 2113 2584 
z
M 3366 4563 
L 3366 3988 
Q 3128 4100 2886 4159 
Q 2644 4219 2406 4219 
Q 1781 4219 1451 3797 
Q 1122 3375 1075 2522 
Q 1259 2794 1537 2939 
Q 1816 3084 2150 3084 
Q 2853 3084 3261 2657 
Q 3669 2231 3669 1497 
Q 3669 778 3244 343 
Q 2819 -91 2113 -91 
Q 1303 -91 875 529 
Q 447 1150 447 2328 
Q 447 3434 972 4092 
Q 1497 4750 2381 4750 
Q 2619 4750 2861 4703 
Q 3103 4656 3366 4563 
z
" transform="scale(0.015625)"/>
       </defs>
       <use xlink:href="#DejaVuSans-36"/>
       <use xlink:href="#DejaVuSans-30" x="63.623047"/>
       <use xlink:href="#DejaVuSans-30" x="127.246094"/>
      </g>
     </g>
    </g>
    <g id="xtick_4">
     <g id="line2d_4">
      <path d="M 1081.448562 989.34 
L 1081.448562 7.2 
" clip-path="url(#p99a2884600)" style="fill: none; stroke: #cccccc; stroke-linecap: round"/>
     </g>
     <g id="text_4">
      <!-- 800 -->
      <g style="fill: #262626" transform="translate(1049.954187 1026.914844) scale(0.33 -0.33)">
       <defs>
        <path id="DejaVuSans-38" d="M 2034 2216 
Q 1584 2216 1326 1975 
Q 1069 1734 1069 1313 
Q 1069 891 1326 650 
Q 1584 409 2034 409 
Q 2484 409 2743 651 
Q 3003 894 3003 1313 
Q 3003 1734 2745 1975 
Q 2488 2216 2034 2216 
z
M 1403 2484 
Q 997 2584 770 2862 
Q 544 3141 544 3541 
Q 544 4100 942 4425 
Q 1341 4750 2034 4750 
Q 2731 4750 3128 4425 
Q 3525 4100 3525 3541 
Q 3525 3141 3298 2862 
Q 3072 2584 2669 2484 
Q 3125 2378 3379 2068 
Q 3634 1759 3634 1313 
Q 3634 634 3220 271 
Q 2806 -91 2034 -91 
Q 1263 -91 848 271 
Q 434 634 434 1313 
Q 434 1759 690 2068 
Q 947 2378 1403 2484 
z
M 1172 3481 
Q 1172 3119 1398 2916 
Q 1625 2713 2034 2713 
Q 2441 2713 2670 2916 
Q 2900 3119 2900 3481 
Q 2900 3844 2670 4047 
Q 2441 4250 2034 4250 
Q 1625 4250 1398 4047 
Q 1172 3844 1172 3481 
z
" transform="scale(0.015625)"/>
       </defs>
       <use xlink:href="#DejaVuSans-38"/>
       <use xlink:href="#DejaVuSans-30" x="63.623047"/>
       <use xlink:href="#DejaVuSans-30" x="127.246094"/>
      </g>
     </g>
    </g>
    <g id="xtick_5">
     <g id="line2d_5">
      <path d="M 1325.116879 989.34 
L 1325.116879 7.2 
" clip-path="url(#p99a2884600)" style="fill: none; stroke: #cccccc; stroke-linecap: round"/>
     </g>
     <g id="text_5">
      <!-- 1000 -->
      <g style="fill: #262626" transform="translate(1283.124379 1026.914844) scale(0.33 -0.33)">
       <defs>
        <path id="DejaVuSans-31" d="M 794 531 
L 1825 531 
L 1825 4091 
L 703 3866 
L 703 4441 
L 1819 4666 
L 2450 4666 
L 2450 531 
L 3481 531 
L 3481 0 
L 794 0 
L 794 531 
z
" transform="scale(0.015625)"/>
       </defs>
       <use xlink:href="#DejaVuSans-31"/>
       <use xlink:href="#DejaVuSans-30" x="63.623047"/>
       <use xlink:href="#DejaVuSans-30" x="127.246094"/>
       <use xlink:href="#DejaVuSans-30" x="190.869141"/>
      </g>
     </g>
    </g>
    <g id="xtick_6">
     <g id="line2d_6">
      <path d="M 167.692373 989.34 
L 167.692373 7.2 
" clip-path="url(#p99a2884600)" style="fill: none; stroke: #cccccc; stroke-width: 0.5; stroke-linecap: round"/>
     </g>
    </g>
    <g id="xtick_7">
     <g id="line2d_7">
      <path d="M 228.609453 989.34 
L 228.609453 7.2 
" clip-path="url(#p99a2884600)" style="fill: none; stroke: #cccccc; stroke-width: 0.5; stroke-linecap: round"/>
     </g>
    </g>
    <g id="xtick_8">
     <g id="line2d_8">
      <path d="M 289.526532 989.34 
L 289.526532 7.2 
" clip-path="url(#p99a2884600)" style="fill: none; stroke: #cccccc; stroke-width: 0.5; stroke-linecap: round"/>
     </g>
    </g>
    <g id="xtick_9">
     <g id="line2d_9">
      <path d="M 411.36069 989.34 
L 411.36069 7.2 
" clip-path="url(#p99a2884600)" style="fill: none; stroke: #cccccc; stroke-width: 0.5; stroke-linecap: round"/>
     </g>
    </g>
    <g id="xtick_10">
     <g id="line2d_10">
      <path d="M 472.27777 989.34 
L 472.27777 7.2 
" clip-path="url(#p99a2884600)" style="fill: none; stroke: #cccccc; stroke-width: 0.5; stroke-linecap: round"/>
     </g>
    </g>
    <g id="xtick_11">
     <g id="line2d_11">
      <path d="M 533.194849 989.34 
L 533.194849 7.2 
" clip-path="url(#p99a2884600)" style="fill: none; stroke: #cccccc; stroke-width: 0.5; stroke-linecap: round"/>
     </g>
    </g>
    <g id="xtick_12">
     <g id="line2d_12">
      <path d="M 655.029007 989.34 
L 655.029007 7.2 
" clip-path="url(#p99a2884600)" style="fill: none; stroke: #cccccc; stroke-width: 0.5; stroke-linecap: round"/>
     </g>
    </g>
    <g id="xtick_13">
     <g id="line2d_13">
      <path d="M 715.946087 989.34 
L 715.946087 7.2 
" clip-path="url(#p99a2884600)" style="fill: none; stroke: #cccccc; stroke-width: 0.5; stroke-linecap: round"/>
     </g>
    </g>
    <g id="xtick_14">
     <g id="line2d_14">
      <path d="M 776.863166 989.34 
L 776.863166 7.2 
" clip-path="url(#p99a2884600)" style="fill: none; stroke: #cccccc; stroke-width: 0.5; stroke-linecap: round"/>
     </g>
    </g>
    <g id="xtick_15">
     <g id="line2d_15">
      <path d="M 898.697324 989.34 
L 898.697324 7.2 
" clip-path="url(#p99a2884600)" style="fill: none; stroke: #cccccc; stroke-width: 0.5; stroke-linecap: round"/>
     </g>
    </g>
    <g id="xtick_16">
     <g id="line2d_16">
      <path d="M 959.614404 989.34 
L 959.614404 7.2 
" clip-path="url(#p99a2884600)" style="fill: none; stroke: #cccccc; stroke-width: 0.5; stroke-linecap: round"/>
     </g>
    </g>
    <g id="xtick_17">
     <g id="line2d_17">
      <path d="M 1020.531483 989.34 
L 1020.531483 7.2 
" clip-path="url(#p99a2884600)" style="fill: none; stroke: #cccccc; stroke-width: 0.5; stroke-linecap: round"/>
     </g>
    </g>
    <g id="xtick_18">
     <g id="line2d_18">
      <path d="M 1142.365641 989.34 
L 1142.365641 7.2 
" clip-path="url(#p99a2884600)" style="fill: none; stroke: #cccccc; stroke-width: 0.5; stroke-linecap: round"/>
     </g>
    </g>
    <g id="xtick_19">
     <g id="line2d_19">
      <path d="M 1203.282721 989.34 
L 1203.282721 7.2 
" clip-path="url(#p99a2884600)" style="fill: none; stroke: #cccccc; stroke-width: 0.5; stroke-linecap: round"/>
     </g>
    </g>
    <g id="xtick_20">
     <g id="line2d_20">
      <path d="M 1264.1998 989.34 
L 1264.1998 7.2 
" clip-path="url(#p99a2884600)" style="fill: none; stroke: #cccccc; stroke-width: 0.5; stroke-linecap: round"/>
     </g>
    </g>
    <g id="xtick_21">
     <g id="line2d_21">
      <path d="M 1386.033958 989.34 
L 1386.033958 7.2 
" clip-path="url(#p99a2884600)" style="fill: none; stroke: #cccccc; stroke-width: 0.5; stroke-linecap: round"/>
     </g>
    </g>
    <g id="text_6">
     <!-- average absolute e2e testing time of retest-all [s] -->
     <g style="fill: #262626" transform="translate(328.253437 1065.132187) scale(0.36 -0.36)">
      <defs>
       <path id="DejaVuSans-61" d="M 2194 1759 
Q 1497 1759 1228 1600 
Q 959 1441 959 1056 
Q 959 750 1161 570 
Q 1363 391 1709 391 
Q 2188 391 2477 730 
Q 2766 1069 2766 1631 
L 2766 1759 
L 2194 1759 
z
M 3341 1997 
L 3341 0 
L 2766 0 
L 2766 531 
Q 2569 213 2275 61 
Q 1981 -91 1556 -91 
Q 1019 -91 701 211 
Q 384 513 384 1019 
Q 384 1609 779 1909 
Q 1175 2209 1959 2209 
L 2766 2209 
L 2766 2266 
Q 2766 2663 2505 2880 
Q 2244 3097 1772 3097 
Q 1472 3097 1187 3025 
Q 903 2953 641 2809 
L 641 3341 
Q 956 3463 1253 3523 
Q 1550 3584 1831 3584 
Q 2591 3584 2966 3190 
Q 3341 2797 3341 1997 
z
" transform="scale(0.015625)"/>
       <path id="DejaVuSans-76" d="M 191 3500 
L 800 3500 
L 1894 563 
L 2988 3500 
L 3597 3500 
L 2284 0 
L 1503 0 
L 191 3500 
z
" transform="scale(0.015625)"/>
       <path id="DejaVuSans-65" d="M 3597 1894 
L 3597 1613 
L 953 1613 
Q 991 1019 1311 708 
Q 1631 397 2203 397 
Q 2534 397 2845 478 
Q 3156 559 3463 722 
L 3463 178 
Q 3153 47 2828 -22 
Q 2503 -91 2169 -91 
Q 1331 -91 842 396 
Q 353 884 353 1716 
Q 353 2575 817 3079 
Q 1281 3584 2069 3584 
Q 2775 3584 3186 3129 
Q 3597 2675 3597 1894 
z
M 3022 2063 
Q 3016 2534 2758 2815 
Q 2500 3097 2075 3097 
Q 1594 3097 1305 2825 
Q 1016 2553 972 2059 
L 3022 2063 
z
" transform="scale(0.015625)"/>
       <path id="DejaVuSans-72" d="M 2631 2963 
Q 2534 3019 2420 3045 
Q 2306 3072 2169 3072 
Q 1681 3072 1420 2755 
Q 1159 2438 1159 1844 
L 1159 0 
L 581 0 
L 581 3500 
L 1159 3500 
L 1159 2956 
Q 1341 3275 1631 3429 
Q 1922 3584 2338 3584 
Q 2397 3584 2469 3576 
Q 2541 3569 2628 3553 
L 2631 2963 
z
" transform="scale(0.015625)"/>
       <path id="DejaVuSans-67" d="M 2906 1791 
Q 2906 2416 2648 2759 
Q 2391 3103 1925 3103 
Q 1463 3103 1205 2759 
Q 947 2416 947 1791 
Q 947 1169 1205 825 
Q 1463 481 1925 481 
Q 2391 481 2648 825 
Q 2906 1169 2906 1791 
z
M 3481 434 
Q 3481 -459 3084 -895 
Q 2688 -1331 1869 -1331 
Q 1566 -1331 1297 -1286 
Q 1028 -1241 775 -1147 
L 775 -588 
Q 1028 -725 1275 -790 
Q 1522 -856 1778 -856 
Q 2344 -856 2625 -561 
Q 2906 -266 2906 331 
L 2906 616 
Q 2728 306 2450 153 
Q 2172 0 1784 0 
Q 1141 0 747 490 
Q 353 981 353 1791 
Q 353 2603 747 3093 
Q 1141 3584 1784 3584 
Q 2172 3584 2450 3431 
Q 2728 3278 2906 2969 
L 2906 3500 
L 3481 3500 
L 3481 434 
z
" transform="scale(0.015625)"/>
       <path id="DejaVuSans-20" transform="scale(0.015625)"/>
       <path id="DejaVuSans-62" d="M 3116 1747 
Q 3116 2381 2855 2742 
Q 2594 3103 2138 3103 
Q 1681 3103 1420 2742 
Q 1159 2381 1159 1747 
Q 1159 1113 1420 752 
Q 1681 391 2138 391 
Q 2594 391 2855 752 
Q 3116 1113 3116 1747 
z
M 1159 2969 
Q 1341 3281 1617 3432 
Q 1894 3584 2278 3584 
Q 2916 3584 3314 3078 
Q 3713 2572 3713 1747 
Q 3713 922 3314 415 
Q 2916 -91 2278 -91 
Q 1894 -91 1617 61 
Q 1341 213 1159 525 
L 1159 0 
L 581 0 
L 581 4863 
L 1159 4863 
L 1159 2969 
z
" transform="scale(0.015625)"/>
       <path id="DejaVuSans-73" d="M 2834 3397 
L 2834 2853 
Q 2591 2978 2328 3040 
Q 2066 3103 1784 3103 
Q 1356 3103 1142 2972 
Q 928 2841 928 2578 
Q 928 2378 1081 2264 
Q 1234 2150 1697 2047 
L 1894 2003 
Q 2506 1872 2764 1633 
Q 3022 1394 3022 966 
Q 3022 478 2636 193 
Q 2250 -91 1575 -91 
Q 1294 -91 989 -36 
Q 684 19 347 128 
L 347 722 
Q 666 556 975 473 
Q 1284 391 1588 391 
Q 1994 391 2212 530 
Q 2431 669 2431 922 
Q 2431 1156 2273 1281 
Q 2116 1406 1581 1522 
L 1381 1569 
Q 847 1681 609 1914 
Q 372 2147 372 2553 
Q 372 3047 722 3315 
Q 1072 3584 1716 3584 
Q 2034 3584 2315 3537 
Q 2597 3491 2834 3397 
z
" transform="scale(0.015625)"/>
       <path id="DejaVuSans-6f" d="M 1959 3097 
Q 1497 3097 1228 2736 
Q 959 2375 959 1747 
Q 959 1119 1226 758 
Q 1494 397 1959 397 
Q 2419 397 2687 759 
Q 2956 1122 2956 1747 
Q 2956 2369 2687 2733 
Q 2419 3097 1959 3097 
z
M 1959 3584 
Q 2709 3584 3137 3096 
Q 3566 2609 3566 1747 
Q 3566 888 3137 398 
Q 2709 -91 1959 -91 
Q 1206 -91 779 398 
Q 353 888 353 1747 
Q 353 2609 779 3096 
Q 1206 3584 1959 3584 
z
" transform="scale(0.015625)"/>
       <path id="DejaVuSans-6c" d="M 603 4863 
L 1178 4863 
L 1178 0 
L 603 0 
L 603 4863 
z
" transform="scale(0.015625)"/>
       <path id="DejaVuSans-75" d="M 544 1381 
L 544 3500 
L 1119 3500 
L 1119 1403 
Q 1119 906 1312 657 
Q 1506 409 1894 409 
Q 2359 409 2629 706 
Q 2900 1003 2900 1516 
L 2900 3500 
L 3475 3500 
L 3475 0 
L 2900 0 
L 2900 538 
Q 2691 219 2414 64 
Q 2138 -91 1772 -91 
Q 1169 -91 856 284 
Q 544 659 544 1381 
z
M 1991 3584 
L 1991 3584 
z
" transform="scale(0.015625)"/>
       <path id="DejaVuSans-74" d="M 1172 4494 
L 1172 3500 
L 2356 3500 
L 2356 3053 
L 1172 3053 
L 1172 1153 
Q 1172 725 1289 603 
Q 1406 481 1766 481 
L 2356 481 
L 2356 0 
L 1766 0 
Q 1100 0 847 248 
Q 594 497 594 1153 
L 594 3053 
L 172 3053 
L 172 3500 
L 594 3500 
L 594 4494 
L 1172 4494 
z
" transform="scale(0.015625)"/>
       <path id="DejaVuSans-69" d="M 603 3500 
L 1178 3500 
L 1178 0 
L 603 0 
L 603 3500 
z
M 603 4863 
L 1178 4863 
L 1178 4134 
L 603 4134 
L 603 4863 
z
" transform="scale(0.015625)"/>
       <path id="DejaVuSans-6e" d="M 3513 2113 
L 3513 0 
L 2938 0 
L 2938 2094 
Q 2938 2591 2744 2837 
Q 2550 3084 2163 3084 
Q 1697 3084 1428 2787 
Q 1159 2491 1159 1978 
L 1159 0 
L 581 0 
L 581 3500 
L 1159 3500 
L 1159 2956 
Q 1366 3272 1645 3428 
Q 1925 3584 2291 3584 
Q 2894 3584 3203 3211 
Q 3513 2838 3513 2113 
z
" transform="scale(0.015625)"/>
       <path id="DejaVuSans-6d" d="M 3328 2828 
Q 3544 3216 3844 3400 
Q 4144 3584 4550 3584 
Q 5097 3584 5394 3201 
Q 5691 2819 5691 2113 
L 5691 0 
L 5113 0 
L 5113 2094 
Q 5113 2597 4934 2840 
Q 4756 3084 4391 3084 
Q 3944 3084 3684 2787 
Q 3425 2491 3425 1978 
L 3425 0 
L 2847 0 
L 2847 2094 
Q 2847 2600 2669 2842 
Q 2491 3084 2119 3084 
Q 1678 3084 1418 2786 
Q 1159 2488 1159 1978 
L 1159 0 
L 581 0 
L 581 3500 
L 1159 3500 
L 1159 2956 
Q 1356 3278 1631 3431 
Q 1906 3584 2284 3584 
Q 2666 3584 2933 3390 
Q 3200 3197 3328 2828 
z
" transform="scale(0.015625)"/>
       <path id="DejaVuSans-66" d="M 2375 4863 
L 2375 4384 
L 1825 4384 
Q 1516 4384 1395 4259 
Q 1275 4134 1275 3809 
L 1275 3500 
L 2222 3500 
L 2222 3053 
L 1275 3053 
L 1275 0 
L 697 0 
L 697 3053 
L 147 3053 
L 147 3500 
L 697 3500 
L 697 3744 
Q 697 4328 969 4595 
Q 1241 4863 1831 4863 
L 2375 4863 
z
" transform="scale(0.015625)"/>
       <path id="DejaVuSans-2d" d="M 313 2009 
L 1997 2009 
L 1997 1497 
L 313 1497 
L 313 2009 
z
" transform="scale(0.015625)"/>
       <path id="DejaVuSans-5b" d="M 550 4863 
L 1875 4863 
L 1875 4416 
L 1125 4416 
L 1125 -397 
L 1875 -397 
L 1875 -844 
L 550 -844 
L 550 4863 
z
" transform="scale(0.015625)"/>
       <path id="DejaVuSans-5d" d="M 1947 4863 
L 1947 -844 
L 622 -844 
L 622 -397 
L 1369 -397 
L 1369 4416 
L 622 4416 
L 622 4863 
L 1947 4863 
z
" transform="scale(0.015625)"/>
      </defs>
      <use xlink:href="#DejaVuSans-61"/>
      <use xlink:href="#DejaVuSans-76" x="61.279297"/>
      <use xlink:href="#DejaVuSans-65" x="120.458984"/>
      <use xlink:href="#DejaVuSans-72" x="181.982422"/>
      <use xlink:href="#DejaVuSans-61" x="223.095703"/>
      <use xlink:href="#DejaVuSans-67" x="284.375"/>
      <use xlink:href="#DejaVuSans-65" x="347.851562"/>
      <use xlink:href="#DejaVuSans-20" x="409.375"/>
      <use xlink:href="#DejaVuSans-61" x="441.162109"/>
      <use xlink:href="#DejaVuSans-62" x="502.441406"/>
      <use xlink:href="#DejaVuSans-73" x="565.917969"/>
      <use xlink:href="#DejaVuSans-6f" x="618.017578"/>
      <use xlink:href="#DejaVuSans-6c" x="679.199219"/>
      <use xlink:href="#DejaVuSans-75" x="706.982422"/>
      <use xlink:href="#DejaVuSans-74" x="770.361328"/>
      <use xlink:href="#DejaVuSans-65" x="809.570312"/>
      <use xlink:href="#DejaVuSans-20" x="871.09375"/>
      <use xlink:href="#DejaVuSans-65" x="902.880859"/>
      <use xlink:href="#DejaVuSans-32" x="964.404297"/>
      <use xlink:href="#DejaVuSans-65" x="1028.027344"/>
      <use xlink:href="#DejaVuSans-20" x="1089.550781"/>
      <use xlink:href="#DejaVuSans-74" x="1121.337891"/>
      <use xlink:href="#DejaVuSans-65" x="1160.546875"/>
      <use xlink:href="#DejaVuSans-73" x="1222.070312"/>
      <use xlink:href="#DejaVuSans-74" x="1274.169922"/>
      <use xlink:href="#DejaVuSans-69" x="1313.378906"/>
      <use xlink:href="#DejaVuSans-6e" x="1341.162109"/>
      <use xlink:href="#DejaVuSans-67" x="1404.541016"/>
      <use xlink:href="#DejaVuSans-20" x="1468.017578"/>
      <use xlink:href="#DejaVuSans-74" x="1499.804688"/>
      <use xlink:href="#DejaVuSans-69" x="1539.013672"/>
      <use xlink:href="#DejaVuSans-6d" x="1566.796875"/>
      <use xlink:href="#DejaVuSans-65" x="1664.208984"/>
      <use xlink:href="#DejaVuSans-20" x="1725.732422"/>
      <use xlink:href="#DejaVuSans-6f" x="1757.519531"/>
      <use xlink:href="#DejaVuSans-66" x="1818.701172"/>
      <use xlink:href="#DejaVuSans-20" x="1853.90625"/>
      <use xlink:href="#DejaVuSans-72" x="1885.693359"/>
      <use xlink:href="#DejaVuSans-65" x="1924.556641"/>
      <use xlink:href="#DejaVuSans-74" x="1986.080078"/>
      <use xlink:href="#DejaVuSans-65" x="2025.289062"/>
      <use xlink:href="#DejaVuSans-73" x="2086.8125"/>
      <use xlink:href="#DejaVuSans-74" x="2138.912109"/>
      <use xlink:href="#DejaVuSans-2d" x="2178.121094"/>
      <use xlink:href="#DejaVuSans-61" x="2214.205078"/>
      <use xlink:href="#DejaVuSans-6c" x="2275.484375"/>
      <use xlink:href="#DejaVuSans-6c" x="2303.267578"/>
      <use xlink:href="#DejaVuSans-20" x="2331.050781"/>
      <use xlink:href="#DejaVuSans-5b" x="2362.837891"/>
      <use xlink:href="#DejaVuSans-73" x="2401.851562"/>
      <use xlink:href="#DejaVuSans-5d" x="2453.951172"/>
     </g>
    </g>
   </g>
   <g id="matplotlib.axis_2">
    <g id="ytick_1">
     <g id="line2d_22">
      <path d="M 121.17 984.379697 
L 1432.8 984.379697 
" clip-path="url(#p99a2884600)" style="fill: none; stroke: #cccccc; stroke-linecap: round"/>
     </g>
     <g id="text_7">
      <!-- 40 -->
      <g style="fill: #262626" transform="translate(66.6775 996.917119) scale(0.33 -0.33)">
       <use xlink:href="#DejaVuSans-34"/>
       <use xlink:href="#DejaVuSans-30" x="63.623047"/>
      </g>
     </g>
    </g>
    <g id="ytick_2">
     <g id="line2d_23">
      <path d="M 121.17 785.967576 
L 1432.8 785.967576 
" clip-path="url(#p99a2884600)" style="fill: none; stroke: #cccccc; stroke-linecap: round"/>
     </g>
     <g id="text_8">
      <!-- 60 -->
      <g style="fill: #262626" transform="translate(66.6775 798.504998) scale(0.33 -0.33)">
       <use xlink:href="#DejaVuSans-36"/>
       <use xlink:href="#DejaVuSans-30" x="63.623047"/>
      </g>
     </g>
    </g>
    <g id="ytick_3">
     <g id="line2d_24">
      <path d="M 121.17 587.555455 
L 1432.8 587.555455 
" clip-path="url(#p99a2884600)" style="fill: none; stroke: #cccccc; stroke-linecap: round"/>
     </g>
     <g id="text_9">
      <!-- 80 -->
      <g style="fill: #262626" transform="translate(66.6775 600.092876) scale(0.33 -0.33)">
       <use xlink:href="#DejaVuSans-38"/>
       <use xlink:href="#DejaVuSans-30" x="63.623047"/>
      </g>
     </g>
    </g>
    <g id="ytick_4">
     <g id="line2d_25">
      <path d="M 121.17 389.143333 
L 1432.8 389.143333 
" clip-path="url(#p99a2884600)" style="fill: none; stroke: #cccccc; stroke-linecap: round"/>
     </g>
     <g id="text_10">
      <!-- 100 -->
      <g style="fill: #262626" transform="translate(45.68125 401.680755) scale(0.33 -0.33)">
       <use xlink:href="#DejaVuSans-31"/>
       <use xlink:href="#DejaVuSans-30" x="63.623047"/>
       <use xlink:href="#DejaVuSans-30" x="127.246094"/>
      </g>
     </g>
    </g>
    <g id="ytick_5">
     <g id="line2d_26">
      <path d="M 121.17 190.731212 
L 1432.8 190.731212 
" clip-path="url(#p99a2884600)" style="fill: none; stroke: #cccccc; stroke-linecap: round"/>
     </g>
     <g id="text_11">
      <!-- 120 -->
      <g style="fill: #262626" transform="translate(45.68125 203.268634) scale(0.33 -0.33)">
       <use xlink:href="#DejaVuSans-31"/>
       <use xlink:href="#DejaVuSans-32" x="63.623047"/>
       <use xlink:href="#DejaVuSans-30" x="127.246094"/>
      </g>
     </g>
    </g>
    <g id="ytick_6">
     <g id="line2d_27">
      <path d="M 121.17 934.776667 
L 1432.8 934.776667 
" clip-path="url(#p99a2884600)" style="fill: none; stroke: #cccccc; stroke-width: 0.5; stroke-linecap: round"/>
     </g>
    </g>
    <g id="ytick_7">
     <g id="line2d_28">
      <path d="M 121.17 885.173636 
L 1432.8 885.173636 
" clip-path="url(#p99a2884600)" style="fill: none; stroke: #cccccc; stroke-width: 0.5; stroke-linecap: round"/>
     </g>
    </g>
    <g id="ytick_8">
     <g id="line2d_29">
      <path d="M 121.17 835.570606 
L 1432.8 835.570606 
" clip-path="url(#p99a2884600)" style="fill: none; stroke: #cccccc; stroke-width: 0.5; stroke-linecap: round"/>
     </g>
    </g>
    <g id="ytick_9">
     <g id="line2d_30">
      <path d="M 121.17 736.364545 
L 1432.8 736.364545 
" clip-path="url(#p99a2884600)" style="fill: none; stroke: #cccccc; stroke-width: 0.5; stroke-linecap: round"/>
     </g>
    </g>
    <g id="ytick_10">
     <g id="line2d_31">
      <path d="M 121.17 686.761515 
L 1432.8 686.761515 
" clip-path="url(#p99a2884600)" style="fill: none; stroke: #cccccc; stroke-width: 0.5; stroke-linecap: round"/>
     </g>
    </g>
    <g id="ytick_11">
     <g id="line2d_32">
      <path d="M 121.17 637.158485 
L 1432.8 637.158485 
" clip-path="url(#p99a2884600)" style="fill: none; stroke: #cccccc; stroke-width: 0.5; stroke-linecap: round"/>
     </g>
    </g>
    <g id="ytick_12">
     <g id="line2d_33">
      <path d="M 121.17 537.952424 
L 1432.8 537.952424 
" clip-path="url(#p99a2884600)" style="fill: none; stroke: #cccccc; stroke-width: 0.5; stroke-linecap: round"/>
     </g>
    </g>
    <g id="ytick_13">
     <g id="line2d_34">
      <path d="M 121.17 488.349394 
L 1432.8 488.349394 
" clip-path="url(#p99a2884600)" style="fill: none; stroke: #cccccc; stroke-width: 0.5; stroke-linecap: round"/>
     </g>
    </g>
    <g id="ytick_14">
     <g id="line2d_35">
      <path d="M 121.17 438.746364 
L 1432.8 438.746364 
" clip-path="url(#p99a2884600)" style="fill: none; stroke: #cccccc; stroke-width: 0.5; stroke-linecap: round"/>
     </g>
    </g>
    <g id="ytick_15">
     <g id="line2d_36">
      <path d="M 121.17 339.540303 
L 1432.8 339.540303 
" clip-path="url(#p99a2884600)" style="fill: none; stroke: #cccccc; stroke-width: 0.5; stroke-linecap: round"/>
     </g>
    </g>
    <g id="ytick_16">
     <g id="line2d_37">
      <path d="M 121.17 289.937273 
L 1432.8 289.937273 
" clip-path="url(#p99a2884600)" style="fill: none; stroke: #cccccc; stroke-width: 0.5; stroke-linecap: round"/>
     </g>
    </g>
    <g id="ytick_17">
     <g id="line2d_38">
      <path d="M 121.17 240.334242 
L 1432.8 240.334242 
" clip-path="url(#p99a2884600)" style="fill: none; stroke: #cccccc; stroke-width: 0.5; stroke-linecap: round"/>
     </g>
    </g>
    <g id="ytick_18">
     <g id="line2d_39">
      <path d="M 121.17 141.128182 
L 1432.8 141.128182 
" clip-path="url(#p99a2884600)" style="fill: none; stroke: #cccccc; stroke-width: 0.5; stroke-linecap: round"/>
     </g>
    </g>
    <g id="ytick_19">
     <g id="line2d_40">
      <path d="M 121.17 91.525152 
L 1432.8 91.525152 
" clip-path="url(#p99a2884600)" style="fill: none; stroke: #cccccc; stroke-width: 0.5; stroke-linecap: round"/>
     </g>
    </g>
    <g id="ytick_20">
     <g id="line2d_41">
      <path d="M 121.17 41.922121 
L 1432.8 41.922121 
" clip-path="url(#p99a2884600)" style="fill: none; stroke: #cccccc; stroke-width: 0.5; stroke-linecap: round"/>
     </g>
    </g>
    <g id="text_12">
     <!-- average relative e2e testing time [%] -->
     <g style="fill: #262626" transform="translate(34.194375 836.273438) rotate(-90) scale(0.36 -0.36)">
      <defs>
       <path id="DejaVuSans-25" d="M 4653 2053 
Q 4381 2053 4226 1822 
Q 4072 1591 4072 1178 
Q 4072 772 4226 539 
Q 4381 306 4653 306 
Q 4919 306 5073 539 
Q 5228 772 5228 1178 
Q 5228 1588 5073 1820 
Q 4919 2053 4653 2053 
z
M 4653 2450 
Q 5147 2450 5437 2106 
Q 5728 1763 5728 1178 
Q 5728 594 5436 251 
Q 5144 -91 4653 -91 
Q 4153 -91 3862 251 
Q 3572 594 3572 1178 
Q 3572 1766 3864 2108 
Q 4156 2450 4653 2450 
z
M 1428 4353 
Q 1159 4353 1004 4120 
Q 850 3888 850 3481 
Q 850 3069 1003 2837 
Q 1156 2606 1428 2606 
Q 1700 2606 1854 2837 
Q 2009 3069 2009 3481 
Q 2009 3884 1853 4118 
Q 1697 4353 1428 4353 
z
M 4250 4750 
L 4750 4750 
L 1831 -91 
L 1331 -91 
L 4250 4750 
z
M 1428 4750 
Q 1922 4750 2215 4408 
Q 2509 4066 2509 3481 
Q 2509 2891 2217 2550 
Q 1925 2209 1428 2209 
Q 931 2209 642 2551 
Q 353 2894 353 3481 
Q 353 4063 643 4406 
Q 934 4750 1428 4750 
z
" transform="scale(0.015625)"/>
      </defs>
      <use xlink:href="#DejaVuSans-61"/>
      <use xlink:href="#DejaVuSans-76" x="61.279297"/>
      <use xlink:href="#DejaVuSans-65" x="120.458984"/>
      <use xlink:href="#DejaVuSans-72" x="181.982422"/>
      <use xlink:href="#DejaVuSans-61" x="223.095703"/>
      <use xlink:href="#DejaVuSans-67" x="284.375"/>
      <use xlink:href="#DejaVuSans-65" x="347.851562"/>
      <use xlink:href="#DejaVuSans-20" x="409.375"/>
      <use xlink:href="#DejaVuSans-72" x="441.162109"/>
      <use xlink:href="#DejaVuSans-65" x="480.025391"/>
      <use xlink:href="#DejaVuSans-6c" x="541.548828"/>
      <use xlink:href="#DejaVuSans-61" x="569.332031"/>
      <use xlink:href="#DejaVuSans-74" x="630.611328"/>
      <use xlink:href="#DejaVuSans-69" x="669.820312"/>
      <use xlink:href="#DejaVuSans-76" x="697.603516"/>
      <use xlink:href="#DejaVuSans-65" x="756.783203"/>
      <use xlink:href="#DejaVuSans-20" x="818.306641"/>
      <use xlink:href="#DejaVuSans-65" x="850.09375"/>
      <use xlink:href="#DejaVuSans-32" x="911.617188"/>
      <use xlink:href="#DejaVuSans-65" x="975.240234"/>
      <use xlink:href="#DejaVuSans-20" x="1036.763672"/>
      <use xlink:href="#DejaVuSans-74" x="1068.550781"/>
      <use xlink:href="#DejaVuSans-65" x="1107.759766"/>
      <use xlink:href="#DejaVuSans-73" x="1169.283203"/>
      <use xlink:href="#DejaVuSans-74" x="1221.382812"/>
      <use xlink:href="#DejaVuSans-69" x="1260.591797"/>
      <use xlink:href="#DejaVuSans-6e" x="1288.375"/>
      <use xlink:href="#DejaVuSans-67" x="1351.753906"/>
      <use xlink:href="#DejaVuSans-20" x="1415.230469"/>
      <use xlink:href="#DejaVuSans-74" x="1447.017578"/>
      <use xlink:href="#DejaVuSans-69" x="1486.226562"/>
      <use xlink:href="#DejaVuSans-6d" x="1514.009766"/>
      <use xlink:href="#DejaVuSans-65" x="1611.421875"/>
      <use xlink:href="#DejaVuSans-20" x="1672.945312"/>
      <use xlink:href="#DejaVuSans-5b" x="1704.732422"/>
      <use xlink:href="#DejaVuSans-25" x="1743.746094"/>
      <use xlink:href="#DejaVuSans-5d" x="1838.765625"/>
     </g>
    </g>
   </g>
   <g id="PathCollection_1">
    <defs>
     <path id="C0_0_ecfd575d57" d="M 0 4.5 
C 1.193414 4.5 2.338109 4.025852 3.181981 3.181981 
C 4.025852 2.338109 4.5 1.193414 4.5 -0 
C 4.5 -1.193414 4.025852 -2.338109 3.181981 -3.181981 
C 2.338109 -4.025852 1.193414 -4.5 0 -4.5 
C -1.193414 -4.5 -2.338109 -4.025852 -3.181981 -3.181981 
C -4.025852 -2.338109 -4.5 -1.193414 -4.5 0 
C -4.5 1.193414 -4.025852 2.338109 -3.181981 3.181981 
C -2.338109 4.025852 -1.193414 4.5 0 4.5 
z
"/>
    </defs>
    <g clip-path="url(#p99a2884600)">
     <use xlink:href="#C0_0_ecfd575d57" x="431.780095" y="875.25303" style="fill: #e37222; stroke: #000000"/>
    </g>
    <g clip-path="url(#p99a2884600)">
     <use xlink:href="#C0_0_ecfd575d57" x="1373.180455" y="845.491212" style="fill: #e37222; stroke: #000000"/>
    </g>
    <g clip-path="url(#p99a2884600)">
     <use xlink:href="#C0_0_ecfd575d57" x="196.518335" y="696.682121" style="fill: #e37222; stroke: #000000"/>
    </g>
    <g clip-path="url(#p99a2884600)">
     <use xlink:href="#C0_0_ecfd575d57" x="214.342673" y="934.776667" style="fill: #e37222; stroke: #000000"/>
    </g>
    <g clip-path="url(#p99a2884600)">
     <use xlink:href="#C0_0_ecfd575d57" x="371.41127" y="815.729394" style="fill: #e37222; stroke: #000000"/>
    </g>
    <g clip-path="url(#p99a2884600)">
     <use xlink:href="#C0_0_ecfd575d57" x="434.886866" y="706.602727" style="fill: #e37222; stroke: #000000"/>
    </g>
    <g clip-path="url(#p99a2884600)">
     <use xlink:href="#C0_0_ecfd575d57" x="231.740591" y="875.25303" style="fill: #e37222; stroke: #000000"/>
    </g>
    <g clip-path="url(#p99a2884600)">
     <use xlink:href="#C0_0_ecfd575d57" x="231.557839" y="528.031818" style="fill: #e37222; stroke: #000000"/>
    </g>
    <g clip-path="url(#p99a2884600)">
     <use xlink:href="#C0_0_ecfd575d57" x="531.84249" y="944.697273" style="fill: #e37222; stroke: #000000"/>
    </g>
    <g clip-path="url(#p99a2884600)">
     <use xlink:href="#C0_0_ecfd575d57" x="264.258127" y="934.776667" style="fill: #e37222; stroke: #000000"/>
    </g>
    <g clip-path="url(#p99a2884600)">
     <use xlink:href="#C0_0_ecfd575d57" x="360.336545" y="51.842727" style="fill: #e37222; stroke: #000000"/>
    </g>
    <g clip-path="url(#p99a2884600)">
     <use xlink:href="#C0_0_ecfd575d57" x="180.789545" y="379.222727" style="fill: #e37222; stroke: #000000"/>
    </g>
    <g clip-path="url(#p99a2884600)">
     <use xlink:href="#C0_0_ecfd575d57" x="431.780095" y="458.587576" style="fill: #a2ad00; stroke: #000000"/>
    </g>
    <g clip-path="url(#p99a2884600)">
     <use xlink:href="#C0_0_ecfd575d57" x="1373.180455" y="805.808788" style="fill: #a2ad00; stroke: #000000"/>
    </g>
    <g clip-path="url(#p99a2884600)">
     <use xlink:href="#C0_0_ecfd575d57" x="196.518335" y="656.999697" style="fill: #a2ad00; stroke: #000000"/>
    </g>
    <g clip-path="url(#p99a2884600)">
     <use xlink:href="#C0_0_ecfd575d57" x="214.342673" y="895.094242" style="fill: #a2ad00; stroke: #000000"/>
    </g>
    <g clip-path="url(#p99a2884600)">
     <use xlink:href="#C0_0_ecfd575d57" x="371.41127" y="825.65" style="fill: #a2ad00; stroke: #000000"/>
    </g>
    <g clip-path="url(#p99a2884600)">
     <use xlink:href="#C0_0_ecfd575d57" x="434.886866" y="656.999697" style="fill: #a2ad00; stroke: #000000"/>
    </g>
    <g clip-path="url(#p99a2884600)">
     <use xlink:href="#C0_0_ecfd575d57" x="231.740591" y="736.364545" style="fill: #a2ad00; stroke: #000000"/>
    </g>
    <g clip-path="url(#p99a2884600)">
     <use xlink:href="#C0_0_ecfd575d57" x="231.557839" y="518.111212" style="fill: #a2ad00; stroke: #000000"/>
    </g>
    <g clip-path="url(#p99a2884600)">
     <use xlink:href="#C0_0_ecfd575d57" x="531.84249" y="557.793636" style="fill: #a2ad00; stroke: #000000"/>
    </g>
    <g clip-path="url(#p99a2884600)">
     <use xlink:href="#C0_0_ecfd575d57" x="264.258127" y="875.25303" style="fill: #a2ad00; stroke: #000000"/>
    </g>
    <g clip-path="url(#p99a2884600)">
     <use xlink:href="#C0_0_ecfd575d57" x="360.336545" y="498.27" style="fill: #a2ad00; stroke: #000000"/>
    </g>
    <g clip-path="url(#p99a2884600)">
     <use xlink:href="#C0_0_ecfd575d57" x="180.789545" y="339.540303" style="fill: #a2ad00; stroke: #000000"/>
    </g>
   </g>
   <g id="PathCollection_2"/>
   <g id="PathCollection_3"/>
   <g id="patch_3">
    <path d="M 121.17 989.34 
L 121.17 7.2 
" style="fill: none; stroke: #cccccc; stroke-width: 1.875; stroke-linejoin: miter; stroke-linecap: square"/>
   </g>
   <g id="patch_4">
    <path d="M 1432.8 989.34 
L 1432.8 7.2 
" style="fill: none; stroke: #cccccc; stroke-width: 1.875; stroke-linejoin: miter; stroke-linecap: square"/>
   </g>
   <g id="patch_5">
    <path d="M 121.17 989.34 
L 1432.8 989.34 
" style="fill: none; stroke: #cccccc; stroke-width: 1.875; stroke-linejoin: miter; stroke-linecap: square"/>
   </g>
   <g id="patch_6">
    <path d="M 121.17 7.2 
L 1432.8 7.2 
" style="fill: none; stroke: #cccccc; stroke-width: 1.875; stroke-linejoin: miter; stroke-linecap: square"/>
   </g>
   <g id="legend_1">
    <g id="patch_7">
     <path d="M 1163.025 130.475625 
L 1409.7 130.475625 
Q 1416.3 130.475625 1416.3 123.875625 
L 1416.3 30.3 
Q 1416.3 23.7 1409.7 23.7 
L 1163.025 23.7 
Q 1156.425 23.7 1156.425 30.3 
L 1156.425 123.875625 
Q 1156.425 130.475625 1163.025 130.475625 
z
" style="fill: #ffffff; opacity: 0.8; stroke: #cccccc; stroke-width: 1.5; stroke-linejoin: miter"/>
    </g>
    <g id="PathCollection_4">
     <defs>
      <path id="meac2141163" d="M 0 4.5 
C 1.193414 4.5 2.338109 4.025852 3.181981 3.181981 
C 4.025852 2.338109 4.5 1.193414 4.5 0 
C 4.5 -1.193414 4.025852 -2.338109 3.181981 -3.181981 
C 2.338109 -4.025852 1.193414 -4.5 0 -4.5 
C -1.193414 -4.5 -2.338109 -4.025852 -3.181981 -3.181981 
C -4.025852 -2.338109 -4.5 -1.193414 -4.5 0 
C -4.5 1.193414 -4.025852 2.338109 -3.181981 3.181981 
C -2.338109 4.025852 -1.193414 4.5 0 4.5 
z
" style="stroke: #e37222; stroke-width: 1.5"/>
     </defs>
     <g>
      <use xlink:href="#meac2141163" x="1202.625" y="53.312344" style="fill: #e37222; stroke: #e37222; stroke-width: 1.5"/>
     </g>
    </g>
    <g id="text_13">
     <!-- dynamic -->
     <g style="fill: #262626" transform="translate(1262.025 61.974844) scale(0.33 -0.33)">
      <defs>
       <path id="DejaVuSans-64" d="M 2906 2969 
L 2906 4863 
L 3481 4863 
L 3481 0 
L 2906 0 
L 2906 525 
Q 2725 213 2448 61 
Q 2172 -91 1784 -91 
Q 1150 -91 751 415 
Q 353 922 353 1747 
Q 353 2572 751 3078 
Q 1150 3584 1784 3584 
Q 2172 3584 2448 3432 
Q 2725 3281 2906 2969 
z
M 947 1747 
Q 947 1113 1208 752 
Q 1469 391 1925 391 
Q 2381 391 2643 752 
Q 2906 1113 2906 1747 
Q 2906 2381 2643 2742 
Q 2381 3103 1925 3103 
Q 1469 3103 1208 2742 
Q 947 2381 947 1747 
z
" transform="scale(0.015625)"/>
       <path id="DejaVuSans-79" d="M 2059 -325 
Q 1816 -950 1584 -1140 
Q 1353 -1331 966 -1331 
L 506 -1331 
L 506 -850 
L 844 -850 
Q 1081 -850 1212 -737 
Q 1344 -625 1503 -206 
L 1606 56 
L 191 3500 
L 800 3500 
L 1894 763 
L 2988 3500 
L 3597 3500 
L 2059 -325 
z
" transform="scale(0.015625)"/>
       <path id="DejaVuSans-63" d="M 3122 3366 
L 3122 2828 
Q 2878 2963 2633 3030 
Q 2388 3097 2138 3097 
Q 1578 3097 1268 2742 
Q 959 2388 959 1747 
Q 959 1106 1268 751 
Q 1578 397 2138 397 
Q 2388 397 2633 464 
Q 2878 531 3122 666 
L 3122 134 
Q 2881 22 2623 -34 
Q 2366 -91 2075 -91 
Q 1284 -91 818 406 
Q 353 903 353 1747 
Q 353 2603 823 3093 
Q 1294 3584 2113 3584 
Q 2378 3584 2631 3529 
Q 2884 3475 3122 3366 
z
" transform="scale(0.015625)"/>
      </defs>
      <use xlink:href="#DejaVuSans-64"/>
      <use xlink:href="#DejaVuSans-79" x="63.476562"/>
      <use xlink:href="#DejaVuSans-6e" x="122.65625"/>
      <use xlink:href="#DejaVuSans-61" x="186.035156"/>
      <use xlink:href="#DejaVuSans-6d" x="247.314453"/>
      <use xlink:href="#DejaVuSans-69" x="344.726562"/>
      <use xlink:href="#DejaVuSans-63" x="372.509766"/>
     </g>
    </g>
    <g id="PathCollection_5">
     <defs>
      <path id="ma09b82ebe8" d="M 0 4.5 
C 1.193414 4.5 2.338109 4.025852 3.181981 3.181981 
C 4.025852 2.338109 4.5 1.193414 4.5 0 
C 4.5 -1.193414 4.025852 -2.338109 3.181981 -3.181981 
C 2.338109 -4.025852 1.193414 -4.5 0 -4.5 
C -1.193414 -4.5 -2.338109 -4.025852 -3.181981 -3.181981 
C -4.025852 -2.338109 -4.5 -1.193414 -4.5 0 
C -4.5 1.193414 -4.025852 2.338109 -3.181981 3.181981 
C -2.338109 4.025852 -1.193414 4.5 0 4.5 
z
" style="stroke: #a2ad00; stroke-width: 1.5"/>
     </defs>
     <g>
      <use xlink:href="#ma09b82ebe8" x="1202.625" y="101.750156" style="fill: #a2ad00; stroke: #a2ad00; stroke-width: 1.5"/>
     </g>
    </g>
    <g id="text_14">
     <!-- static -->
     <g style="fill: #262626" transform="translate(1262.025 110.412656) scale(0.33 -0.33)">
      <use xlink:href="#DejaVuSans-73"/>
      <use xlink:href="#DejaVuSans-74" x="52.099609"/>
      <use xlink:href="#DejaVuSans-61" x="91.308594"/>
      <use xlink:href="#DejaVuSans-74" x="152.587891"/>
      <use xlink:href="#DejaVuSans-69" x="191.796875"/>
      <use xlink:href="#DejaVuSans-63" x="219.580078"/>
     </g>
    </g>
   </g>
  </g>
  <g id="text_15">
   <!-- single-threaded -->
   <g style="fill: #808080" transform="translate(14.4 1058.4) scale(0.36 -0.36)">
    <defs>
     <path id="DejaVuSans-68" d="M 3513 2113 
L 3513 0 
L 2938 0 
L 2938 2094 
Q 2938 2591 2744 2837 
Q 2550 3084 2163 3084 
Q 1697 3084 1428 2787 
Q 1159 2491 1159 1978 
L 1159 0 
L 581 0 
L 581 4863 
L 1159 4863 
L 1159 2956 
Q 1366 3272 1645 3428 
Q 1925 3584 2291 3584 
Q 2894 3584 3203 3211 
Q 3513 2838 3513 2113 
z
" transform="scale(0.015625)"/>
    </defs>
    <use xlink:href="#DejaVuSans-73"/>
    <use xlink:href="#DejaVuSans-69" x="52.099609"/>
    <use xlink:href="#DejaVuSans-6e" x="79.882812"/>
    <use xlink:href="#DejaVuSans-67" x="143.261719"/>
    <use xlink:href="#DejaVuSans-6c" x="206.738281"/>
    <use xlink:href="#DejaVuSans-65" x="234.521484"/>
    <use xlink:href="#DejaVuSans-2d" x="296.044922"/>
    <use xlink:href="#DejaVuSans-74" x="332.128906"/>
    <use xlink:href="#DejaVuSans-68" x="371.337891"/>
    <use xlink:href="#DejaVuSans-72" x="434.716797"/>
    <use xlink:href="#DejaVuSans-65" x="473.580078"/>
    <use xlink:href="#DejaVuSans-61" x="535.103516"/>
    <use xlink:href="#DejaVuSans-64" x="596.382812"/>
    <use xlink:href="#DejaVuSans-65" x="659.859375"/>
    <use xlink:href="#DejaVuSans-64" x="721.382812"/>
   </g>
  </g>
 </g>
 <defs>
  <clipPath id="p99a2884600">
   <rect x="121.17" y="7.2" width="1311.63" height="982.14"/>
  </clipPath>
 </defs>
</svg>
