<?xml version="1.0" encoding="utf-8" standalone="no"?>
<!DOCTYPE svg PUBLIC "-//W3C//DTD SVG 1.1//EN"
  "http://www.w3.org/Graphics/SVG/1.1/DTD/svg11.dtd">
<svg xmlns:xlink="http://www.w3.org/1999/xlink" width="1440pt" height="1080pt" viewBox="0 0 1440 1080" xmlns="http://www.w3.org/2000/svg" version="1.1">
 <metadata>
  <rdf:RDF xmlns:dc="http://purl.org/dc/elements/1.1/" xmlns:cc="http://creativecommons.org/ns#" xmlns:rdf="http://www.w3.org/1999/02/22-rdf-syntax-ns#">
   <cc:Work>
    <dc:type rdf:resource="http://purl.org/dc/dcmitype/StillImage"/>
    <dc:date>2023-09-01T11:00:05.003156</dc:date>
    <dc:format>image/svg+xml</dc:format>
    <dc:creator>
     <cc:Agent>
      <dc:title>Matplotlib v3.7.1, https://matplotlib.org/</dc:title>
     </cc:Agent>
    </dc:creator>
   </cc:Work>
  </rdf:RDF>
 </metadata>
 <defs>
  <style type="text/css">*{stroke-linejoin: round; stroke-linecap: butt}</style>
 </defs>
 <g id="figure_1">
  <g id="patch_1">
   <path d="M 0 1080 
L 1440 1080 
L 1440 0 
L 0 0 
z
" style="fill: #ffffff"/>
  </g>
  <g id="axes_1">
   <g id="patch_2">
    <path d="M 121.17 989.34 
L 1432.8 989.34 
L 1432.8 7.2 
L 121.17 7.2 
z
" style="fill: #ffffff"/>
   </g>
   <g id="matplotlib.axis_1">
    <g id="xtick_1">
     <g id="line2d_1">
      <path d="M 350.443611 989.34 
L 350.443611 7.2 
" clip-path="url(#p33a7ad091b)" style="fill: none; stroke: #cccccc; stroke-linecap: round"/>
     </g>
     <g id="text_1">
      <!-- 200 -->
      <g style="fill: #262626" transform="translate(318.949236 1026.914844) scale(0.33 -0.33)">
       <defs>
        <path id="DejaVuSans-32" d="M 1228 531 
L 3431 531 
L 3431 0 
L 469 0 
L 469 531 
Q 828 903 1448 1529 
Q 2069 2156 2228 2338 
Q 2531 2678 2651 2914 
Q 2772 3150 2772 3378 
Q 2772 3750 2511 3984 
Q 2250 4219 1831 4219 
Q 1534 4219 1204 4116 
Q 875 4013 500 3803 
L 500 4441 
Q 881 4594 1212 4672 
Q 1544 4750 1819 4750 
Q 2544 4750 2975 4387 
Q 3406 4025 3406 3419 
Q 3406 3131 3298 2873 
Q 3191 2616 2906 2266 
Q 2828 2175 2409 1742 
Q 1991 1309 1228 531 
z
" transform="scale(0.015625)"/>
        <path id="DejaVuSans-30" d="M 2034 4250 
Q 1547 4250 1301 3770 
Q 1056 3291 1056 2328 
Q 1056 1369 1301 889 
Q 1547 409 2034 409 
Q 2525 409 2770 889 
Q 3016 1369 3016 2328 
Q 3016 3291 2770 3770 
Q 2525 4250 2034 4250 
z
M 2034 4750 
Q 2819 4750 3233 4129 
Q 3647 3509 3647 2328 
Q 3647 1150 3233 529 
Q 2819 -91 2034 -91 
Q 1250 -91 836 529 
Q 422 1150 422 2328 
Q 422 3509 836 4129 
Q 1250 4750 2034 4750 
z
" transform="scale(0.015625)"/>
       </defs>
       <use xlink:href="#DejaVuSans-32"/>
       <use xlink:href="#DejaVuSans-30" x="63.623047"/>
       <use xlink:href="#DejaVuSans-30" x="127.246094"/>
      </g>
     </g>
    </g>
    <g id="xtick_2">
     <g id="line2d_2">
      <path d="M 594.111928 989.34 
L 594.111928 7.2 
" clip-path="url(#p33a7ad091b)" style="fill: none; stroke: #cccccc; stroke-linecap: round"/>
     </g>
     <g id="text_2">
      <!-- 400 -->
      <g style="fill: #262626" transform="translate(562.617553 1026.914844) scale(0.33 -0.33)">
       <defs>
        <path id="DejaVuSans-34" d="M 2419 4116 
L 825 1625 
L 2419 1625 
L 2419 4116 
z
M 2253 4666 
L 3047 4666 
L 3047 1625 
L 3713 1625 
L 3713 1100 
L 3047 1100 
L 3047 0 
L 2419 0 
L 2419 1100 
L 313 1100 
L 313 1709 
L 2253 4666 
z
" transform="scale(0.015625)"/>
       </defs>
       <use xlink:href="#DejaVuSans-34"/>
       <use xlink:href="#DejaVuSans-30" x="63.623047"/>
       <use xlink:href="#DejaVuSans-30" x="127.246094"/>
      </g>
     </g>
    </g>
    <g id="xtick_3">
     <g id="line2d_3">
      <path d="M 837.780245 989.34 
L 837.780245 7.2 
" clip-path="url(#p33a7ad091b)" style="fill: none; stroke: #cccccc; stroke-linecap: round"/>
     </g>
     <g id="text_3">
      <!-- 600 -->
      <g style="fill: #262626" transform="translate(806.28587 1026.914844) scale(0.33 -0.33)">
       <defs>
        <path id="DejaVuSans-36" d="M 2113 2584 
Q 1688 2584 1439 2293 
Q 1191 2003 1191 1497 
Q 1191 994 1439 701 
Q 1688 409 2113 409 
Q 2538 409 2786 701 
Q 3034 994 3034 1497 
Q 3034 2003 2786 2293 
Q 2538 2584 2113 2584 
z
M 3366 4563 
L 3366 3988 
Q 3128 4100 2886 4159 
Q 2644 4219 2406 4219 
Q 1781 4219 1451 3797 
Q 1122 3375 1075 2522 
Q 1259 2794 1537 2939 
Q 1816 3084 2150 3084 
Q 2853 3084 3261 2657 
Q 3669 2231 3669 1497 
Q 3669 778 3244 343 
Q 2819 -91 2113 -91 
Q 1303 -91 875 529 
Q 447 1150 447 2328 
Q 447 3434 972 4092 
Q 1497 4750 2381 4750 
Q 2619 4750 2861 4703 
Q 3103 4656 3366 4563 
z
" transform="scale(0.015625)"/>
       </defs>
       <use xlink:href="#DejaVuSans-36"/>
       <use xlink:href="#DejaVuSans-30" x="63.623047"/>
       <use xlink:href="#DejaVuSans-30" x="127.246094"/>
      </g>
     </g>
    </g>
    <g id="xtick_4">
     <g id="line2d_4">
      <path d="M 1081.448562 989.34 
L 1081.448562 7.2 
" clip-path="url(#p33a7ad091b)" style="fill: none; stroke: #cccccc; stroke-linecap: round"/>
     </g>
     <g id="text_4">
      <!-- 800 -->
      <g style="fill: #262626" transform="translate(1049.954187 1026.914844) scale(0.33 -0.33)">
       <defs>
        <path id="DejaVuSans-38" d="M 2034 2216 
Q 1584 2216 1326 1975 
Q 1069 1734 1069 1313 
Q 1069 891 1326 650 
Q 1584 409 2034 409 
Q 2484 409 2743 651 
Q 3003 894 3003 1313 
Q 3003 1734 2745 1975 
Q 2488 2216 2034 2216 
z
M 1403 2484 
Q 997 2584 770 2862 
Q 544 3141 544 3541 
Q 544 4100 942 4425 
Q 1341 4750 2034 4750 
Q 2731 4750 3128 4425 
Q 3525 4100 3525 3541 
Q 3525 3141 3298 2862 
Q 3072 2584 2669 2484 
Q 3125 2378 3379 2068 
Q 3634 1759 3634 1313 
Q 3634 634 3220 271 
Q 2806 -91 2034 -91 
Q 1263 -91 848 271 
Q 434 634 434 1313 
Q 434 1759 690 2068 
Q 947 2378 1403 2484 
z
M 1172 3481 
Q 1172 3119 1398 2916 
Q 1625 2713 2034 2713 
Q 2441 2713 2670 2916 
Q 2900 3119 2900 3481 
Q 2900 3844 2670 4047 
Q 2441 4250 2034 4250 
Q 1625 4250 1398 4047 
Q 1172 3844 1172 3481 
z
" transform="scale(0.015625)"/>
       </defs>
       <use xlink:href="#DejaVuSans-38"/>
       <use xlink:href="#DejaVuSans-30" x="63.623047"/>
       <use xlink:href="#DejaVuSans-30" x="127.246094"/>
      </g>
     </g>
    </g>
    <g id="xtick_5">
     <g id="line2d_5">
      <path d="M 1325.116879 989.34 
L 1325.116879 7.2 
" clip-path="url(#p33a7ad091b)" style="fill: none; stroke: #cccccc; stroke-linecap: round"/>
     </g>
     <g id="text_5">
      <!-- 1000 -->
      <g style="fill: #262626" transform="translate(1283.124379 1026.914844) scale(0.33 -0.33)">
       <defs>
        <path id="DejaVuSans-31" d="M 794 531 
L 1825 531 
L 1825 4091 
L 703 3866 
L 703 4441 
L 1819 4666 
L 2450 4666 
L 2450 531 
L 3481 531 
L 3481 0 
L 794 0 
L 794 531 
z
" transform="scale(0.015625)"/>
       </defs>
       <use xlink:href="#DejaVuSans-31"/>
       <use xlink:href="#DejaVuSans-30" x="63.623047"/>
       <use xlink:href="#DejaVuSans-30" x="127.246094"/>
       <use xlink:href="#DejaVuSans-30" x="190.869141"/>
      </g>
     </g>
    </g>
    <g id="xtick_6">
     <g id="line2d_6">
      <path d="M 167.692373 989.34 
L 167.692373 7.2 
" clip-path="url(#p33a7ad091b)" style="fill: none; stroke: #cccccc; stroke-width: 0.5; stroke-linecap: round"/>
     </g>
    </g>
    <g id="xtick_7">
     <g id="line2d_7">
      <path d="M 228.609453 989.34 
L 228.609453 7.2 
" clip-path="url(#p33a7ad091b)" style="fill: none; stroke: #cccccc; stroke-width: 0.5; stroke-linecap: round"/>
     </g>
    </g>
    <g id="xtick_8">
     <g id="line2d_8">
      <path d="M 289.526532 989.34 
L 289.526532 7.2 
" clip-path="url(#p33a7ad091b)" style="fill: none; stroke: #cccccc; stroke-width: 0.5; stroke-linecap: round"/>
     </g>
    </g>
    <g id="xtick_9">
     <g id="line2d_9">
      <path d="M 411.36069 989.34 
L 411.36069 7.2 
" clip-path="url(#p33a7ad091b)" style="fill: none; stroke: #cccccc; stroke-width: 0.5; stroke-linecap: round"/>
     </g>
    </g>
    <g id="xtick_10">
     <g id="line2d_10">
      <path d="M 472.27777 989.34 
L 472.27777 7.2 
" clip-path="url(#p33a7ad091b)" style="fill: none; stroke: #cccccc; stroke-width: 0.5; stroke-linecap: round"/>
     </g>
    </g>
    <g id="xtick_11">
     <g id="line2d_11">
      <path d="M 533.194849 989.34 
L 533.194849 7.2 
" clip-path="url(#p33a7ad091b)" style="fill: none; stroke: #cccccc; stroke-width: 0.5; stroke-linecap: round"/>
     </g>
    </g>
    <g id="xtick_12">
     <g id="line2d_12">
      <path d="M 655.029007 989.34 
L 655.029007 7.2 
" clip-path="url(#p33a7ad091b)" style="fill: none; stroke: #cccccc; stroke-width: 0.5; stroke-linecap: round"/>
     </g>
    </g>
    <g id="xtick_13">
     <g id="line2d_13">
      <path d="M 715.946087 989.34 
L 715.946087 7.2 
" clip-path="url(#p33a7ad091b)" style="fill: none; stroke: #cccccc; stroke-width: 0.5; stroke-linecap: round"/>
     </g>
    </g>
    <g id="xtick_14">
     <g id="line2d_14">
      <path d="M 776.863166 989.34 
L 776.863166 7.2 
" clip-path="url(#p33a7ad091b)" style="fill: none; stroke: #cccccc; stroke-width: 0.5; stroke-linecap: round"/>
     </g>
    </g>
    <g id="xtick_15">
     <g id="line2d_15">
      <path d="M 898.697324 989.34 
L 898.697324 7.2 
" clip-path="url(#p33a7ad091b)" style="fill: none; stroke: #cccccc; stroke-width: 0.5; stroke-linecap: round"/>
     </g>
    </g>
    <g id="xtick_16">
     <g id="line2d_16">
      <path d="M 959.614404 989.34 
L 959.614404 7.2 
" clip-path="url(#p33a7ad091b)" style="fill: none; stroke: #cccccc; stroke-width: 0.5; stroke-linecap: round"/>
     </g>
    </g>
    <g id="xtick_17">
     <g id="line2d_17">
      <path d="M 1020.531483 989.34 
L 1020.531483 7.2 
" clip-path="url(#p33a7ad091b)" style="fill: none; stroke: #cccccc; stroke-width: 0.5; stroke-linecap: round"/>
     </g>
    </g>
    <g id="xtick_18">
     <g id="line2d_18">
      <path d="M 1142.365641 989.34 
L 1142.365641 7.2 
" clip-path="url(#p33a7ad091b)" style="fill: none; stroke: #cccccc; stroke-width: 0.5; stroke-linecap: round"/>
     </g>
    </g>
    <g id="xtick_19">
     <g id="line2d_19">
      <path d="M 1203.282721 989.34 
L 1203.282721 7.2 
" clip-path="url(#p33a7ad091b)" style="fill: none; stroke: #cccccc; stroke-width: 0.5; stroke-linecap: round"/>
     </g>
    </g>
    <g id="xtick_20">
     <g id="line2d_20">
      <path d="M 1264.1998 989.34 
L 1264.1998 7.2 
" clip-path="url(#p33a7ad091b)" style="fill: none; stroke: #cccccc; stroke-width: 0.5; stroke-linecap: round"/>
     </g>
    </g>
    <g id="xtick_21">
     <g id="line2d_21">
      <path d="M 1386.033958 989.34 
L 1386.033958 7.2 
" clip-path="url(#p33a7ad091b)" style="fill: none; stroke: #cccccc; stroke-width: 0.5; stroke-linecap: round"/>
     </g>
    </g>
    <g id="text_6">
     <!-- average absolute e2e testing time of retest-all [s] -->
     <g style="fill: #262626" transform="translate(328.253437 1065.132187) scale(0.36 -0.36)">
      <defs>
       <path id="DejaVuSans-61" d="M 2194 1759 
Q 1497 1759 1228 1600 
Q 959 1441 959 1056 
Q 959 750 1161 570 
Q 1363 391 1709 391 
Q 2188 391 2477 730 
Q 2766 1069 2766 1631 
L 2766 1759 
L 2194 1759 
z
M 3341 1997 
L 3341 0 
L 2766 0 
L 2766 531 
Q 2569 213 2275 61 
Q 1981 -91 1556 -91 
Q 1019 -91 701 211 
Q 384 513 384 1019 
Q 384 1609 779 1909 
Q 1175 2209 1959 2209 
L 2766 2209 
L 2766 2266 
Q 2766 2663 2505 2880 
Q 2244 3097 1772 3097 
Q 1472 3097 1187 3025 
Q 903 2953 641 2809 
L 641 3341 
Q 956 3463 1253 3523 
Q 1550 3584 1831 3584 
Q 2591 3584 2966 3190 
Q 3341 2797 3341 1997 
z
" transform="scale(0.015625)"/>
       <path id="DejaVuSans-76" d="M 191 3500 
L 800 3500 
L 1894 563 
L 2988 3500 
L 3597 3500 
L 2284 0 
L 1503 0 
L 191 3500 
z
" transform="scale(0.015625)"/>
       <path id="DejaVuSans-65" d="M 3597 1894 
L 3597 1613 
L 953 1613 
Q 991 1019 1311 708 
Q 1631 397 2203 397 
Q 2534 397 2845 478 
Q 3156 559 3463 722 
L 3463 178 
Q 3153 47 2828 -22 
Q 2503 -91 2169 -91 
Q 1331 -91 842 396 
Q 353 884 353 1716 
Q 353 2575 817 3079 
Q 1281 3584 2069 3584 
Q 2775 3584 3186 3129 
Q 3597 2675 3597 1894 
z
M 3022 2063 
Q 3016 2534 2758 2815 
Q 2500 3097 2075 3097 
Q 1594 3097 1305 2825 
Q 1016 2553 972 2059 
L 3022 2063 
z
" transform="scale(0.015625)"/>
       <path id="DejaVuSans-72" d="M 2631 2963 
Q 2534 3019 2420 3045 
Q 2306 3072 2169 3072 
Q 1681 3072 1420 2755 
Q 1159 2438 1159 1844 
L 1159 0 
L 581 0 
L 581 3500 
L 1159 3500 
L 1159 2956 
Q 1341 3275 1631 3429 
Q 1922 3584 2338 3584 
Q 2397 3584 2469 3576 
Q 2541 3569 2628 3553 
L 2631 2963 
z
" transform="scale(0.015625)"/>
       <path id="DejaVuSans-67" d="M 2906 1791 
Q 2906 2416 2648 2759 
Q 2391 3103 1925 3103 
Q 1463 3103 1205 2759 
Q 947 2416 947 1791 
Q 947 1169 1205 825 
Q 1463 481 1925 481 
Q 2391 481 2648 825 
Q 2906 1169 2906 1791 
z
M 3481 434 
Q 3481 -459 3084 -895 
Q 2688 -1331 1869 -1331 
Q 1566 -1331 1297 -1286 
Q 1028 -1241 775 -1147 
L 775 -588 
Q 1028 -725 1275 -790 
Q 1522 -856 1778 -856 
Q 2344 -856 2625 -561 
Q 2906 -266 2906 331 
L 2906 616 
Q 2728 306 2450 153 
Q 2172 0 1784 0 
Q 1141 0 747 490 
Q 353 981 353 1791 
Q 353 2603 747 3093 
Q 1141 3584 1784 3584 
Q 2172 3584 2450 3431 
Q 2728 3278 2906 2969 
L 2906 3500 
L 3481 3500 
L 3481 434 
z
" transform="scale(0.015625)"/>
       <path id="DejaVuSans-20" transform="scale(0.015625)"/>
       <path id="DejaVuSans-62" d="M 3116 1747 
Q 3116 2381 2855 2742 
Q 2594 3103 2138 3103 
Q 1681 3103 1420 2742 
Q 1159 2381 1159 1747 
Q 1159 1113 1420 752 
Q 1681 391 2138 391 
Q 2594 391 2855 752 
Q 3116 1113 3116 1747 
z
M 1159 2969 
Q 1341 3281 1617 3432 
Q 1894 3584 2278 3584 
Q 2916 3584 3314 3078 
Q 3713 2572 3713 1747 
Q 3713 922 3314 415 
Q 2916 -91 2278 -91 
Q 1894 -91 1617 61 
Q 1341 213 1159 525 
L 1159 0 
L 581 0 
L 581 4863 
L 1159 4863 
L 1159 2969 
z
" transform="scale(0.015625)"/>
       <path id="DejaVuSans-73" d="M 2834 3397 
L 2834 2853 
Q 2591 2978 2328 3040 
Q 2066 3103 1784 3103 
Q 1356 3103 1142 2972 
Q 928 2841 928 2578 
Q 928 2378 1081 2264 
Q 1234 2150 1697 2047 
L 1894 2003 
Q 2506 1872 2764 1633 
Q 3022 1394 3022 966 
Q 3022 478 2636 193 
Q 2250 -91 1575 -91 
Q 1294 -91 989 -36 
Q 684 19 347 128 
L 347 722 
Q 666 556 975 473 
Q 1284 391 1588 391 
Q 1994 391 2212 530 
Q 2431 669 2431 922 
Q 2431 1156 2273 1281 
Q 2116 1406 1581 1522 
L 1381 1569 
Q 847 1681 609 1914 
Q 372 2147 372 2553 
Q 372 3047 722 3315 
Q 1072 3584 1716 3584 
Q 2034 3584 2315 3537 
Q 2597 3491 2834 3397 
z
" transform="scale(0.015625)"/>
       <path id="DejaVuSans-6f" d="M 1959 3097 
Q 1497 3097 1228 2736 
Q 959 2375 959 1747 
Q 959 1119 1226 758 
Q 1494 397 1959 397 
Q 2419 397 2687 759 
Q 2956 1122 2956 1747 
Q 2956 2369 2687 2733 
Q 2419 3097 1959 3097 
z
M 1959 3584 
Q 2709 3584 3137 3096 
Q 3566 2609 3566 1747 
Q 3566 888 3137 398 
Q 2709 -91 1959 -91 
Q 1206 -91 779 398 
Q 353 888 353 1747 
Q 353 2609 779 3096 
Q 1206 3584 1959 3584 
z
" transform="scale(0.015625)"/>
       <path id="DejaVuSans-6c" d="M 603 4863 
L 1178 4863 
L 1178 0 
L 603 0 
L 603 4863 
z
" transform="scale(0.015625)"/>
       <path id="DejaVuSans-75" d="M 544 1381 
L 544 3500 
L 1119 3500 
L 1119 1403 
Q 1119 906 1312 657 
Q 1506 409 1894 409 
Q 2359 409 2629 706 
Q 2900 1003 2900 1516 
L 2900 3500 
L 3475 3500 
L 3475 0 
L 2900 0 
L 2900 538 
Q 2691 219 2414 64 
Q 2138 -91 1772 -91 
Q 1169 -91 856 284 
Q 544 659 544 1381 
z
M 1991 3584 
L 1991 3584 
z
" transform="scale(0.015625)"/>
       <path id="DejaVuSans-74" d="M 1172 4494 
L 1172 3500 
L 2356 3500 
L 2356 3053 
L 1172 3053 
L 1172 1153 
Q 1172 725 1289 603 
Q 1406 481 1766 481 
L 2356 481 
L 2356 0 
L 1766 0 
Q 1100 0 847 248 
Q 594 497 594 1153 
L 594 3053 
L 172 3053 
L 172 3500 
L 594 3500 
L 594 4494 
L 1172 4494 
z
" transform="scale(0.015625)"/>
       <path id="DejaVuSans-69" d="M 603 3500 
L 1178 3500 
L 1178 0 
L 603 0 
L 603 3500 
z
M 603 4863 
L 1178 4863 
L 1178 4134 
L 603 4134 
L 603 4863 
z
" transform="scale(0.015625)"/>
       <path id="DejaVuSans-6e" d="M 3513 2113 
L 3513 0 
L 2938 0 
L 2938 2094 
Q 2938 2591 2744 2837 
Q 2550 3084 2163 3084 
Q 1697 3084 1428 2787 
Q 1159 2491 1159 1978 
L 1159 0 
L 581 0 
L 581 3500 
L 1159 3500 
L 1159 2956 
Q 1366 3272 1645 3428 
Q 1925 3584 2291 3584 
Q 2894 3584 3203 3211 
Q 3513 2838 3513 2113 
z
" transform="scale(0.015625)"/>
       <path id="DejaVuSans-6d" d="M 3328 2828 
Q 3544 3216 3844 3400 
Q 4144 3584 4550 3584 
Q 5097 3584 5394 3201 
Q 5691 2819 5691 2113 
L 5691 0 
L 5113 0 
L 5113 2094 
Q 5113 2597 4934 2840 
Q 4756 3084 4391 3084 
Q 3944 3084 3684 2787 
Q 3425 2491 3425 1978 
L 3425 0 
L 2847 0 
L 2847 2094 
Q 2847 2600 2669 2842 
Q 2491 3084 2119 3084 
Q 1678 3084 1418 2786 
Q 1159 2488 1159 1978 
L 1159 0 
L 581 0 
L 581 3500 
L 1159 3500 
L 1159 2956 
Q 1356 3278 1631 3431 
Q 1906 3584 2284 3584 
Q 2666 3584 2933 3390 
Q 3200 3197 3328 2828 
z
" transform="scale(0.015625)"/>
       <path id="DejaVuSans-66" d="M 2375 4863 
L 2375 4384 
L 1825 4384 
Q 1516 4384 1395 4259 
Q 1275 4134 1275 3809 
L 1275 3500 
L 2222 3500 
L 2222 3053 
L 1275 3053 
L 1275 0 
L 697 0 
L 697 3053 
L 147 3053 
L 147 3500 
L 697 3500 
L 697 3744 
Q 697 4328 969 4595 
Q 1241 4863 1831 4863 
L 2375 4863 
z
" transform="scale(0.015625)"/>
       <path id="DejaVuSans-2d" d="M 313 2009 
L 1997 2009 
L 1997 1497 
L 313 1497 
L 313 2009 
z
" transform="scale(0.015625)"/>
       <path id="DejaVuSans-5b" d="M 550 4863 
L 1875 4863 
L 1875 4416 
L 1125 4416 
L 1125 -397 
L 1875 -397 
L 1875 -844 
L 550 -844 
L 550 4863 
z
" transform="scale(0.015625)"/>
       <path id="DejaVuSans-5d" d="M 1947 4863 
L 1947 -844 
L 622 -844 
L 622 -397 
L 1369 -397 
L 1369 4416 
L 622 4416 
L 622 4863 
L 1947 4863 
z
" transform="scale(0.015625)"/>
      </defs>
      <use xlink:href="#DejaVuSans-61"/>
      <use xlink:href="#DejaVuSans-76" x="61.279297"/>
      <use xlink:href="#DejaVuSans-65" x="120.458984"/>
      <use xlink:href="#DejaVuSans-72" x="181.982422"/>
      <use xlink:href="#DejaVuSans-61" x="223.095703"/>
      <use xlink:href="#DejaVuSans-67" x="284.375"/>
      <use xlink:href="#DejaVuSans-65" x="347.851562"/>
      <use xlink:href="#DejaVuSans-20" x="409.375"/>
      <use xlink:href="#DejaVuSans-61" x="441.162109"/>
      <use xlink:href="#DejaVuSans-62" x="502.441406"/>
      <use xlink:href="#DejaVuSans-73" x="565.917969"/>
      <use xlink:href="#DejaVuSans-6f" x="618.017578"/>
      <use xlink:href="#DejaVuSans-6c" x="679.199219"/>
      <use xlink:href="#DejaVuSans-75" x="706.982422"/>
      <use xlink:href="#DejaVuSans-74" x="770.361328"/>
      <use xlink:href="#DejaVuSans-65" x="809.570312"/>
      <use xlink:href="#DejaVuSans-20" x="871.09375"/>
      <use xlink:href="#DejaVuSans-65" x="902.880859"/>
      <use xlink:href="#DejaVuSans-32" x="964.404297"/>
      <use xlink:href="#DejaVuSans-65" x="1028.027344"/>
      <use xlink:href="#DejaVuSans-20" x="1089.550781"/>
      <use xlink:href="#DejaVuSans-74" x="1121.337891"/>
      <use xlink:href="#DejaVuSans-65" x="1160.546875"/>
      <use xlink:href="#DejaVuSans-73" x="1222.070312"/>
      <use xlink:href="#DejaVuSans-74" x="1274.169922"/>
      <use xlink:href="#DejaVuSans-69" x="1313.378906"/>
      <use xlink:href="#DejaVuSans-6e" x="1341.162109"/>
      <use xlink:href="#DejaVuSans-67" x="1404.541016"/>
      <use xlink:href="#DejaVuSans-20" x="1468.017578"/>
      <use xlink:href="#DejaVuSans-74" x="1499.804688"/>
      <use xlink:href="#DejaVuSans-69" x="1539.013672"/>
      <use xlink:href="#DejaVuSans-6d" x="1566.796875"/>
      <use xlink:href="#DejaVuSans-65" x="1664.208984"/>
      <use xlink:href="#DejaVuSans-20" x="1725.732422"/>
      <use xlink:href="#DejaVuSans-6f" x="1757.519531"/>
      <use xlink:href="#DejaVuSans-66" x="1818.701172"/>
      <use xlink:href="#DejaVuSans-20" x="1853.90625"/>
      <use xlink:href="#DejaVuSans-72" x="1885.693359"/>
      <use xlink:href="#DejaVuSans-65" x="1924.556641"/>
      <use xlink:href="#DejaVuSans-74" x="1986.080078"/>
      <use xlink:href="#DejaVuSans-65" x="2025.289062"/>
      <use xlink:href="#DejaVuSans-73" x="2086.8125"/>
      <use xlink:href="#DejaVuSans-74" x="2138.912109"/>
      <use xlink:href="#DejaVuSans-2d" x="2178.121094"/>
      <use xlink:href="#DejaVuSans-61" x="2214.205078"/>
      <use xlink:href="#DejaVuSans-6c" x="2275.484375"/>
      <use xlink:href="#DejaVuSans-6c" x="2303.267578"/>
      <use xlink:href="#DejaVuSans-20" x="2331.050781"/>
      <use xlink:href="#DejaVuSans-5b" x="2362.837891"/>
      <use xlink:href="#DejaVuSans-73" x="2401.851562"/>
      <use xlink:href="#DejaVuSans-5d" x="2453.951172"/>
     </g>
    </g>
   </g>
   <g id="matplotlib.axis_2">
    <g id="ytick_1">
     <g id="line2d_22">
      <path d="M 121.17 953.577134 
L 1432.8 953.577134 
" clip-path="url(#p33a7ad091b)" style="fill: none; stroke: #cccccc; stroke-linecap: round"/>
     </g>
     <g id="text_7">
      <!-- 20 -->
      <g style="fill: #262626" transform="translate(66.6775 966.114556) scale(0.33 -0.33)">
       <use xlink:href="#DejaVuSans-32"/>
       <use xlink:href="#DejaVuSans-30" x="63.623047"/>
      </g>
     </g>
    </g>
    <g id="ytick_2">
     <g id="line2d_23">
      <path d="M 121.17 795.378115 
L 1432.8 795.378115 
" clip-path="url(#p33a7ad091b)" style="fill: none; stroke: #cccccc; stroke-linecap: round"/>
     </g>
     <g id="text_8">
      <!-- 40 -->
      <g style="fill: #262626" transform="translate(66.6775 807.915537) scale(0.33 -0.33)">
       <use xlink:href="#DejaVuSans-34"/>
       <use xlink:href="#DejaVuSans-30" x="63.623047"/>
      </g>
     </g>
    </g>
    <g id="ytick_3">
     <g id="line2d_24">
      <path d="M 121.17 637.179097 
L 1432.8 637.179097 
" clip-path="url(#p33a7ad091b)" style="fill: none; stroke: #cccccc; stroke-linecap: round"/>
     </g>
     <g id="text_9">
      <!-- 60 -->
      <g style="fill: #262626" transform="translate(66.6775 649.716519) scale(0.33 -0.33)">
       <use xlink:href="#DejaVuSans-36"/>
       <use xlink:href="#DejaVuSans-30" x="63.623047"/>
      </g>
     </g>
    </g>
    <g id="ytick_4">
     <g id="line2d_25">
      <path d="M 121.17 478.980078 
L 1432.8 478.980078 
" clip-path="url(#p33a7ad091b)" style="fill: none; stroke: #cccccc; stroke-linecap: round"/>
     </g>
     <g id="text_10">
      <!-- 80 -->
      <g style="fill: #262626" transform="translate(66.6775 491.5175) scale(0.33 -0.33)">
       <use xlink:href="#DejaVuSans-38"/>
       <use xlink:href="#DejaVuSans-30" x="63.623047"/>
      </g>
     </g>
    </g>
    <g id="ytick_5">
     <g id="line2d_26">
      <path d="M 121.17 320.781059 
L 1432.8 320.781059 
" clip-path="url(#p33a7ad091b)" style="fill: none; stroke: #cccccc; stroke-linecap: round"/>
     </g>
     <g id="text_11">
      <!-- 100 -->
      <g style="fill: #262626" transform="translate(45.68125 333.318481) scale(0.33 -0.33)">
       <use xlink:href="#DejaVuSans-31"/>
       <use xlink:href="#DejaVuSans-30" x="63.623047"/>
       <use xlink:href="#DejaVuSans-30" x="127.246094"/>
      </g>
     </g>
    </g>
    <g id="ytick_6">
     <g id="line2d_27">
      <path d="M 121.17 162.58204 
L 1432.8 162.58204 
" clip-path="url(#p33a7ad091b)" style="fill: none; stroke: #cccccc; stroke-linecap: round"/>
     </g>
     <g id="text_12">
      <!-- 120 -->
      <g style="fill: #262626" transform="translate(45.68125 175.119462) scale(0.33 -0.33)">
       <use xlink:href="#DejaVuSans-31"/>
       <use xlink:href="#DejaVuSans-32" x="63.623047"/>
       <use xlink:href="#DejaVuSans-30" x="127.246094"/>
      </g>
     </g>
    </g>
    <g id="ytick_7">
     <g id="line2d_28">
      <path d="M 121.17 914.02738 
L 1432.8 914.02738 
" clip-path="url(#p33a7ad091b)" style="fill: none; stroke: #cccccc; stroke-width: 0.5; stroke-linecap: round"/>
     </g>
    </g>
    <g id="ytick_8">
     <g id="line2d_29">
      <path d="M 121.17 874.477625 
L 1432.8 874.477625 
" clip-path="url(#p33a7ad091b)" style="fill: none; stroke: #cccccc; stroke-width: 0.5; stroke-linecap: round"/>
     </g>
    </g>
    <g id="ytick_9">
     <g id="line2d_30">
      <path d="M 121.17 834.92787 
L 1432.8 834.92787 
" clip-path="url(#p33a7ad091b)" style="fill: none; stroke: #cccccc; stroke-width: 0.5; stroke-linecap: round"/>
     </g>
    </g>
    <g id="ytick_10">
     <g id="line2d_31">
      <path d="M 121.17 755.828361 
L 1432.8 755.828361 
" clip-path="url(#p33a7ad091b)" style="fill: none; stroke: #cccccc; stroke-width: 0.5; stroke-linecap: round"/>
     </g>
    </g>
    <g id="ytick_11">
     <g id="line2d_32">
      <path d="M 121.17 716.278606 
L 1432.8 716.278606 
" clip-path="url(#p33a7ad091b)" style="fill: none; stroke: #cccccc; stroke-width: 0.5; stroke-linecap: round"/>
     </g>
    </g>
    <g id="ytick_12">
     <g id="line2d_33">
      <path d="M 121.17 676.728851 
L 1432.8 676.728851 
" clip-path="url(#p33a7ad091b)" style="fill: none; stroke: #cccccc; stroke-width: 0.5; stroke-linecap: round"/>
     </g>
    </g>
    <g id="ytick_13">
     <g id="line2d_34">
      <path d="M 121.17 597.629342 
L 1432.8 597.629342 
" clip-path="url(#p33a7ad091b)" style="fill: none; stroke: #cccccc; stroke-width: 0.5; stroke-linecap: round"/>
     </g>
    </g>
    <g id="ytick_14">
     <g id="line2d_35">
      <path d="M 121.17 558.079587 
L 1432.8 558.079587 
" clip-path="url(#p33a7ad091b)" style="fill: none; stroke: #cccccc; stroke-width: 0.5; stroke-linecap: round"/>
     </g>
    </g>
    <g id="ytick_15">
     <g id="line2d_36">
      <path d="M 121.17 518.529833 
L 1432.8 518.529833 
" clip-path="url(#p33a7ad091b)" style="fill: none; stroke: #cccccc; stroke-width: 0.5; stroke-linecap: round"/>
     </g>
    </g>
    <g id="ytick_16">
     <g id="line2d_37">
      <path d="M 121.17 439.430323 
L 1432.8 439.430323 
" clip-path="url(#p33a7ad091b)" style="fill: none; stroke: #cccccc; stroke-width: 0.5; stroke-linecap: round"/>
     </g>
    </g>
    <g id="ytick_17">
     <g id="line2d_38">
      <path d="M 121.17 399.880569 
L 1432.8 399.880569 
" clip-path="url(#p33a7ad091b)" style="fill: none; stroke: #cccccc; stroke-width: 0.5; stroke-linecap: round"/>
     </g>
    </g>
    <g id="ytick_18">
     <g id="line2d_39">
      <path d="M 121.17 360.330814 
L 1432.8 360.330814 
" clip-path="url(#p33a7ad091b)" style="fill: none; stroke: #cccccc; stroke-width: 0.5; stroke-linecap: round"/>
     </g>
    </g>
    <g id="ytick_19">
     <g id="line2d_40">
      <path d="M 121.17 281.231304 
L 1432.8 281.231304 
" clip-path="url(#p33a7ad091b)" style="fill: none; stroke: #cccccc; stroke-width: 0.5; stroke-linecap: round"/>
     </g>
    </g>
    <g id="ytick_20">
     <g id="line2d_41">
      <path d="M 121.17 241.68155 
L 1432.8 241.68155 
" clip-path="url(#p33a7ad091b)" style="fill: none; stroke: #cccccc; stroke-width: 0.5; stroke-linecap: round"/>
     </g>
    </g>
    <g id="ytick_21">
     <g id="line2d_42">
      <path d="M 121.17 202.131795 
L 1432.8 202.131795 
" clip-path="url(#p33a7ad091b)" style="fill: none; stroke: #cccccc; stroke-width: 0.5; stroke-linecap: round"/>
     </g>
    </g>
    <g id="ytick_22">
     <g id="line2d_43">
      <path d="M 121.17 123.032286 
L 1432.8 123.032286 
" clip-path="url(#p33a7ad091b)" style="fill: none; stroke: #cccccc; stroke-width: 0.5; stroke-linecap: round"/>
     </g>
    </g>
    <g id="ytick_23">
     <g id="line2d_44">
      <path d="M 121.17 83.482531 
L 1432.8 83.482531 
" clip-path="url(#p33a7ad091b)" style="fill: none; stroke: #cccccc; stroke-width: 0.5; stroke-linecap: round"/>
     </g>
    </g>
    <g id="ytick_24">
     <g id="line2d_45">
      <path d="M 121.17 43.932776 
L 1432.8 43.932776 
" clip-path="url(#p33a7ad091b)" style="fill: none; stroke: #cccccc; stroke-width: 0.5; stroke-linecap: round"/>
     </g>
    </g>
    <g id="text_13">
     <!-- average relative e2e testing time [%] -->
     <g style="fill: #262626" transform="translate(34.194375 836.273438) rotate(-90) scale(0.36 -0.36)">
      <defs>
       <path id="DejaVuSans-25" d="M 4653 2053 
Q 4381 2053 4226 1822 
Q 4072 1591 4072 1178 
Q 4072 772 4226 539 
Q 4381 306 4653 306 
Q 4919 306 5073 539 
Q 5228 772 5228 1178 
Q 5228 1588 5073 1820 
Q 4919 2053 4653 2053 
z
M 4653 2450 
Q 5147 2450 5437 2106 
Q 5728 1763 5728 1178 
Q 5728 594 5436 251 
Q 5144 -91 4653 -91 
Q 4153 -91 3862 251 
Q 3572 594 3572 1178 
Q 3572 1766 3864 2108 
Q 4156 2450 4653 2450 
z
M 1428 4353 
Q 1159 4353 1004 4120 
Q 850 3888 850 3481 
Q 850 3069 1003 2837 
Q 1156 2606 1428 2606 
Q 1700 2606 1854 2837 
Q 2009 3069 2009 3481 
Q 2009 3884 1853 4118 
Q 1697 4353 1428 4353 
z
M 4250 4750 
L 4750 4750 
L 1831 -91 
L 1331 -91 
L 4250 4750 
z
M 1428 4750 
Q 1922 4750 2215 4408 
Q 2509 4066 2509 3481 
Q 2509 2891 2217 2550 
Q 1925 2209 1428 2209 
Q 931 2209 642 2551 
Q 353 2894 353 3481 
Q 353 4063 643 4406 
Q 934 4750 1428 4750 
z
" transform="scale(0.015625)"/>
      </defs>
      <use xlink:href="#DejaVuSans-61"/>
      <use xlink:href="#DejaVuSans-76" x="61.279297"/>
      <use xlink:href="#DejaVuSans-65" x="120.458984"/>
      <use xlink:href="#DejaVuSans-72" x="181.982422"/>
      <use xlink:href="#DejaVuSans-61" x="223.095703"/>
      <use xlink:href="#DejaVuSans-67" x="284.375"/>
      <use xlink:href="#DejaVuSans-65" x="347.851562"/>
      <use xlink:href="#DejaVuSans-20" x="409.375"/>
      <use xlink:href="#DejaVuSans-72" x="441.162109"/>
      <use xlink:href="#DejaVuSans-65" x="480.025391"/>
      <use xlink:href="#DejaVuSans-6c" x="541.548828"/>
      <use xlink:href="#DejaVuSans-61" x="569.332031"/>
      <use xlink:href="#DejaVuSans-74" x="630.611328"/>
      <use xlink:href="#DejaVuSans-69" x="669.820312"/>
      <use xlink:href="#DejaVuSans-76" x="697.603516"/>
      <use xlink:href="#DejaVuSans-65" x="756.783203"/>
      <use xlink:href="#DejaVuSans-20" x="818.306641"/>
      <use xlink:href="#DejaVuSans-65" x="850.09375"/>
      <use xlink:href="#DejaVuSans-32" x="911.617188"/>
      <use xlink:href="#DejaVuSans-65" x="975.240234"/>
      <use xlink:href="#DejaVuSans-20" x="1036.763672"/>
      <use xlink:href="#DejaVuSans-74" x="1068.550781"/>
      <use xlink:href="#DejaVuSans-65" x="1107.759766"/>
      <use xlink:href="#DejaVuSans-73" x="1169.283203"/>
      <use xlink:href="#DejaVuSans-74" x="1221.382812"/>
      <use xlink:href="#DejaVuSans-69" x="1260.591797"/>
      <use xlink:href="#DejaVuSans-6e" x="1288.375"/>
      <use xlink:href="#DejaVuSans-67" x="1351.753906"/>
      <use xlink:href="#DejaVuSans-20" x="1415.230469"/>
      <use xlink:href="#DejaVuSans-74" x="1447.017578"/>
      <use xlink:href="#DejaVuSans-69" x="1486.226562"/>
      <use xlink:href="#DejaVuSans-6d" x="1514.009766"/>
      <use xlink:href="#DejaVuSans-65" x="1611.421875"/>
      <use xlink:href="#DejaVuSans-20" x="1672.945312"/>
      <use xlink:href="#DejaVuSans-5b" x="1704.732422"/>
      <use xlink:href="#DejaVuSans-25" x="1743.746094"/>
      <use xlink:href="#DejaVuSans-5d" x="1838.765625"/>
     </g>
    </g>
   </g>
   <g id="PathCollection_1">
    <defs>
     <path id="C0_0_f9aa297df1" d="M 0 4.5 
C 1.193414 4.5 2.338109 4.025852 3.181981 3.181981 
C 4.025852 2.338109 4.5 1.193414 4.5 -0 
C 4.5 -1.193414 4.025852 -2.338109 3.181981 -3.181981 
C 2.338109 -4.025852 1.193414 -4.5 0 -4.5 
C -1.193414 -4.5 -2.338109 -4.025852 -3.181981 -3.181981 
C -4.025852 -2.338109 -4.5 -1.193414 -4.5 0 
C -4.5 1.193414 -4.025852 2.338109 -3.181981 3.181981 
C -2.338109 4.025852 -1.193414 4.5 0 4.5 
z
"/>
    </defs>
    <g clip-path="url(#p33a7ad091b)">
     <use xlink:href="#C0_0_f9aa297df1" x="431.780095" y="708.368655" style="fill: #e37222; stroke: #000000"/>
    </g>
    <g clip-path="url(#p33a7ad091b)">
     <use xlink:href="#C0_0_f9aa297df1" x="1373.180455" y="684.638802" style="fill: #e37222; stroke: #000000"/>
    </g>
    <g clip-path="url(#p33a7ad091b)">
     <use xlink:href="#C0_0_f9aa297df1" x="196.518335" y="565.989538" style="fill: #e37222; stroke: #000000"/>
    </g>
    <g clip-path="url(#p33a7ad091b)">
     <use xlink:href="#C0_0_f9aa297df1" x="214.342673" y="755.828361" style="fill: #e37222; stroke: #000000"/>
    </g>
    <g clip-path="url(#p33a7ad091b)">
     <use xlink:href="#C0_0_f9aa297df1" x="371.41127" y="660.908949" style="fill: #e37222; stroke: #000000"/>
    </g>
    <g clip-path="url(#p33a7ad091b)">
     <use xlink:href="#C0_0_f9aa297df1" x="434.886866" y="573.899489" style="fill: #e37222; stroke: #000000"/>
    </g>
    <g clip-path="url(#p33a7ad091b)">
     <use xlink:href="#C0_0_f9aa297df1" x="231.740591" y="708.368655" style="fill: #e37222; stroke: #000000"/>
    </g>
    <g clip-path="url(#p33a7ad091b)">
     <use xlink:href="#C0_0_f9aa297df1" x="231.557839" y="431.520372" style="fill: #e37222; stroke: #000000"/>
    </g>
    <g clip-path="url(#p33a7ad091b)">
     <use xlink:href="#C0_0_f9aa297df1" x="531.84249" y="763.738312" style="fill: #e37222; stroke: #000000"/>
    </g>
    <g clip-path="url(#p33a7ad091b)">
     <use xlink:href="#C0_0_f9aa297df1" x="264.258127" y="755.828361" style="fill: #e37222; stroke: #000000"/>
    </g>
    <g clip-path="url(#p33a7ad091b)">
     <use xlink:href="#C0_0_f9aa297df1" x="360.336545" y="51.842727" style="fill: #e37222; stroke: #000000"/>
    </g>
    <g clip-path="url(#p33a7ad091b)">
     <use xlink:href="#C0_0_f9aa297df1" x="180.789545" y="312.871108" style="fill: #e37222; stroke: #000000"/>
    </g>
    <g clip-path="url(#p33a7ad091b)">
     <use xlink:href="#C0_0_f9aa297df1" x="431.780095" y="376.150716" style="fill: #a2ad00; stroke: #000000"/>
    </g>
    <g clip-path="url(#p33a7ad091b)">
     <use xlink:href="#C0_0_f9aa297df1" x="1373.180455" y="652.998999" style="fill: #a2ad00; stroke: #000000"/>
    </g>
    <g clip-path="url(#p33a7ad091b)">
     <use xlink:href="#C0_0_f9aa297df1" x="196.518335" y="534.349734" style="fill: #a2ad00; stroke: #000000"/>
    </g>
    <g clip-path="url(#p33a7ad091b)">
     <use xlink:href="#C0_0_f9aa297df1" x="214.342673" y="724.188557" style="fill: #a2ad00; stroke: #000000"/>
    </g>
    <g clip-path="url(#p33a7ad091b)">
     <use xlink:href="#C0_0_f9aa297df1" x="371.41127" y="668.8189" style="fill: #a2ad00; stroke: #000000"/>
    </g>
    <g clip-path="url(#p33a7ad091b)">
     <use xlink:href="#C0_0_f9aa297df1" x="434.886866" y="534.349734" style="fill: #a2ad00; stroke: #000000"/>
    </g>
    <g clip-path="url(#p33a7ad091b)">
     <use xlink:href="#C0_0_f9aa297df1" x="231.740591" y="597.629342" style="fill: #a2ad00; stroke: #000000"/>
    </g>
    <g clip-path="url(#p33a7ad091b)">
     <use xlink:href="#C0_0_f9aa297df1" x="231.557839" y="423.610421" style="fill: #a2ad00; stroke: #000000"/>
    </g>
    <g clip-path="url(#p33a7ad091b)">
     <use xlink:href="#C0_0_f9aa297df1" x="531.84249" y="455.250225" style="fill: #a2ad00; stroke: #000000"/>
    </g>
    <g clip-path="url(#p33a7ad091b)">
     <use xlink:href="#C0_0_f9aa297df1" x="264.258127" y="708.368655" style="fill: #a2ad00; stroke: #000000"/>
    </g>
    <g clip-path="url(#p33a7ad091b)">
     <use xlink:href="#C0_0_f9aa297df1" x="360.336545" y="407.790519" style="fill: #a2ad00; stroke: #000000"/>
    </g>
    <g clip-path="url(#p33a7ad091b)">
     <use xlink:href="#C0_0_f9aa297df1" x="180.789545" y="281.231304" style="fill: #a2ad00; stroke: #000000"/>
    </g>
   </g>
   <g id="PathCollection_2"/>
   <g id="PathCollection_3"/>
   <g id="PolyCollection_1">
    <defs>
     <path id="md39d45c6a9" d="M 121.17 -978.961462 
L 121.17 -242.544819 
L 134.418788 -288.10201 
L 147.667576 -322.495098 
L 160.916364 -342.273097 
L 174.165152 -366.121528 
L 187.413939 -386.5341 
L 200.662727 -394.604209 
L 213.911515 -396.12469 
L 227.160303 -396.890779 
L 240.409091 -397.571019 
L 253.657879 -395.325307 
L 266.906667 -397.662693 
L 280.155455 -393.114016 
L 293.404242 -390.448066 
L 306.65303 -391.443298 
L 319.901818 -391.536123 
L 333.150606 -388.477018 
L 346.399394 -383.810651 
L 359.648182 -380.460384 
L 372.89697 -379.729558 
L 386.145758 -372.43985 
L 399.394545 -370.634898 
L 412.643333 -365.956051 
L 425.892121 -361.436263 
L 439.140909 -355.506445 
L 452.389697 -350.686839 
L 465.638485 -344.91697 
L 478.887273 -339.907665 
L 492.136061 -334.872992 
L 505.384848 -328.214512 
L 518.633636 -323.83114 
L 531.882424 -317.965462 
L 545.131212 -313.28169 
L 558.38 -308.103046 
L 571.628788 -302.885939 
L 584.877576 -297.818424 
L 598.126364 -292.899361 
L 611.375152 -288.111188 
L 624.623939 -283.454296 
L 637.872727 -280.143602 
L 651.121515 -276.169498 
L 664.370303 -271.754411 
L 677.619091 -267.449266 
L 690.867879 -264.265294 
L 704.116667 -261.747729 
L 717.365455 -258.440327 
L 730.614242 -255.214632 
L 743.86303 -252.056728 
L 757.111818 -248.963824 
L 770.360606 -245.933299 
L 783.609394 -242.962685 
L 796.858182 -240.04966 
L 810.10697 -237.192033 
L 823.355758 -233.080463 
L 836.604545 -228.71638 
L 849.853333 -225.972697 
L 863.102121 -223.277504 
L 876.350909 -220.666304 
L 889.599697 -218.109656 
L 902.848485 -215.595917 
L 916.097273 -213.12367 
L 929.346061 -210.691567 
L 942.594848 -208.298326 
L 955.843636 -205.942724 
L 969.092424 -203.623595 
L 982.341212 -201.339828 
L 995.59 -199.09036 
L 1008.838788 -196.874176 
L 1022.087576 -194.690305 
L 1035.336364 -192.537819 
L 1048.585152 -190.415828 
L 1061.833939 -188.323481 
L 1075.082727 -186.25996 
L 1088.331515 -184.224482 
L 1101.580303 -182.216295 
L 1114.829091 -180.234676 
L 1128.077879 -178.278933 
L 1141.326667 -176.348398 
L 1154.575455 -174.442429 
L 1167.824242 -172.52889 
L 1181.07303 -170.456708 
L 1194.321818 -168.409926 
L 1207.570606 -166.387927 
L 1220.819394 -164.390119 
L 1234.068182 -162.415931 
L 1247.31697 -160.46481 
L 1260.565758 -158.536222 
L 1273.814545 -156.629655 
L 1287.063333 -154.74461 
L 1300.312121 -152.880608 
L 1313.560909 -151.037182 
L 1326.809697 -149.213885 
L 1340.058485 -147.410281 
L 1353.307273 -145.62595 
L 1366.556061 -143.860483 
L 1379.804848 -142.113487 
L 1393.053636 -140.384578 
L 1406.302424 -138.673387 
L 1419.551212 -136.979552 
L 1432.8 -135.302727 
L 1432.8 -850.894605 
L 1432.8 -850.894605 
L 1419.551212 -849.728338 
L 1406.302424 -848.55024 
L 1393.053636 -847.360071 
L 1379.804848 -846.157579 
L 1366.556061 -844.942506 
L 1353.307273 -843.714587 
L 1340.058485 -842.473547 
L 1326.809697 -841.219103 
L 1313.560909 -839.950961 
L 1300.312121 -838.66882 
L 1287.063333 -837.372367 
L 1273.814545 -835.756519 
L 1260.565758 -833.897257 
L 1247.31697 -832.016523 
L 1234.068182 -830.113813 
L 1220.819394 -828.188609 
L 1207.570606 -826.240371 
L 1194.321818 -824.268543 
L 1181.07303 -822.272545 
L 1167.824242 -820.251778 
L 1154.575455 -818.20562 
L 1141.326667 -816.133425 
L 1128.077879 -814.03452 
L 1114.829091 -811.908209 
L 1101.580303 -809.753766 
L 1088.331515 -807.570437 
L 1075.082727 -805.357437 
L 1061.833939 -803.113948 
L 1048.585152 -800.839119 
L 1035.336364 -798.532061 
L 1022.087576 -796.191848 
L 1008.838788 -793.817514 
L 995.59 -791.408047 
L 982.341212 -788.962394 
L 969.092424 -786.479451 
L 955.843636 -783.958062 
L 942.594848 -781.397019 
L 929.346061 -778.795054 
L 916.097273 -776.150838 
L 902.848485 -773.462977 
L 889.599697 -770.730004 
L 876.350909 -767.949644 
L 863.102121 -765.093642 
L 849.853333 -762.187165 
L 836.604545 -759.228399 
L 823.355758 -756.215426 
L 810.10697 -753.917886 
L 796.858182 -752.175877 
L 783.609394 -750.400097 
L 770.360606 -748.589212 
L 757.111818 -746.741804 
L 743.86303 -744.856371 
L 730.614242 -742.931313 
L 717.365455 -740.96493 
L 704.116667 -738.955408 
L 690.867879 -736.900813 
L 677.619091 -734.529553 
L 664.370303 -730.363681 
L 651.121515 -726.073517 
L 637.872727 -721.631457 
L 624.623939 -717.077173 
L 611.375152 -712.404848 
L 598.126364 -707.6082 
L 584.877576 -702.680431 
L 571.628788 -697.332578 
L 558.38 -692.511509 
L 545.131212 -689.84567 
L 531.882424 -687.183225 
L 518.633636 -684.436475 
L 505.384848 -681.489057 
L 492.136061 -676.827604 
L 478.887273 -668.142867 
L 465.638485 -668.075327 
L 452.389697 -668.099477 
L 439.140909 -664.350779 
L 425.892121 -662.673215 
L 412.643333 -657.633066 
L 399.394545 -652.316094 
L 386.145758 -650.236299 
L 372.89697 -649.36506 
L 359.648182 -647.021489 
L 346.399394 -648.681812 
L 333.150606 -644.7614 
L 319.901818 -641.166524 
L 306.65303 -642.976929 
L 293.404242 -645.247273 
L 280.155455 -646.35498 
L 266.906667 -654.062309 
L 253.657879 -662.591923 
L 240.409091 -672.420484 
L 227.160303 -683.061675 
L 213.911515 -697.081752 
L 200.662727 -711.298526 
L 187.413939 -727.499996 
L 174.165152 -748.985598 
L 160.916364 -778.099901 
L 147.667576 -817.395417 
L 134.418788 -878.803765 
L 121.17 -978.961462 
z
" style="stroke: #ffffff; stroke-opacity: 0.15; stroke-width: 1.5"/>
    </defs>
    <g clip-path="url(#p33a7ad091b)">
     <use xlink:href="#md39d45c6a9" x="0" y="1080" style="fill: #e37222; fill-opacity: 0.15; stroke: #ffffff; stroke-opacity: 0.15; stroke-width: 1.5"/>
    </g>
   </g>
   <g id="PolyCollection_2">
    <defs>
     <path id="mb0e656e372" d="M 121.17 -871.3841 
L 121.17 -193.958317 
L 134.418788 -277.696099 
L 147.667576 -326.554473 
L 160.916364 -363.292854 
L 174.165152 -391.697232 
L 187.413939 -413.431962 
L 200.662727 -425.19628 
L 213.911515 -438.235624 
L 227.160303 -445.975739 
L 240.409091 -453.348127 
L 253.657879 -459.40198 
L 266.906667 -467.306401 
L 280.155455 -470.692069 
L 293.404242 -473.074305 
L 306.65303 -472.530659 
L 319.901818 -473.051147 
L 333.150606 -472.603122 
L 346.399394 -470.668502 
L 359.648182 -470.360389 
L 372.89697 -468.838667 
L 386.145758 -469.771278 
L 399.394545 -468.535815 
L 412.643333 -465.526325 
L 425.892121 -465.136509 
L 439.140909 -463.490662 
L 452.389697 -460.736174 
L 465.638485 -456.385681 
L 478.887273 -452.197176 
L 492.136061 -448.205026 
L 505.384848 -445.904105 
L 518.633636 -443.441057 
L 531.882424 -440.210189 
L 545.131212 -439.970656 
L 558.38 -438.367292 
L 571.628788 -435.382184 
L 584.877576 -433.540102 
L 598.126364 -430.787553 
L 611.375152 -428.097447 
L 624.623939 -425.463838 
L 637.872727 -422.896764 
L 651.121515 -420.392946 
L 664.370303 -417.949341 
L 677.619091 -415.584755 
L 690.867879 -414.141458 
L 704.116667 -412.823967 
L 717.365455 -410.129372 
L 730.614242 -407.239228 
L 743.86303 -404.450575 
L 757.111818 -402.34546 
L 770.360606 -400.297928 
L 783.609394 -398.321758 
L 796.858182 -397.15335 
L 810.10697 -395.391437 
L 823.355758 -394.474086 
L 836.604545 -393.654443 
L 849.853333 -392.134705 
L 863.102121 -390.241435 
L 876.350909 -388.387628 
L 889.599697 -386.565465 
L 902.848485 -384.988208 
L 916.097273 -384.119405 
L 929.346061 -383.278951 
L 942.594848 -382.451927 
L 955.843636 -381.40311 
L 969.092424 -380.712594 
L 982.341212 -379.990307 
L 995.59 -379.190062 
L 1008.838788 -378.401658 
L 1022.087576 -377.624749 
L 1035.336364 -376.859005 
L 1048.585152 -376.10411 
L 1061.833939 -375.35976 
L 1075.082727 -374.625666 
L 1088.331515 -373.282312 
L 1101.580303 -371.938339 
L 1114.829091 -370.612148 
L 1128.077879 -369.303273 
L 1141.326667 -368.011269 
L 1154.575455 -366.735705 
L 1167.824242 -365.476169 
L 1181.07303 -364.232264 
L 1194.321818 -363.003605 
L 1207.570606 -361.789824 
L 1220.819394 -360.590564 
L 1234.068182 -359.405483 
L 1247.31697 -358.234248 
L 1260.565758 -357.076541 
L 1273.814545 -355.932052 
L 1287.063333 -354.800482 
L 1300.312121 -353.681544 
L 1313.560909 -352.574958 
L 1326.809697 -351.480455 
L 1340.058485 -350.397774 
L 1353.307273 -349.326661 
L 1366.556061 -348.266873 
L 1379.804848 -347.218173 
L 1393.053636 -346.18033 
L 1406.302424 -345.160641 
L 1419.551212 -344.156415 
L 1432.8 -343.162273 
L 1432.8 -778.271999 
L 1432.8 -778.271999 
L 1419.551212 -777.221735 
L 1406.302424 -775.975567 
L 1393.053636 -774.606802 
L 1379.804848 -773.223866 
L 1366.556061 -771.826462 
L 1353.307273 -770.402971 
L 1340.058485 -768.963334 
L 1326.809697 -767.508147 
L 1313.560909 -766.037071 
L 1300.312121 -764.549755 
L 1287.063333 -763.045837 
L 1273.814545 -761.497934 
L 1260.565758 -759.788317 
L 1247.31697 -758.058955 
L 1234.068182 -756.309387 
L 1220.819394 -754.539134 
L 1207.570606 -752.747702 
L 1194.321818 -751.526293 
L 1181.07303 -750.402969 
L 1167.824242 -749.067652 
L 1154.575455 -747.822613 
L 1141.326667 -746.556452 
L 1128.077879 -745.141234 
L 1114.829091 -743.256534 
L 1101.580303 -741.336454 
L 1088.331515 -739.390629 
L 1075.082727 -737.418362 
L 1061.833939 -735.418922 
L 1048.585152 -733.521692 
L 1035.336364 -731.860476 
L 1022.087576 -730.026736 
L 1008.838788 -728.046423 
L 995.59 -726.361614 
L 982.341212 -724.647498 
L 969.092424 -722.097427 
L 955.843636 -719.33701 
L 942.594848 -717.101741 
L 929.346061 -714.830754 
L 916.097273 -713.126138 
L 902.848485 -711.548464 
L 889.599697 -709.944311 
L 876.350909 -708.312742 
L 863.102121 -706.651657 
L 849.853333 -704.961216 
L 836.604545 -703.240362 
L 823.355758 -701.487981 
L 810.10697 -699.464083 
L 796.858182 -697.046296 
L 783.609394 -694.512086 
L 770.360606 -692.203217 
L 757.111818 -690.339748 
L 743.86303 -687.941239 
L 730.614242 -685.492324 
L 717.365455 -683.558065 
L 704.116667 -681.142287 
L 690.867879 -678.513654 
L 677.619091 -675.759976 
L 664.370303 -673.313431 
L 651.121515 -670.603713 
L 637.872727 -667.803396 
L 624.623939 -664.893803 
L 611.375152 -661.663599 
L 598.126364 -659.725362 
L 584.877576 -657.291341 
L 571.628788 -653.836389 
L 558.38 -650.707646 
L 545.131212 -647.133248 
L 531.882424 -644.381876 
L 518.633636 -641.393849 
L 505.384848 -639.043535 
L 492.136061 -634.952474 
L 478.887273 -633.044435 
L 465.638485 -630.5976 
L 452.389697 -627.898345 
L 439.140909 -625.817605 
L 425.892121 -624.770928 
L 412.643333 -623.444055 
L 399.394545 -621.104765 
L 386.145758 -618.529531 
L 372.89697 -618.527389 
L 359.648182 -615.33606 
L 346.399394 -617.658844 
L 333.150606 -617.838069 
L 319.901818 -618.551846 
L 306.65303 -624.539516 
L 293.404242 -629.526114 
L 280.155455 -633.661183 
L 266.906667 -638.825107 
L 253.657879 -644.264281 
L 240.409091 -652.482414 
L 227.160303 -659.78864 
L 213.911515 -670.317166 
L 200.662727 -682.299587 
L 187.413939 -695.306637 
L 174.165152 -713.406494 
L 160.916364 -735.851721 
L 147.667576 -763.7378 
L 134.418788 -802.637859 
L 121.17 -871.3841 
z
" style="stroke: #ffffff; stroke-opacity: 0.15; stroke-width: 1.5"/>
    </defs>
    <g clip-path="url(#p33a7ad091b)">
     <use xlink:href="#mb0e656e372" x="0" y="1080" style="fill: #a2ad00; fill-opacity: 0.15; stroke: #ffffff; stroke-opacity: 0.15; stroke-width: 1.5"/>
    </g>
   </g>
   <g id="line2d_46">
    <path d="M 121.17 421.523292 
L 134.418788 460.488511 
L 147.667576 483.869613 
L 160.916364 500.628469 
L 174.165152 513.699969 
L 187.413939 524.417659 
L 200.662727 533.501277 
L 213.911515 541.383807 
L 227.160303 548.346104 
L 240.409091 554.580742 
L 253.657879 560.225533 
L 266.906667 565.382502 
L 280.155455 570.129298 
L 293.404242 574.52639 
L 306.65303 578.621787 
L 319.901818 582.454245 
L 333.150606 586.055499 
L 346.399394 589.451865 
L 359.648182 592.665408 
L 372.89697 595.714808 
L 386.145758 598.616022 
L 399.394545 601.382787 
L 412.643333 604.027015 
L 425.892121 606.5591 
L 439.140909 608.98817 
L 452.389697 611.32228 
L 465.638485 613.568575 
L 478.887273 615.733425 
L 492.136061 617.82253 
L 505.384848 619.84101 
L 518.633636 621.793486 
L 531.882424 623.684138 
L 545.131212 625.516761 
L 558.38 627.294812 
L 571.628788 629.021447 
L 584.877576 630.699555 
L 598.126364 632.331791 
L 611.375152 633.920596 
L 624.623939 635.468221 
L 637.872727 636.976747 
L 651.121515 638.448101 
L 664.370303 639.884071 
L 677.619091 641.286319 
L 690.867879 642.656392 
L 704.116667 643.995734 
L 717.365455 645.305694 
L 730.614242 646.587533 
L 743.86303 647.842432 
L 757.111818 649.071502 
L 770.360606 650.275784 
L 783.609394 651.456257 
L 796.858182 652.613846 
L 810.10697 653.74942 
L 823.355758 654.863802 
L 836.604545 655.957768 
L 849.853333 657.032052 
L 863.102121 658.08735 
L 876.350909 659.124322 
L 889.599697 660.143593 
L 902.848485 661.145758 
L 916.097273 662.131381 
L 929.346061 663.100999 
L 942.594848 664.055124 
L 955.843636 664.994243 
L 969.092424 665.918821 
L 982.341212 666.829302 
L 995.59 667.726109 
L 1008.838788 668.609646 
L 1022.087576 669.4803 
L 1035.336364 670.338442 
L 1048.585152 671.184427 
L 1061.833939 672.018593 
L 1075.082727 672.841267 
L 1088.331515 673.652761 
L 1101.580303 674.453375 
L 1114.829091 675.243396 
L 1128.077879 676.023102 
L 1141.326667 676.792757 
L 1154.575455 677.552619 
L 1167.824242 678.302933 
L 1181.07303 679.043936 
L 1194.321818 679.775857 
L 1207.570606 680.498915 
L 1220.819394 681.213322 
L 1234.068182 681.919283 
L 1247.31697 682.616995 
L 1260.565758 683.306649 
L 1273.814545 683.988429 
L 1287.063333 684.662513 
L 1300.312121 685.329072 
L 1313.560909 685.988273 
L 1326.809697 686.640276 
L 1340.058485 687.285237 
L 1353.307273 687.923306 
L 1366.556061 688.554629 
L 1379.804848 689.179347 
L 1393.053636 689.797597 
L 1406.302424 690.409512 
L 1419.551212 691.015219 
L 1432.8 691.614844 
" clip-path="url(#p33a7ad091b)" style="fill: none; stroke: #e37222; stroke-width: 3.375; stroke-linecap: round"/>
   </g>
   <g id="line2d_47">
    <path d="M 121.17 452.32875 
L 134.418788 471.384796 
L 147.667576 482.819387 
L 160.916364 491.015351 
L 174.165152 497.408003 
L 187.413939 502.649519 
L 200.662727 507.091886 
L 213.911515 510.946859 
L 227.160303 514.351789 
L 240.409091 517.400856 
L 253.657879 520.161456 
L 266.906667 522.683486 
L 280.155455 525.004919 
L 293.404242 527.155329 
L 306.65303 529.158194 
L 319.901818 531.032468 
L 333.150606 532.793671 
L 346.399394 534.454673 
L 359.648182 536.026265 
L 372.89697 537.517582 
L 386.145758 538.936428 
L 399.394545 540.289522 
L 412.643333 541.582689 
L 425.892121 542.821013 
L 439.140909 544.008956 
L 452.389697 545.150458 
L 465.638485 546.249015 
L 478.887273 547.307741 
L 492.136061 548.329423 
L 505.384848 549.316566 
L 518.633636 550.27143 
L 531.882424 551.196058 
L 545.131212 552.092308 
L 558.38 552.961868 
L 571.628788 553.806284 
L 584.877576 554.626967 
L 598.126364 555.425217 
L 611.375152 556.202226 
L 624.623939 556.959096 
L 637.872727 557.696845 
L 651.121515 558.416414 
L 664.370303 559.118679 
L 677.619091 559.804452 
L 690.867879 560.47449 
L 704.116667 561.129499 
L 717.365455 561.770139 
L 730.614242 562.397025 
L 743.86303 563.010738 
L 757.111818 563.611817 
L 770.360606 564.200775 
L 783.609394 564.778088 
L 796.858182 565.34421 
L 810.10697 565.899566 
L 823.355758 566.444557 
L 836.604545 566.979564 
L 849.853333 567.504946 
L 863.102121 568.021042 
L 876.350909 568.528176 
L 889.599697 569.026653 
L 902.848485 569.516765 
L 916.097273 569.998786 
L 929.346061 570.472981 
L 942.594848 570.939598 
L 955.843636 571.398877 
L 969.092424 571.851044 
L 982.341212 572.296317 
L 995.59 572.734903 
L 1008.838788 573.166999 
L 1022.087576 573.592795 
L 1035.336364 574.012472 
L 1048.585152 574.426203 
L 1061.833939 574.834154 
L 1075.082727 575.236485 
L 1088.331515 575.633348 
L 1101.580303 576.024891 
L 1114.829091 576.411253 
L 1128.077879 576.79257 
L 1141.326667 577.168972 
L 1154.575455 577.540585 
L 1167.824242 577.907528 
L 1181.07303 578.269917 
L 1194.321818 578.627865 
L 1207.570606 578.981478 
L 1220.819394 579.330861 
L 1234.068182 579.676113 
L 1247.31697 580.017331 
L 1260.565758 580.354609 
L 1273.814545 580.688035 
L 1287.063333 581.017698 
L 1300.312121 581.34368 
L 1313.560909 581.666064 
L 1326.809697 581.984928 
L 1340.058485 582.300348 
L 1353.307273 582.612397 
L 1366.556061 582.921147 
L 1379.804848 583.226667 
L 1393.053636 583.529024 
L 1406.302424 583.828283 
L 1419.551212 584.124506 
L 1432.8 584.417754 
" clip-path="url(#p33a7ad091b)" style="fill: none; stroke: #a2ad00; stroke-width: 3.375; stroke-linecap: round"/>
   </g>
   <g id="patch_3">
    <path d="M 121.17 989.34 
L 121.17 7.2 
" style="fill: none; stroke: #cccccc; stroke-width: 1.875; stroke-linejoin: miter; stroke-linecap: square"/>
   </g>
   <g id="patch_4">
    <path d="M 1432.8 989.34 
L 1432.8 7.2 
" style="fill: none; stroke: #cccccc; stroke-width: 1.875; stroke-linejoin: miter; stroke-linecap: square"/>
   </g>
   <g id="patch_5">
    <path d="M 121.17 989.34 
L 1432.8 989.34 
" style="fill: none; stroke: #cccccc; stroke-width: 1.875; stroke-linejoin: miter; stroke-linecap: square"/>
   </g>
   <g id="patch_6">
    <path d="M 121.17 7.2 
L 1432.8 7.2 
" style="fill: none; stroke: #cccccc; stroke-width: 1.875; stroke-linejoin: miter; stroke-linecap: square"/>
   </g>
   <g id="legend_1">
    <g id="patch_7">
     <path d="M 701.184844 227.35125 
L 1409.7 227.35125 
Q 1416.3 227.35125 1416.3 220.75125 
L 1416.3 30.3 
Q 1416.3 23.7 1409.7 23.7 
L 701.184844 23.7 
Q 694.584844 23.7 694.584844 30.3 
L 694.584844 220.75125 
Q 694.584844 227.35125 701.184844 227.35125 
z
" style="fill: #ffffff; opacity: 0.8; stroke: #cccccc; stroke-width: 1.5; stroke-linejoin: miter"/>
    </g>
    <g id="PathCollection_4">
     <defs>
      <path id="mabb99ebcb2" d="M 0 4.5 
C 1.193414 4.5 2.338109 4.025852 3.181981 3.181981 
C 4.025852 2.338109 4.5 1.193414 4.5 0 
C 4.5 -1.193414 4.025852 -2.338109 3.181981 -3.181981 
C 2.338109 -4.025852 1.193414 -4.5 0 -4.5 
C -1.193414 -4.5 -2.338109 -4.025852 -3.181981 -3.181981 
C -4.025852 -2.338109 -4.5 -1.193414 -4.5 0 
C -4.5 1.193414 -4.025852 2.338109 -3.181981 3.181981 
C -2.338109 4.025852 -1.193414 4.5 0 4.5 
z
" style="stroke: #e37222; stroke-width: 1.5"/>
     </defs>
     <g>
      <use xlink:href="#mabb99ebcb2" x="740.784844" y="53.312344" style="fill: #e37222; stroke: #e37222; stroke-width: 1.5"/>
     </g>
    </g>
    <g id="text_14">
     <!-- dynamic -->
     <g style="fill: #262626" transform="translate(800.184844 61.974844) scale(0.33 -0.33)">
      <defs>
       <path id="DejaVuSans-64" d="M 2906 2969 
L 2906 4863 
L 3481 4863 
L 3481 0 
L 2906 0 
L 2906 525 
Q 2725 213 2448 61 
Q 2172 -91 1784 -91 
Q 1150 -91 751 415 
Q 353 922 353 1747 
Q 353 2572 751 3078 
Q 1150 3584 1784 3584 
Q 2172 3584 2448 3432 
Q 2725 3281 2906 2969 
z
M 947 1747 
Q 947 1113 1208 752 
Q 1469 391 1925 391 
Q 2381 391 2643 752 
Q 2906 1113 2906 1747 
Q 2906 2381 2643 2742 
Q 2381 3103 1925 3103 
Q 1469 3103 1208 2742 
Q 947 2381 947 1747 
z
" transform="scale(0.015625)"/>
       <path id="DejaVuSans-79" d="M 2059 -325 
Q 1816 -950 1584 -1140 
Q 1353 -1331 966 -1331 
L 506 -1331 
L 506 -850 
L 844 -850 
Q 1081 -850 1212 -737 
Q 1344 -625 1503 -206 
L 1606 56 
L 191 3500 
L 800 3500 
L 1894 763 
L 2988 3500 
L 3597 3500 
L 2059 -325 
z
" transform="scale(0.015625)"/>
       <path id="DejaVuSans-63" d="M 3122 3366 
L 3122 2828 
Q 2878 2963 2633 3030 
Q 2388 3097 2138 3097 
Q 1578 3097 1268 2742 
Q 959 2388 959 1747 
Q 959 1106 1268 751 
Q 1578 397 2138 397 
Q 2388 397 2633 464 
Q 2878 531 3122 666 
L 3122 134 
Q 2881 22 2623 -34 
Q 2366 -91 2075 -91 
Q 1284 -91 818 406 
Q 353 903 353 1747 
Q 353 2603 823 3093 
Q 1294 3584 2113 3584 
Q 2378 3584 2631 3529 
Q 2884 3475 3122 3366 
z
" transform="scale(0.015625)"/>
      </defs>
      <use xlink:href="#DejaVuSans-64"/>
      <use xlink:href="#DejaVuSans-79" x="63.476562"/>
      <use xlink:href="#DejaVuSans-6e" x="122.65625"/>
      <use xlink:href="#DejaVuSans-61" x="186.035156"/>
      <use xlink:href="#DejaVuSans-6d" x="247.314453"/>
      <use xlink:href="#DejaVuSans-69" x="344.726562"/>
      <use xlink:href="#DejaVuSans-63" x="372.509766"/>
     </g>
    </g>
    <g id="PathCollection_5">
     <defs>
      <path id="m717e311914" d="M 0 4.5 
C 1.193414 4.5 2.338109 4.025852 3.181981 3.181981 
C 4.025852 2.338109 4.5 1.193414 4.5 0 
C 4.5 -1.193414 4.025852 -2.338109 3.181981 -3.181981 
C 2.338109 -4.025852 1.193414 -4.5 0 -4.5 
C -1.193414 -4.5 -2.338109 -4.025852 -3.181981 -3.181981 
C -4.025852 -2.338109 -4.5 -1.193414 -4.5 0 
C -4.5 1.193414 -4.025852 2.338109 -3.181981 3.181981 
C -2.338109 4.025852 -1.193414 4.5 0 4.5 
z
" style="stroke: #a2ad00; stroke-width: 1.5"/>
     </defs>
     <g>
      <use xlink:href="#m717e311914" x="740.784844" y="101.750156" style="fill: #a2ad00; stroke: #a2ad00; stroke-width: 1.5"/>
     </g>
    </g>
    <g id="text_15">
     <!-- static -->
     <g style="fill: #262626" transform="translate(800.184844 110.412656) scale(0.33 -0.33)">
      <use xlink:href="#DejaVuSans-73"/>
      <use xlink:href="#DejaVuSans-74" x="52.099609"/>
      <use xlink:href="#DejaVuSans-61" x="91.308594"/>
      <use xlink:href="#DejaVuSans-74" x="152.587891"/>
      <use xlink:href="#DejaVuSans-69" x="191.796875"/>
      <use xlink:href="#DejaVuSans-63" x="219.580078"/>
     </g>
    </g>
    <g id="line2d_48">
     <path d="M 707.784844 147.300469 
L 740.784844 147.300469 
L 773.784844 147.300469 
" style="fill: none; stroke: #e37222; stroke-width: 3.375; stroke-linecap: round"/>
    </g>
    <g id="text_16">
     <!-- dynamic - linear regression x~log(y) -->
     <g style="fill: #262626" transform="translate(800.184844 158.850469) scale(0.33 -0.33)">
      <defs>
       <path id="DejaVuSans-78" d="M 3513 3500 
L 2247 1797 
L 3578 0 
L 2900 0 
L 1881 1375 
L 863 0 
L 184 0 
L 1544 1831 
L 300 3500 
L 978 3500 
L 1906 2253 
L 2834 3500 
L 3513 3500 
z
" transform="scale(0.015625)"/>
       <path id="DejaVuSans-7e" d="M 4684 2553 
L 4684 1997 
Q 4356 1750 4076 1644 
Q 3797 1538 3494 1538 
Q 3150 1538 2694 1722 
Q 2659 1734 2644 1741 
Q 2622 1750 2575 1766 
Q 2091 1959 1797 1959 
Q 1522 1959 1253 1839 
Q 984 1719 678 1459 
L 678 2016 
Q 1006 2263 1286 2370 
Q 1566 2478 1869 2478 
Q 2213 2478 2672 2291 
Q 2703 2278 2719 2272 
Q 2744 2263 2788 2247 
Q 3272 2053 3566 2053 
Q 3834 2053 4098 2172 
Q 4363 2291 4684 2553 
z
" transform="scale(0.015625)"/>
       <path id="DejaVuSans-28" d="M 1984 4856 
Q 1566 4138 1362 3434 
Q 1159 2731 1159 2009 
Q 1159 1288 1364 580 
Q 1569 -128 1984 -844 
L 1484 -844 
Q 1016 -109 783 600 
Q 550 1309 550 2009 
Q 550 2706 781 3412 
Q 1013 4119 1484 4856 
L 1984 4856 
z
" transform="scale(0.015625)"/>
       <path id="DejaVuSans-29" d="M 513 4856 
L 1013 4856 
Q 1481 4119 1714 3412 
Q 1947 2706 1947 2009 
Q 1947 1309 1714 600 
Q 1481 -109 1013 -844 
L 513 -844 
Q 928 -128 1133 580 
Q 1338 1288 1338 2009 
Q 1338 2731 1133 3434 
Q 928 4138 513 4856 
z
" transform="scale(0.015625)"/>
      </defs>
      <use xlink:href="#DejaVuSans-64"/>
      <use xlink:href="#DejaVuSans-79" x="63.476562"/>
      <use xlink:href="#DejaVuSans-6e" x="122.65625"/>
      <use xlink:href="#DejaVuSans-61" x="186.035156"/>
      <use xlink:href="#DejaVuSans-6d" x="247.314453"/>
      <use xlink:href="#DejaVuSans-69" x="344.726562"/>
      <use xlink:href="#DejaVuSans-63" x="372.509766"/>
      <use xlink:href="#DejaVuSans-20" x="427.490234"/>
      <use xlink:href="#DejaVuSans-2d" x="459.277344"/>
      <use xlink:href="#DejaVuSans-20" x="495.361328"/>
      <use xlink:href="#DejaVuSans-6c" x="527.148438"/>
      <use xlink:href="#DejaVuSans-69" x="554.931641"/>
      <use xlink:href="#DejaVuSans-6e" x="582.714844"/>
      <use xlink:href="#DejaVuSans-65" x="646.09375"/>
      <use xlink:href="#DejaVuSans-61" x="707.617188"/>
      <use xlink:href="#DejaVuSans-72" x="768.896484"/>
      <use xlink:href="#DejaVuSans-20" x="810.009766"/>
      <use xlink:href="#DejaVuSans-72" x="841.796875"/>
      <use xlink:href="#DejaVuSans-65" x="880.660156"/>
      <use xlink:href="#DejaVuSans-67" x="942.183594"/>
      <use xlink:href="#DejaVuSans-72" x="1005.660156"/>
      <use xlink:href="#DejaVuSans-65" x="1044.523438"/>
      <use xlink:href="#DejaVuSans-73" x="1106.046875"/>
      <use xlink:href="#DejaVuSans-73" x="1158.146484"/>
      <use xlink:href="#DejaVuSans-69" x="1210.246094"/>
      <use xlink:href="#DejaVuSans-6f" x="1238.029297"/>
      <use xlink:href="#DejaVuSans-6e" x="1299.210938"/>
      <use xlink:href="#DejaVuSans-20" x="1362.589844"/>
      <use xlink:href="#DejaVuSans-78" x="1394.376953"/>
      <use xlink:href="#DejaVuSans-7e" x="1453.556641"/>
      <use xlink:href="#DejaVuSans-6c" x="1537.345703"/>
      <use xlink:href="#DejaVuSans-6f" x="1565.128906"/>
      <use xlink:href="#DejaVuSans-67" x="1626.310547"/>
      <use xlink:href="#DejaVuSans-28" x="1689.787109"/>
      <use xlink:href="#DejaVuSans-79" x="1728.800781"/>
      <use xlink:href="#DejaVuSans-29" x="1787.980469"/>
     </g>
    </g>
    <g id="line2d_49">
     <path d="M 707.784844 195.738281 
L 740.784844 195.738281 
L 773.784844 195.738281 
" style="fill: none; stroke: #a2ad00; stroke-width: 3.375; stroke-linecap: round"/>
    </g>
    <g id="text_17">
     <!-- static - linear regression x~log(y) -->
     <g style="fill: #262626" transform="translate(800.184844 207.288281) scale(0.33 -0.33)">
      <use xlink:href="#DejaVuSans-73"/>
      <use xlink:href="#DejaVuSans-74" x="52.099609"/>
      <use xlink:href="#DejaVuSans-61" x="91.308594"/>
      <use xlink:href="#DejaVuSans-74" x="152.587891"/>
      <use xlink:href="#DejaVuSans-69" x="191.796875"/>
      <use xlink:href="#DejaVuSans-63" x="219.580078"/>
      <use xlink:href="#DejaVuSans-20" x="274.560547"/>
      <use xlink:href="#DejaVuSans-2d" x="306.347656"/>
      <use xlink:href="#DejaVuSans-20" x="342.431641"/>
      <use xlink:href="#DejaVuSans-6c" x="374.21875"/>
      <use xlink:href="#DejaVuSans-69" x="402.001953"/>
      <use xlink:href="#DejaVuSans-6e" x="429.785156"/>
      <use xlink:href="#DejaVuSans-65" x="493.164062"/>
      <use xlink:href="#DejaVuSans-61" x="554.6875"/>
      <use xlink:href="#DejaVuSans-72" x="615.966797"/>
      <use xlink:href="#DejaVuSans-20" x="657.080078"/>
      <use xlink:href="#DejaVuSans-72" x="688.867188"/>
      <use xlink:href="#DejaVuSans-65" x="727.730469"/>
      <use xlink:href="#DejaVuSans-67" x="789.253906"/>
      <use xlink:href="#DejaVuSans-72" x="852.730469"/>
      <use xlink:href="#DejaVuSans-65" x="891.59375"/>
      <use xlink:href="#DejaVuSans-73" x="953.117188"/>
      <use xlink:href="#DejaVuSans-73" x="1005.216797"/>
      <use xlink:href="#DejaVuSans-69" x="1057.316406"/>
      <use xlink:href="#DejaVuSans-6f" x="1085.099609"/>
      <use xlink:href="#DejaVuSans-6e" x="1146.28125"/>
      <use xlink:href="#DejaVuSans-20" x="1209.660156"/>
      <use xlink:href="#DejaVuSans-78" x="1241.447266"/>
      <use xlink:href="#DejaVuSans-7e" x="1300.626953"/>
      <use xlink:href="#DejaVuSans-6c" x="1384.416016"/>
      <use xlink:href="#DejaVuSans-6f" x="1412.199219"/>
      <use xlink:href="#DejaVuSans-67" x="1473.380859"/>
      <use xlink:href="#DejaVuSans-28" x="1536.857422"/>
      <use xlink:href="#DejaVuSans-79" x="1575.871094"/>
      <use xlink:href="#DejaVuSans-29" x="1635.050781"/>
     </g>
    </g>
   </g>
  </g>
  <g id="text_18">
   <!-- single-threaded -->
   <g style="fill: #808080" transform="translate(14.4 1058.4) scale(0.36 -0.36)">
    <defs>
     <path id="DejaVuSans-68" d="M 3513 2113 
L 3513 0 
L 2938 0 
L 2938 2094 
Q 2938 2591 2744 2837 
Q 2550 3084 2163 3084 
Q 1697 3084 1428 2787 
Q 1159 2491 1159 1978 
L 1159 0 
L 581 0 
L 581 4863 
L 1159 4863 
L 1159 2956 
Q 1366 3272 1645 3428 
Q 1925 3584 2291 3584 
Q 2894 3584 3203 3211 
Q 3513 2838 3513 2113 
z
" transform="scale(0.015625)"/>
    </defs>
    <use xlink:href="#DejaVuSans-73"/>
    <use xlink:href="#DejaVuSans-69" x="52.099609"/>
    <use xlink:href="#DejaVuSans-6e" x="79.882812"/>
    <use xlink:href="#DejaVuSans-67" x="143.261719"/>
    <use xlink:href="#DejaVuSans-6c" x="206.738281"/>
    <use xlink:href="#DejaVuSans-65" x="234.521484"/>
    <use xlink:href="#DejaVuSans-2d" x="296.044922"/>
    <use xlink:href="#DejaVuSans-74" x="332.128906"/>
    <use xlink:href="#DejaVuSans-68" x="371.337891"/>
    <use xlink:href="#DejaVuSans-72" x="434.716797"/>
    <use xlink:href="#DejaVuSans-65" x="473.580078"/>
    <use xlink:href="#DejaVuSans-61" x="535.103516"/>
    <use xlink:href="#DejaVuSans-64" x="596.382812"/>
    <use xlink:href="#DejaVuSans-65" x="659.859375"/>
    <use xlink:href="#DejaVuSans-64" x="721.382812"/>
   </g>
  </g>
 </g>
 <defs>
  <clipPath id="p33a7ad091b">
   <rect x="121.17" y="7.2" width="1311.63" height="982.14"/>
  </clipPath>
 </defs>
</svg>
